/* XPM */
static char *bmp007[] = {
/* width height num_colors chars_per_pixel */
"    30    30        4            1",
/* colors */
". c #000000",
"# c #7e7e7e",
"a c #c0c0c0",
"b c #ffff00",
/* pixels */
"..............................",
".############################a",
".############################a",
".############################a",
".############################a",
".#########bbb##bb##b#########a",
".########b###b#bb##b#########a",
".########b###b#b#b#b#########a",
".########b###b#b#b#b#########a",
".########b###b#b##bb#########a",
".#########bbb##b##bb#########a",
".############################a",
".############################a",
".############################a",
".aaaaaaaaaaaaaaaaaaaaaaaaaaaaa",
"aaaaaaaaaaaaaaaaaaaaaaaaaaaaaa",
"a############################.",
"a############################.",
"a############################.",
"a############################.",
"a########aaa##aaaa#aaaa######.",
"a#######a###a#a####a#########.",
"a#######a###a#aaa##aaa#######.",
"a#######a###a#a####a#########.",
"a#######a###a#a####a#########.",
"a########aaa##a####a#########.",
"a############################.",
"a############################.",
"a############################.",
"a............................."
};
