/* XPM */
static char *bmp010[] = {
/* width height num_colors chars_per_pixel */
"    7    190        3            1",
/* colors */
". c #000000",
"# c #4b0000",
"a c #f70000",
/* pixels */
".......",
".......",
".......",
".......",
".aaaaa.",
"a.....a",
"a.....a",
"a.....a",
"a.....a",
".#####.",
"a.....a",
"a.....a",
"a.....a",
"a.....a",
".aaaaa.",
".......",
".......",
".......",
".......",

".......",
".......",
".......",
".......",
".#####.",
"#.....a",
"#.....a",
"#.....a",
"#.....a",
".#####.",
"#.....a",
"#.....a",
"#.....a",
"#.....a",
".#####.",
".......",
".......",
".......",
".......",

".......",
".......",
".......",
".......",
".aaaaa.",
"#.....a",
"#.....a",
"#.....a",
"#.....a",
".aaaaa.",
"a.....#",
"a.....#",
"a.....#",
"a.....#",
".aaaaa.",
".......",
".......",
".......",
".......",

".......",
".......",
".......",
".......",
".aaaaa.",
"#.....a",
"#.....a",
"#.....a",
"#.....a",
".aaaaa.",
"#.....a",
"#.....a",
"#.....a",
"#.....a",
".aaaaa.",
".......",
".......",
".......",
".......",

".......",
".......",
".......",
".......",
".#####.",
"a.....a",
"a.....a",
"a.....a",
"a.....a",
".aaaaa.",
"#.....a",
"#.....a",
"#.....a",
"#.....a",
".#####.",
".......",
".......",
".......",
".......",

".......",
".......",
".......",
".......",
".aaaaa.",
"a.....#",
"a.....#",
"a.....#",
"a.....#",
".aaaaa.",
"#.....a",
"#.....a",
"#.....a",
"#.....a",
".aaaaa.",
".......",
".......",
".......",
".......",

".......",
".......",
".......",
".......",
".aaaaa.",
"a.....#",
"a.....#",
"a.....#",
"a.....#",
".aaaaa.",
"a.....a",
"a.....a",
"a.....a",
"a.....a",
".aaaaa.",
".......",
".......",
".......",
".......",

".......",
".......",
".......",
".......",
".aaaaa.",
"#.....a",
"#.....a",
"#.....a",
"#.....a",
".#####.",
"#.....a",
"#.....a",
"#.....a",
"#.....a",
".#####.",
".......",
".......",
".......",
".......",

".......",
".......",
".......",
".......",
".aaaaa.",
"a.....a",
"a.....a",
"a.....a",
"a.....a",
".aaaaa.",
"a.....a",
"a.....a",
"a.....a",
"a.....a",
".aaaaa.",
".......",
".......",
".......",
".......",

".......",
".......",
".......",
".......",
".aaaaa.",
"a.....a",
"a.....a",
"a.....a",
"a.....a",
".aaaaa.",
"#.....a",
"#.....a",
"#.....a",
"#.....a",
".aaaaa.",
".......",
".......",
".......",
"......."
};
