/* XPM */
static char *bmp013[] = {
/* width height num_colors chars_per_pixel */
"     7   110        4            1",
/* colors */
". c #000000",
"# c #4b0000",
"a c #5a5a18",
"b c #003200",
/* pixels */
"#######",
"#######",
".......",
".......",
"aaaaaaa",
"aaaaaaa",
".......",
".......",
"aaaaaaa",
"aaaaaaa",
".......",
".......",
"aaaaaaa",
"aaaaaaa",
".......",
".......",
"bbbbbbb",
"bbbbbbb",
".......",
".......",
"bbbbbbb",
"bbbbbbb",
".......",
".......",
"bbbbbbb",
"bbbbbbb",
".......",
".......",
"bbbbbbb",
"bbbbbbb",
".......",
".......",
"bbbbbbb",
"bbbbbbb",
".......",
".......",
"bbbbbbb",
"bbbbbbb",
".......",
".......",
"bbbbbbb",
"bbbbbbb",
".......",
".......",
"bbbbbbb",
"bbbbbbb",
".......",
".......",
"bbbbbbb",
"bbbbbbb",
".......",
".......",
"bbbbbbb",
"bbbbbbb",
".......",
".......",
"bbbbbbb",
"bbbbbbb",
".......",
".......",
"bbbbbbb",
"bbbbbbb",
".......",
".......",
"bbbbbbb",
"bbbbbbb",
".......",
".......",
"bbbbbbb",
"bbbbbbb",
".......",
".......",
"bbbbbbb",
"bbbbbbb",
".......",
".......",
"bbbbbbb",
"bbbbbbb",
".......",
".......",
"bbbbbbb",
"bbbbbbb",
".......",
".......",
"bbbbbbb",
"bbbbbbb",
".......",
".......",
"bbbbbbb",
"bbbbbbb",
".......",
".......",
"bbbbbbb",
"bbbbbbb",
".......",
".......",
"bbbbbbb",
"bbbbbbb",
".......",
".......",
"bbbbbbb",
"bbbbbbb",
".......",
".......",
"bbbbbbb",
"bbbbbbb",
".......",
".......",
"bbbbbbb",
"bbbbbbb"
};
