/* XPM */
static char *bmp009[] = {
/* width height num_colors chars_per_pixel */
"    41    41       12            1",
/* colors */
". c #808080",
"# c #003366",
"a c #003333",
"b c #000033",
"c c #110000",
"d c #001100",
"e c #000044",
"f c #000022",
"g c #000011",
"h c #222222",
"i c #111111",
"j c #000000",
/* pixels */
"..............hhiiiiiiiiihh..............",
"...........hhiihihihiiiiiiiih............",
".........hhihhhhh.h......iiijihh.........",
"........hhihhhhhhh.h.h.....hiijhh........",
"......hhihhhhhhh.hhh.........hijih.......",
"......hihhhihhhhhhh..h....h.hhhhjjh......",
"....hhihhiihhhhhh.h.h....h.h.h.hhjjh.....",
"....hihiihhhhhhhhhhh.h.h..h.hhhhhhjjh....",
"...hihiiiiihihhhh.h.h.h.h.h.h.hhhhhjj....",
"...ihiihihhihhhhhhhhhh.h.h.hhhhhhhhiji...",
"..ihiiiiihihhhhhhhh.h.hh.hhh.hhhhhhijj...",
".hiiiiiiiihihihhhhhhhhhhhh.hhhhhhhhhiji..",
".hhiiiiihiihihhhhhhhhhhh.hhhhhhhhihihjj..",
".iiiiiiiiiihihihhhhhhhhhhhhhhhhhhhihiij..",
"hiiiiiiiiihihihihhhhhhhhhhhhhhhhiihiiij..",
"hiiijiiiiiiihihhihhhhhhhhhhhhhihhhihiiig.",
"iiiiiiiiiiiiihihihihihhhhhihhihhiiiiiiij#",
"iiijijiiiiiiiiihihihhhihihhihihiihihiiija",
"iiiiiiiiiiiiihiiihihihhihhihihiihiiiiiija",
"iijijijiiiiiiiihiihihiihiihihihiiiiiiijje",
"iijiiiijiiiiiiiihiiiiihiihiiiiiiiiiiiiija",
"iiiiijiiiiiiiiiiiiihihiihiihihiiiiiiiijjb",
"diijiiijijiiiiiiiiiiiiiiiiiiiiiiiiiiidija",
"iiiijiiiiijiiiiiiiiiiiiiiiiiiiiiiiiiiijjb",
"iijiiijijiijijiiiiiiiiiiiiiiiiiiiijicgija",
"iiiiijiiiijiiiijiiiiiiiiiiiiiiiiijiiiijj.",
".jijiiijijiijijiijiiiiiiiiiidijijiijijjf.",
".iiijiiiiijiiiijiijijijijijiiiiiijiidij..",
"..jjiijijiijijiijiiiiiiiiiijijijiijiijg..",
"..hiijiiiijiiiiiiijijijijijiiiiiijiijjb..",
"...jjiijijiijijijiiiiiiiiiiijijijiiijg...",
"...aiiiiiijiiiiiijijijijijiiiiiiijijj....",
"....ijjijiijijijiiiiiiiiiiijijijiij......",
".....jjiiijiiiiiiijijijijijiiiiiij.......",
"......jjijiijijijiiiiiiiiiiijijijj.......",
".......jjijiiiiiijijijijijiiiiijj........",
"........fjjjijijiiiiiiiiiijigjjj.........",
".........agjjijiiijijijijijijj...........",
"...........bijjjjjijijijijj..............",
"..............fijjjjjjjjj................",
"...............#ababab..................."
};
