/* XPM */
static char *bmp015[] = {
/* width height num_colors chars_per_pixel */
"    40   280        8            1",
/* colors */
". c #000000",
"# c #00ff00",
"a c #00ff80",
"b c #800000",
"c c #808080",
"d c #c0c0c0",
"e c #ff0000",
"f c #ffff00",
/* pixels */
"ccccccccccccccccccc.cccccccccccccccccccc",
"ccccccccccccccccccc.cccccccccccccccccccc",
"ccccccccccccccccccc.cccccccccccccccccccc",
"ccccccccccccccccccc.cccccccccccccccccccc",
"ccccccccccccccccccc.cccccccccccccccccccc",
"ccccccccccccccccddddddddcccccccccccccccc",
"ccccc.cccccccdddaaaaaaaadddccccccc.ccccc",
"cccccc.cccccdaaaaaaaaaaaaaadccccc.cccccc",
"ccccccc.ccddaaaaaaaaaaaaaaaaddcc.ccccccc",
"cccccccc.daaaaaaaaaaaaaaaaaaaad.cccccccc",
"ccccccccdaaaaaaaaaaaaaaaaaaaaaadcccccccc",
"ccccccccdaaaaaaaaaaaaaaaaaaaaaadcccccccc",
"cccccccdaaaaaaaaaaaaaaaaaaaaaaaadccccccc",
"ccccccdaaaaaaaaaabbbbbbaaaaaaaaaadcccccc",
"ccccccdaaaaaaaaabccccccbaaaaaaaaadcccccc",
"ccccccdaaaaaaaabccccccccbaaaaaaaadcccccc",
"cccccdaaaaaaaabccccccccccbaaaaaaaadccccc",
"cccccdaaaaaaabccccccccccccbaaaaaaadccccc",
"cccccdaaaaaaabccccccccccccbaaaaaaadccccc",
".....daaaaaaabccccccccccccbaaaaaaad.....",
"cccccdaaaaaaabccccccccccccbaaaaaaadccccc",
"cccccdaaaaaaabccccccccccccbaaaaaaadccccc",
"cccccdaaaaaaabccccccccccccbaaaaaaadccccc",
"cccccdaaaaaaaabccccccccccbaaaaaaaadccccc",
"ccccccdaaaaaaacbccccccccbaaaaaaaadcccccc",
"ccccccdaaaaaacaabccccccbaaaaaaaaadcccccc",
"ccccccdaaaaacaaaabbbbbbaaaaaaaaaadcccccc",
"cccccccdaaacaaaaaaaaaaaaaaaaaaaadccccccc",
"ccccccccdacaaaaaaaaaaaaaaaaaaaadcccccccc",
"ccccccccdaaaaaaaaaaaaaaaaaaaaaadcccccccc",
"cccccccc.daaaaaaaaaaaaaaaaaaaad.cccccccc",
"ccccccc.ccddaaaaaaaaaaaaaaaaddcc.ccccccc",
"cccccc.cccccdaaaaaaaaaaaaaadccccc.cccccc",
"ccccc.cccccccdddaaaaaaaadddccccccc.ccccc",
"ccccccccccccccccddddddddcccccccccccccccc",
"cccccccccccccccccccccccccccccccccccccccc",
"cccccccccccccccccccccccccccccccccccccccc",
"cccccccccccccccccccccccccccccccccccccccc",
"cccccccccccccccccccccccccccccccccccccccc",
"cccccccccccccccccccccccccccccccccccccccc",
"ccccccccccccccccccc.cccccccccccccccccccc",
"ccccccccccccccccccc.cccccccccccccccccccc",
"ccccccccccccccccccc.cccccccccccccccccccc",
"ccccccccccccccccccc.cccccccccccccccccccc",
"ccccccccccccccccccc.cccccccccccccccccccc",
"ccccccccccccccccddddddddcccccccccccccccc",
"ccccc.cccccccdddaaaaaaaadddccccccc.ccccc",
"cccccc.cccccdaaaaaaaaaaaaaadccccc.cccccc",
"ccccccc.ccddaaaaaaaaaaaaaaaaddcc.ccccccc",
"cccccccc.daaaaaaaaaaaaaaaaaaaad.cccccccc",
"ccccccccdaaaaaaaaaaaaaaaaaaaaaadcccccccc",
"ccccccccdaaaaaaaaaaaaaaaaaaaaaadcccccccc",
"cccccccdaaaaaaaaaaaaaaaaaaaaaaaadccccccc",
"ccccccdaaaaaaaaaabbbbbbaaaaaaaaaadcccccc",
"ccccccdaaaaaaaaabeeeeeebaaaaaaaaadcccccc",
"ccccccdaaaaaaaabeeeeeeeebaaaaaaaadcccccc",
"cccccdaaaaaaaabeeeeeeeeeebaaaaaaaadccccc",
"cccccdaaaaaaabeeeeeeeeeeeebaaaaaaadccccc",
"cccccdaaaaaaabeeeeeeeeeeeebaaaaaaadccccc",
".....daccccccbeeeeeeeeeeeebaaaaaaad.....",
"cccccdaaaaaaabeeeeeeeeeeeebaaaaaaadccccc",
"cccccdaaaaaaabeeeeeeeeeeeebaaaaaaadccccc",
"cccccdaaaaaaabeeeeeeeeeeeebaaaaaaadccccc",
"cccccdaaaaaaaabeeeeeeeeeebaaaaaaaadccccc",
"ccccccdaaaaaaaabeeeeeeeebaaaaaaaadcccccc",
"ccccccdaaaaaaaaabeeeeeebaaaaaaaaadcccccc",
"ccccccdaaaaaaaaaabbbbbbaaaaaaaaaadcccccc",
"cccccccdaaaaaaaaaaaaaaaaaaaaaaaadccccccc",
"ccccccccdaaaaaaaaaaaaaaaaaaaaaadcccccccc",
"ccccccccdaaaaaaaaaaaaaaaaaaaaaadcccccccc",
"cccccccc.daaaaaaaaaaaaaaaaaaaad.cccccccc",
"ccccccc.ccddaaaaaaaaaaaaaaaaddcc.ccccccc",
"cccccc.cccccdaaaaaaaaaaaaaadccccc.cccccc",
"ccccc.cccccccdddaaaaaaaadddccccccc.ccccc",
"ccccccccccccccccddddddddcccccccccccccccc",
"cccccccccccccccccccccccccccccccccccccccc",
"cccccccccccccccccccccccccccccccccccccccc",
"cccccccccccccccccccccccccccccccccccccccc",
"cccccccccccccccccccccccccccccccccccccccc",
"cccccccccccccccccccccccccccccccccccccccc",
"ccccccccccccccccccc.cccccccccccccccccccc",
"ccccccccccccccccccc.cccccccccccccccccccc",
"ccccccccccccccccccc.cccccccccccccccccccc",
"ccccccccccccccccccc.cccccccccccccccccccc",
"ccccccccccccccccccc.cccccccccccccccccccc",
"ccccccccccccccccddddddddcccccccccccccccc",
"ccccc.cccccccdddaaaaaaaadddccccccc.ccccc",
"cccccc.cccccdaaaaaaaaaaaaaadccccc.cccccc",
"ccccccc.ccddaaaaaaaaaaaaaaaaddcc.ccccccc",
"cccccccc.daaaaaaaaaaaaaaaaaaaad.cccccccc",
"ccccccccdaaaaaaaaaaaaaaaaaaaaaadcccccccc",
"ccccccccdacaaaaaaaaaaaaaaaaaaaadcccccccc",
"cccccccdaaacaaaaaaaaaaaaaaaaaaaadccccccc",
"ccccccdaaaaacaaaabbbbbbaaaaaaaaaadcccccc",
"ccccccdaaaaaacaabeeeeeebaaaaaaaaadcccccc",
"ccccccdaaaaaaacbeeeeeeeebaaaaaaaadcccccc",
"cccccdaaaaaaaabeeeeeeeeeebaaaaaaaadccccc",
"cccccdaaaaaaabeeeeeeeeeeeebaaaaaaadccccc",
"cccccdaaaaaaabeeeeeeeeeeeebaaaaaaadccccc",
".....daaaaaaabeeeeeeeeeeeebaaaaaaad.....",
"cccccdaaaaaaabeeeeeeeeeeeebaaaaaaadccccc",
"cccccdaaaaaaabeeeeeeeeeeeebaaaaaaadccccc",
"cccccdaaaaaaabeeeeeeeeeeeebaaaaaaadccccc",
"cccccdaaaaaaaabeeeeeeeeeebaaaaaaaadccccc",
"ccccccdaaaaaaaabeeeeeeeebaaaaaaaadcccccc",
"ccccccdaaaaaaaaabeeeeeebaaaaaaaaadcccccc",
"ccccccdaaaaaaaaaabbbbbbaaaaaaaaaadcccccc",
"cccccccdaaaaaaaaaaaaaaaaaaaaaaaadccccccc",
"ccccccccdaaaaaaaaaaaaaaaaaaaaaadcccccccc",
"ccccccccdaaaaaaaaaaaaaaaaaaaaaadcccccccc",
"cccccccc.daaaaaaaaaaaaaaaaaaaad.cccccccc",
"ccccccc.ccddaaaaaaaaaaaaaaaaddcc.ccccccc",
"cccccc.cccccdaaaaaaaaaaaaaadccccc.cccccc",
"ccccc.cccccccdddaaaaaaaadddccccccc.ccccc",
"ccccccccccccccccddddddddcccccccccccccccc",
"cccccccccccccccccccccccccccccccccccccccc",
"cccccccccccccccccccccccccccccccccccccccc",
"cccccccccccccccccccccccccccccccccccccccc",
"cccccccccccccccccccccccccccccccccccccccc",
"cccccccccccccccccccccccccccccccccccccccc",
"ccccccccccccccccccc.cccccccccccccccccccc",
"ccccccccccccccccccc.cccccccccccccccccccc",
"ccccccccccccccccccc.cccccccccccccccccccc",
"ccccccccccccccccccc.cccccccccccccccccccc",
"ccccccccccccccccccc.cccccccccccccccccccc",
"ccccccccccccccccddddddddcccccccccccccccc",
"ccccc.cccccccdddaaaaaaaadddccccccc.ccccc",
"cccccc.cccccdaaaaaacaaaaaaadccccc.cccccc",
"ccccccc.ccddaaaaaaacaaaaaaaaddcc.ccccccc",
"cccccccc.daaaaaaaaacaaaaaaaaaad.cccccccc",
"ccccccccdaaaaaaaaaacaaaaaaaaaaadcccccccc",
"ccccccccdaaaaaaaaaacaaaaaaaaaaadcccccccc",
"cccccccdaaaaaaaaaaacaaaaaaaaaaaadccccccc",
"ccccccdaaaaaaaaaabbbbbbaaaaaaaaaadcccccc",
"ccccccdaaaaaaaaabeeeeeebaaaaaaaaadcccccc",
"ccccccdaaaaaaaabeeeeeeeebaaaaaaaadcccccc",
"cccccdaaaaaaaabeeeeeeeeeebaaaaaaaadccccc",
"cccccdaaaaaaabeeeeeeeeeeeebaaaaaaadccccc",
"cccccdaaaaaaabeeeeeeeeeeeebaaaaaaadccccc",
".....daaaaaaabeeeeeeeeeeeebaaaaaaad.....",
"cccccdaaaaaaabeeeeeeeeeeeebaaaaaaadccccc",
"cccccdaaaaaaabeeeeeeeeeeeebaaaaaaadccccc",
"cccccdaaaaaaabeeeeeeeeeeeebaaaaaaadccccc",
"cccccdaaaaaaaabeeeeeeeeeebaaaaaaaadccccc",
"ccccccdaaaaaaaabeeeeeeeebaaaaaaaadcccccc",
"ccccccdaaaaaaaaabeeeeeebaaaaaaaaadcccccc",
"ccccccdaaaaaaaaaabbbbbbaaaaaaaaaadcccccc",
"cccccccdaaaaaaaaaaaaaaaaaaaaaaaadccccccc",
"ccccccccdaaaaaaaaaaaaaaaaaaaaaadcccccccc",
"ccccccccdaaaaaaaaaaaaaaaaaaaaaadcccccccc",
"cccccccc.daaaaaaaaaaaaaaaaaaaad.cccccccc",
"ccccccc.ccddaaaaaaaaaaaaaaaaddcc.ccccccc",
"cccccc.cccccdaaaaaaaaaaaaaadccccc.cccccc",
"ccccc.cccccccdddaaaaaaaadddccccccc.ccccc",
"ccccccccccccccccddddddddcccccccccccccccc",
"cccccccccccccccccccccccccccccccccccccccc",
"cccccccccccccccccccccccccccccccccccccccc",
"cccccccccccccccccccccccccccccccccccccccc",
"cccccccccccccccccccccccccccccccccccccccc",
"cccccccccccccccccccccccccccccccccccccccc",
"ccccccccccccccccccc.cccccccccccccccccccc",
"ccccccccccccccccccc.cccccccccccccccccccc",
"ccccccccccccccccccc.cccccccccccccccccccc",
"ccccccccccccccccccc.cccccccccccccccccccc",
"ccccccccccccccccccc.cccccccccccccccccccc",
"ccccccccccccccccddddddddcccccccccccccccc",
"ccccc.cccccccdddaaaaaaaadddccccccc.ccccc",
"cccccc.cccccdaaaaaaaaaaaaaadccccc.cccccc",
"ccccccc.ccddaaaaaaaaaaaaaaaaddcc.ccccccc",
"cccccccc.daaaaaaaaaaaaaaaaaaaad.cccccccc",
"ccccccccdaaaaaaaaaaaaaaaaaaaaaadcccccccc",
"ccccccccdaaaaaaaaaaaaaaaaaaaacadcccccccc",
"cccccccdaaaaaaaaaaaaaaaaaaaacaaadccccccc",
"ccccccdaaaaaaaaaabbbbbbaaaacaaaaadcccccc",
"ccccccdaaaaaaaaabeeeeeebaacaaaaaadcccccc",
"ccccccdaaaaaaaabeeeeeeeebcaaaaaaadcccccc",
"cccccdaaaaaaaabeeeeeeeeeebaaaaaaaadccccc",
"cccccdaaaaaaabeeeeeeeeeeeebaaaaaaadccccc",
"cccccdaaaaaaabeeeeeeeeeeeebaaaaaaadccccc",
".....daaaaaaabeeeeeeeeeeeebaaaaaaad.....",
"cccccdaaaaaaabeeeeeeeeeeeebaaaaaaadccccc",
"cccccdaaaaaaabeeeeeeeeeeeebaaaaaaadccccc",
"cccccdaaaaaaabeeeeeeeeeeeebaaaaaaadccccc",
"cccccdaaaaaaaabeeeeeeeeeebaaaaaaaadccccc",
"ccccccdaaaaaaaabeeeeeeeebaaaaaaaadcccccc",
"ccccccdaaaaaaaaabeeeeeebaaaaaaaaadcccccc",
"ccccccdaaaaaaaaaabbbbbbaaaaaaaaaadcccccc",
"cccccccdaaaaaaaaaaaaaaaaaaaaaaaadccccccc",
"ccccccccdaaaaaaaaaaaaaaaaaaaaaadcccccccc",
"ccccccccdaaaaaaaaaaaaaaaaaaaaaadcccccccc",
"cccccccc.daaaaaaaaaaaaaaaaaaaad.cccccccc",
"ccccccc.ccddaaaaaaaaaaaaaaaaddcc.ccccccc",
"cccccc.cccccdaaaaaaaaaaaaaadccccc.cccccc",
"ccccc.cccccccdddaaaaaaaadddccccccc.ccccc",
"ccccccccccccccccddddddddcccccccccccccccc",
"cccccccccccccccccccccccccccccccccccccccc",
"cccccccccccccccccccccccccccccccccccccccc",
"cccccccccccccccccccccccccccccccccccccccc",
"cccccccccccccccccccccccccccccccccccccccc",
"cccccccccccccccccccccccccccccccccccccccc",
"ccccccccccccccccccc.cccccccccccccccccccc",
"ccccccccccccccccccc.cccccccccccccccccccc",
"ccccccccccccccccccc.cccccccccccccccccccc",
"ccccccccccccccccccc.cccccccccccccccccccc",
"ccccccccccccccccccc.cccccccccccccccccccc",
"ccccccccccccccccddddddddcccccccccccccccc",
"ccccc.cccccccdddaaaaaaaadddccccccc.ccccc",
"cccccc.cccccdaaaaaaaaaaaaaadccccc.cccccc",
"ccccccc.ccddaaaaaaaaaaaaaaaaddcc.ccccccc",
"cccccccc.daaaaaaaaaaaaaaaaaaaad.cccccccc",
"ccccccccdaaaaaaaaaaaaaaaaaaaaaadcccccccc",
"ccccccccdaaaaaaaaaaaaaaaaaaaaaadcccccccc",
"cccccccdaaaaaaaaaaaaaaaaaaaaaaaadccccccc",
"ccccccdaaaaaaaaaabbbbbbaaaaaaaaaadcccccc",
"ccccccdaaaaaaaaab######baaaaaaaaadcccccc",
"ccccccdaaaaaaaab########baaaaaaaadcccccc",
"cccccdaaaaaaaab##########baaaaaaaadccccc",
"cccccdaaaaaaab############baaaaaaadccccc",
"cccccdaaaaaaab############baaaaaaadccccc",
".....daaaaaaab############bccccccad.....",
"cccccdaaaaaaab############baaaaaaadccccc",
"cccccdaaaaaaab############baaaaaaadccccc",
"cccccdaaaaaaab############baaaaaaadccccc",
"cccccdaaaaaaaab##########baaaaaaaadccccc",
"ccccccdaaaaaaaab########baaaaaaaadcccccc",
"ccccccdaaaaaaaaab######baaaaaaaaadcccccc",
"ccccccdaaaaaaaaaabbbbbbaaaaaaaaaadcccccc",
"cccccccdaaaaaaaaaaaaaaaaaaaaaaaadccccccc",
"ccccccccdaaaaaaaaaaaaaaaaaaaaaadcccccccc",
"ccccccccdaaaaaaaaaaaaaaaaaaaaaadcccccccc",
"cccccccc.daaaaaaaaaaaaaaaaaaaad.cccccccc",
"ccccccc.ccddaaaaaaaaaaaaaaaaddcc.ccccccc",
"cccccc.cccccdaaaaaaaaaaaaaadccccc.cccccc",
"ccccc.cccccccdddaaaaaaaadddccccccc.ccccc",
"ccccccccccccccccddddddddcccccccccccccccc",
"cccccccccccccccccccccccccccccccccccccccc",
"cccccccccccccccccccccccccccccccccccccccc",
"cccccccccccccccccccccccccccccccccccccccc",
"cccccccccccccccccccccccccccccccccccccccc",
"cccccccccccccccccccccccccccccccccccccccc",
"ccccccccccccccccccc.cccccccccccccccccccc",
"ccccccccccccccccccc.cccccccccccccccccccc",
"ccccccccccccccccccc.cccccccccccccccccccc",
"ccccccccccccccccccc.cccccccccccccccccccc",
"ccccccccccccccccccc.cccccccccccccccccccc",
"ccccccccccccccccddddddddcccccccccccccccc",
"ccccc.cccccccdddaaaaaaaadddccccccc.ccccc",
"cccccc.cccccdaaaaaaaaaaaaaadccccc.cccccc",
"ccccccc.ccddaaaaaaaaaaaaaaaaddcc.ccccccc",
"cccccccc.daaaaaaaaaaaaaaaaaaaad.cccccccc",
"ccccccccdaaaaaaaaaaaaaaaaaaaaaadcccccccc",
"ccccccccdaaaaaaaaaaaaaaaaaaaaaadcccccccc",
"cccccccdaaaaaaaaaaaaaaaaaaaaaaaadccccccc",
"ccccccdaaaaaaaaaabbbbbbaaaaaaaaaadcccccc",
"ccccccdaaaaaaaaabffffffbaaaaaaaaadcccccc",
"ccccccdaaaaaaaabffffffffbaaaaaaaadcccccc",
"cccccdaaaaaaaabffffffffffbaaaaaaaadccccc",
"cccccdaaaaaaabffffffffffffbaaaaaaadccccc",
"cccccdaaaaaaabffffffffffffbaaaaaaadccccc",
".....daaaaaaabffffffffffffbaaaaaaad.....",
"cccccdaaaaaaabffffffffffffbaaaaaaadccccc",
"cccccdaaaaaaabffffffffffffbaaaaaaadccccc",
"cccccdaaaaaaabffffffffffffbaaaaaaadccccc",
"cccccdaaaaaaaabffffffffffbaaaaaaaadccccc",
"ccccccdaaaaaaaabffffffffbcaaaaaaadcccccc",
"ccccccdaaaaaaaaabffffffbaacaaaaaadcccccc",
"ccccccdaaaaaaaaaabbbbbbaaaacaaaaadcccccc",
"cccccccdaaaaaaaaaaaaaaaaaaaacaaadccccccc",
"ccccccccdaaaaaaaaaaaaaaaaaaaacadcccccccc",
"ccccccccdaaaaaaaaaaaaaaaaaaaaaadcccccccc",
"cccccccc.daaaaaaaaaaaaaaaaaaaad.cccccccc",
"ccccccc.ccddaaaaaaaaaaaaaaaaddcc.ccccccc",
"cccccc.cccccdaaaaaaaaaaaaaadccccc.cccccc",
"ccccc.cccccccdddaaaaaaaadddccccccc.ccccc",
"ccccccccccccccccddddddddcccccccccccccccc",
"cccccccccccccccccccccccccccccccccccccccc",
"cccccccccccccccccccccccccccccccccccccccc",
"cccccccccccccccccccccccccccccccccccccccc",
"cccccccccccccccccccccccccccccccccccccccc",
"cccccccccccccccccccccccccccccccccccccccc"
};
