/* XPM */
static char *bmp005[] = {
/* width height num_colors chars_per_pixel */
"    50    60        3            1",
/* colors */
". c #000000",
"# c #7e7e7e",
"a c #c0c0c0",
/* pixels */
"..................................................",
".################################################a",
".#aaaaaaaaaa#####################################a",
".#a########.#####################################a",
".#a########.#####################################a",
".#a########.#####################################a",
".#a########.#####################################a",
".#a########...................................###a",
".#a########.aaaaaaaaaaaaaaaaaaaaaaaaaaaaaaaaaa###a",
".#a########.#####################################a",
".#a########.#####################################a",
".#a########.#####################################a",
".#a.........#####################################a",
".################################################a",
".aaaaaaaaaaaaaaaaaaaaaaaaaaaaaaaaaaaaaaaaaaaaaaaaa",
"..................................................",
".################################################a",
".#############aaaaaaaaaa#########################a",
".#############a########.#########################a",
".#############a########.#########################a",
".#############a########.#########################a",
".#############a########.#########################a",
".###..........a########.......................###a",
".####aaaaaaaaaa########.aaaaaaaaaaaaaaaaaaaaaa###a",
".#############a########.#########################a",
".#############a########.#########################a",
".#############a########.#########################a",
".#############a.........#########################a",
".################################################a",
".aaaaaaaaaaaaaaaaaaaaaaaaaaaaaaaaaaaaaaaaaaaaaaaaa",
"..................................................",
".################################################a",
".#########################aaaaaaaaaa#############a",
".#########################a########.#############a",
".#########################a########.#############a",
".#########################a########.#############a",
".#########################a########.#############a",
".###......................a########...........###a",
".####aaaaaaaaaaaaaaaaaaaaaa########.aaaaaaaaaa###a",
".#########################a########.#############a",
".#########################a########.#############a",
".#########################a########.#############a",
".#########################a.........#############a",
".################################################a",
".aaaaaaaaaaaaaaaaaaaaaaaaaaaaaaaaaaaaaaaaaaaaaaaaa",
"..................................................",
".################################################a",
".#####################################aaaaaaaaaa#a",
".#####################################a########.#a",
".#####################################a########.#a",
".#####################################a########.#a",
".#####################################a########.#a",
".###..................................a########.#a",
".####aaaaaaaaaaaaaaaaaaaaaaaaaaaaaaaaaa########.#a",
".#####################################a########.#a",
".#####################################a########.#a",
".#####################################a########.#a",
".#####################################a.........#a",
".################################################a",
".aaaaaaaaaaaaaaaaaaaaaaaaaaaaaaaaaaaaaaaaaaaaaaaaa"
};
