/* XPM */
static char *bmp00129[] = {
/* width height num_colors chars_per_pixel */
"    16   160        5            1",
/* colors */
". c #ffffff",
"# c #717171",
"a c #5c5c5c",
"b c #181818",
"c c #000000",
/* pixels */
"cccccccccccccccc",
"cbbbbbbbbbbbbbb#",
"cbbbbbbbbbbbbbb#",
"cbbbbbccabbbbbb#",
"cbbbbbcbabbbbbb#",
"cbbbbbcbabbbbbb#",
"cbbbbbcbabbbbbb#",
"cbbbbbcbabbbbbb#",
"cbbbbbcbabbbbbb#",
"cbbbbbcbabbbbbb#",
"cbbbbbcbabbbbbb#",
"cbbbbbcbabbbbbb#",
"cbbbbbcbabbbbbb#",
"cbbbbbcbabbbbbb#",
"cbbbbbcbabbbbbb#",
"cbbbbbcbabbbbbb#",
"cbbbbbcbabbbbbb#",
"cbbbbbcbabbbbbb#",
"cbbbbbcbabbbbbb#",
"cbbbbbcbabbbbbb#",
"cbbbbbcbabbbbbb#",
"cbbbbbcbabbbbbb#",
"cbbbbbcbabbbbbb#",
"cbbbbbcbabbbbbb#",
"cbbbbbcbabbbbbb#",
"cbbbbbcbabbbbbb#",
"cbbbbbcbabbbbbb#",
"cbbbbbcbabbbbbb#",
"cbbbbbcbabbbbbb#",
"cbbbbbcbabbbbbb#",
"cbbbbbcbabbbbbb#",
"cbbbbbcbabbbbbb#",
"cbbbbbcbabbbbbb#",
"cbbbbbcbabbbbbb#",
"cbbbbbcbabbbbbb#",
"cbbbbbcbabbbbbb#",
"cbbbbbcbabbbbbb#",
"cbbbbbcbabbbbbb#",
"cbbbbbcbabbbbbb#",
"cbbbbbcbabbbbbb#",
"cbbbbbcbabbbbbb#",
"cbbbbbcbabbbbbb#",
"cbbbbbcbabbbbbb#",
"cbbbbbcbabbbbbb#",
"cbbbbbcbabbbbbb#",
"cbbbbbcbabbbbbb#",
"cbbbbbcbabbbbbb#",
"cbbbbbcbabbbbbb#",
"cbbbbbcbabbbbbb#",
"cbbbbbcbabbbbbb#",
"cbbbbbcbabbbbbb#",
"cbbbbbcbabbbbbb#",
"cbbbbbcbabbbbbb#",
"cbbbbbcbabbbbbb#",
"cbbbbbcbabbbbbb#",
"cbbbbbcbabbbbbb#",
"cbbbbbcbabbbbbb#",
"cbbbbbcbabbbbbb#",
"cbbbbbcbabbbbbb#",
"cbbbbbcbabbbbbb#",
"cbbbbbcbabbbbbb#",
"cbbbbbcbabbbbbb#",
"cbbbbbcbabbbbbb#",
"cbbbbbcbabbbbbb#",
"cbbbbbcbabbbbbb#",
"cbbbbbcbabbbbbb#",
"cbbbbbcbabbbbbb#",
"cbbbbbcbabbbbbb#",
"cbbbbbcbabbbbbb#",
"cbbbbbcbabbbbbb#",
"cbbbbbcbabbbbbb#",
"cbbbbbcbabbbbbb#",
"cbbbbbcbabbbbbb#",
"cbbbbbcbabbbbbb#",
"cbbbbbcbabbbbbb#",
"cbbbbbcbabbbbbb#",
"cbbbbbcbabbbbbb#",
"cbbbbbcbabbbbbb#",
"cbbbbbcbabbbbbb#",
"cbbbbbcbabbbbbb#",
"cbbbbbcbabbbbbb#",
"cbbbbbcbabbbbbb#",
"cbbbbbcbabbbbbb#",
"cbbbbbcbabbbbbb#",
"cbbbbbcbabbbbbb#",
"cbbbbbcbabbbbbb#",
"cbbbbbcbabbbbbb#",
"cbbbbbcbabbbbbb#",
"cbbbbbcbabbbbbb#",
"cbbbbbcbabbbbbb#",
"cbbbbbcbabbbbbb#",
"cbbbbbcbabbbbbb#",
"cbbbbbcbabbbbbb#",
"cbbbbbcbabbbbbb#",
"cbbbbbcbabbbbbb#",
"cbbbbbcbabbbbbb#",
"cbbbbbcbabbbbbb#",
"cbbbbbcbabbbbbb#",
"cbbbbbcbabbbbbb#",
"cbbbbbcbabbbbbb#",
"cbbbbbcbabbbbbb#",
"cbbbbbcbabbbbbb#",
"cbbbbbcbabbbbbb#",
"cbbbbbcbabbbbbb#",
"cbbbbbcbabbbbbb#",
"cbbbbbcbabbbbbb#",
"cbbbbbcbabbbbbb#",
"cbbbbbcbabbbbbb#",
"cbbbbbcbabbbbbb#",
"cbbbbbcbabbbbbb#",
"cbbbbbcbabbbbbb#",
"cbbbbbcbabbbbbb#",
"cbbbbbcbabbbbbb#",
"cbbbbbcbabbbbbb#",
"cbbbbbcbabbbbbb#",
"cbbbbbcbabbbbbb#",
"cbbbbbcbabbbbbb#",
"cbbbbbcbabbbbbb#",
"cbbbbbcbabbbbbb#",
"cbbbbbcbabbbbbb#",
"cbbbbbcbabbbbbb#",
"cbbbbbcbabbbbbb#",
"cbbbbbcbabbbbbb#",
"cbbbbbcbabbbbbb#",
"cbbbbbcbabbbbbb#",
"cbbbbbcbabbbbbb#",
"cbbbbbcbabbbbbb#",
"cbbbbbcbabbbbbb#",
"cbbbbbcbabbbbbb#",
"cbbbbbcbabbbbbb#",
"cbbbbbcbabbbbbb#",
"cbbbbbcbabbbbbb#",
"cbbbbbcbabbbbbb#",
"cbbbbbcbabbbbbb#",
"cbbbbbcbabbbbbb#",
"cbbbbbcbabbbbbb#",
"cbbbbbcbabbbbbb#",
"cbbbbbcbabbbbbb#",
"cbbbbbcbabbbbbb#",
"cbbbbbcbabbbbbb#",
"cbbbbbcbabbbbbb#",
"cbbbbbcbabbbbbb#",
"cbbbbbcbabbbbbb#",
"cbbbbbcbabbbbbb#",
"cbbbbbcbabbbbbb#",
"cbbbbbcbabbbbbb#",
"cbbbbbcbabbbbbb#",
"cbbbbbcbabbbbbb#",
"cbbbbbcbabbbbbb#",
"cbbbbbcbabbbbbb#",
"cbbbbbcbabbbbbb#",
"cbbbbbcbabbbbbb#",
"cbbbbbcbabbbbbb#",
"cbbbbbcbabbbbbb#",
"cbbbbbcbabbbbbb#",
"cbbbbbcbabbbbbb#",
"cbbbbbbbbbbbbbb#",
"cbbbbbbbbbbbbbb#",
"cbbbbbbbbbbbbbb#",
"#..............."
};
