/* XPM */ 
static const char *left_xpm[] = {
"15 15 25 1",
" 	c None",
"!	c #4C484C",
"#	c #5A575A",
"$	c #807F80",
"%	c #4E4A4E",
"&	c #6E6D6E",
"'	c #8C8C8C",
"(	c #9F9F9F",
")	c #A0A0A0",
"*	c #989898",
"+	c #9B9B9B",
",	c #818081",
"-	c #757475",
".	c #909090",
"0	c #706F70",
"1	c #7E7D7E",
"2	c #7F7E7F",
"3	c #595559",
"4	c #504C50",
"5	c #727072",
"6	c #919191",
"7	c #8B8B8B",
"8	c #6B6A6B",
"9	c #5D5C5D",
":	c #838283",
"!!!!!!!!!!!!!!!",
"!!!!!!!!!!!!!!!",
"!!!!!!!!!!!!!!!",
"!!!!!!!!!!!!!!!",
"!!!!!!!!!#$!!!!",
"!!!!!!%&'()!!!!",
"!!!!#$*))+,!!!!",
"!!!-()).0%!!!!!",
"!!!1))+23!!!!!!",
"!!!456))(78!!!!",
"!!!!!!9:+))!!!!",
"!!!!!!!!456!!!!",
"!!!!!!!!!!!!!!!",
"!!!!!!!!!!!!!!!",
"!!!!!!!!!!!!!!!"};

