/* XPM */
static const char * alternation_click_xpm[] = {
"115 33 362 2",
"  	c #1E1E1E",
". 	c #1F1F1F",
"+ 	c #383838",
"@ 	c #545454",
"# 	c #606060",
"$ 	c #6F6F6F",
"% 	c #6E6E6E",
"& 	c #6D6D6D",
"* 	c #6B6B6B",
"= 	c #676767",
"- 	c #626262",
"; 	c #5B5B5B",
"> 	c #525252",
", 	c #737373",
"' 	c #707070",
") 	c #696969",
"! 	c #656565",
"~ 	c #2B2B2B",
"{ 	c #686868",
"] 	c #666666",
"^ 	c #646464",
"/ 	c #5F5F5F",
"( 	c #595959",
"_ 	c #4B4B4B",
": 	c #434343",
"< 	c #5D5D5D",
"[ 	c #575757",
"} 	c #515151",
"| 	c #484848",
"1 	c #4A4A4A",
"2 	c #5A5A5A",
"3 	c #585858",
"4 	c #565656",
"5 	c #4F4F4F",
"6 	c #454545",
"7 	c #393939",
"8 	c #616161",
"9 	c #535353",
"0 	c #505050",
"a 	c #4C4C4C",
"b 	c #474747",
"c 	c #202020",
"d 	c #636363",
"e 	c #6A6A6A",
"f 	c #4E4E4E",
"g 	c #464646",
"h 	c #444444",
"i 	c #424242",
"j 	c #4D4D4D",
"k 	c #4B4B4C",
"l 	c #4B4B4D",
"m 	c #4B4B4E",
"n 	c #4B4B4F",
"o 	c #4B4B51",
"p 	c #4B4B52",
"q 	c #4B4B53",
"r 	c #4B4B54",
"s 	c #4B4B56",
"t 	c #4B4B57",
"u 	c #5E5E5E",
"v 	c #4B4B58",
"w 	c #4B4B5C",
"x 	c #4B4B5D",
"y 	c #4B4B5F",
"z 	c #4B4B63",
"A 	c #4B4B64",
"B 	c #4B4B62",
"C 	c #4B4B5B",
"D 	c #4B4B55",
"E 	c #4B4B5E",
"F 	c #4B4B66",
"G 	c #4B4B6D",
"H 	c #4B4B6E",
"I 	c #4B4B6C",
"J 	c #4B4B76",
"K 	c #4B4B7A",
"L 	c #4B4B77",
"M 	c #4B4B75",
"N 	c #4B4B70",
"O 	c #4B4B65",
"P 	c #4B4B5A",
"Q 	c #4B4B61",
"R 	c #4B4B68",
"S 	c #4B4B67",
"T 	c #4B4B60",
"U 	c #4B4B6B",
"V 	c #4B4B79",
"W 	c #4B4B83",
"X 	c #4B4B85",
"Y 	c #4B4B81",
"Z 	c #4B4B7F",
"` 	c #4B4B82",
" .	c #88889A",
"..	c #7D7D9A",
"+.	c #4B4B92",
"@.	c #4B4B91",
"#.	c #4B4B89",
"$.	c #4B4B69",
"%.	c #4B4B6F",
"&.	c #4B4B7D",
"*.	c #4B4B7C",
"=.	c #4B4B7B",
"-.	c #56567D",
";.	c #9E9E9E",
">.	c #6C6C82",
",.	c #4B4B6A",
"'.	c #4B4B90",
").	c #98989E",
"!.	c #5C5C9E",
"~.	c #4B4B99",
"{.	c #4B4B93",
"].	c #4B4B96",
"^.	c #8888A0",
"/.	c #7D7DA4",
"(.	c #4B4BAC",
"_.	c #7272A6",
":.	c #4B4B73",
"<.	c #4B4B78",
"[.	c #4B4B71",
"}.	c #4B4B72",
"|.	c #4B4B86",
"1.	c #4B4B8D",
"2.	c #88889B",
"3.	c #72729A",
"4.	c #4B4B88",
"5.	c #4B4B74",
"6.	c #4B4B8B",
"7.	c #6161A2",
"8.	c #98989F",
"9.	c #9393A1",
"0.	c #7272AA",
"a.	c #4B4BAD",
"b.	c #4B4BA4",
"c.	c #4B4BA7",
"d.	c #8888A5",
"e.	c #7D7DAC",
"f.	c #4B4BC2",
"g.	c #7272B2",
"h.	c #8888A7",
"i.	c #4B4BAA",
"j.	c #4B4B9D",
"k.	c #4B4B97",
"l.	c #4B4B94",
"m.	c #4B4B95",
"n.	c #4B4B8E",
"o.	c #4B4B8F",
"p.	c #4B4B8C",
"q.	c #4B4B87",
"r.	c #4B4B7E",
"s.	c #4B4B9E",
"t.	c #4B4BA0",
"u.	c #4B4BA6",
"v.	c #8888A2",
"w.	c #4B4BA1",
"x.	c #4B4B9B",
"y.	c #4B4B8A",
"z.	c #4B4B50",
"A.	c #7777AA",
"B.	c #7D7DAF",
"C.	c #7777B3",
"D.	c #9393A4",
"E.	c #4B4BB5",
"F.	c #4B4BB6",
"G.	c #8888A9",
"H.	c #7D7DB2",
"I.	c #6161C5",
"J.	c #5656AE",
"K.	c #5151B1",
"L.	c #8888A4",
"M.	c #5151B0",
"N.	c #4B4BAB",
"O.	c #8282A2",
"P.	c #8D8DA0",
"Q.	c #7D7DA2",
"R.	c #7272A4",
"S.	c #8888A3",
"T.	c #6C6CA1",
"U.	c #7272B0",
"V.	c #4B4BBD",
"W.	c #4B4BB1",
"X.	c #6C6CA8",
"Y.	c #8D8DA2",
"Z.	c #6C6C9A",
"`.	c #9898A1",
" +	c #6767C3",
".+	c #5C5CCC",
"++	c #5C5CC7",
"@+	c #8888AC",
"#+	c #7D7DB5",
"$+	c #4B4BD7",
"%+	c #7272BE",
"&+	c #8888AD",
"*+	c #4B4BC5",
"=+	c #8888A8",
"-+	c #8D8DA6",
";+	c #5151C4",
">+	c #5151C6",
",+	c #8D8DA7",
"'+	c #7D7DAE",
")+	c #4B4BBE",
"!+	c #8D8DA3",
"~+	c #6161AB",
"{+	c #4B4BAE",
"]+	c #4B4BAF",
"^+	c #7272A9",
"/+	c #9898A0",
"(+	c #7272AE",
"_+	c #4B4BB8",
":+	c #7272AC",
"<+	c #7272B4",
"[+	c #5151CB",
"}+	c #4B4BCC",
"|+	c #8888AB",
"1+	c #4B4BB9",
"2+	c #4B4BBB",
"3+	c #6C6CB3",
"4+	c #4B4BC1",
"5+	c #9393A3",
"6+	c #4B4BB7",
"7+	c #5656B3",
"8+	c #9393A2",
"9+	c #7272AD",
"0+	c #7272AF",
"a+	c #7272A8",
"b+	c #6767AA",
"c+	c #4B4BDB",
"d+	c #4B4BDD",
"e+	c #9393A7",
"f+	c #7777BA",
"g+	c #4B4BCB",
"h+	c #8888AE",
"i+	c #7D7DB6",
"j+	c #4B4BD8",
"k+	c #4B4BDC",
"l+	c #6C6CC5",
"m+	c #9393A5",
"n+	c #4B4BB3",
"o+	c #4B4BB0",
"p+	c #4B4BBF",
"q+	c #5656BB",
"r+	c #4B4BDA",
"s+	c #6161CB",
"t+	c #4B4BD6",
"u+	c #7272B7",
"v+	c #4B4BC4",
"w+	c #6C6CBB",
"x+	c #5C5CC6",
"y+	c #5C5CC8",
"z+	c #4B4BC3",
"A+	c #7272B6",
"B+	c #5656B5",
"C+	c #565692",
"D+	c #7D7DA6",
"E+	c #7D7DB0",
"F+	c #4B4BD9",
"G+	c #7777BC",
"H+	c #9393A6",
"I+	c #4B4BCF",
"J+	c #4B4BD0",
"K+	c #7272BA",
"L+	c #4B4BC8",
"M+	c #4B4BC6",
"N+	c #6161C0",
"O+	c #4B4BCE",
"P+	c #4B4BBA",
"Q+	c #7272BC",
"R+	c #8D8DAB",
"S+	c #6161CF",
"T+	c #7272B5",
"U+	c #6C6CBF",
"V+	c #6161C6",
"W+	c #5656D0",
"X+	c #4B4BC7",
"Y+	c #6161C3",
"Z+	c #8888AA",
"`+	c #565694",
" @	c #6161BF",
".@	c #7D7DB1",
"+@	c #7272B3",
"@@	c #5151C1",
"#@	c #5151CF",
"$@	c #4B4BD3",
"%@	c #4B4BD5",
"&@	c #8888A6",
"*@	c #7272A7",
"=@	c #4B4BA3",
"-@	c #72729F",
";@	c #5656B9",
">@	c #6C6CB6",
",@	c #9898A2",
"'@	c #7272BF",
")@	c #4B4BDF",
"!@	c #6161C7",
"~@	c #7272B1",
"{@	c #4B4BC0",
"]@	c #5656A9",
"^@	c #56568F",
"/@	c #676792",
"(@	c #7777AC",
"_@	c #7D7DAA",
":@	c #5151AE",
"<@	c #6C6CB5",
"[@	c #8888A1",
"}@	c #72729D",
"|@	c #727295",
"1@	c #88889C",
"2@	c #4B4B98",
"3@	c #5656A4",
"4@	c #4B4BC9",
"5@	c #7272B8",
"6@	c #6161BA",
"7@	c #8282A6",
"8@	c #6C6CB1",
"9@	c #7272AB",
"0@	c #56569A",
"a@	c #565687",
"b@	c #828294",
"c@	c #7D7D97",
"d@	c #4B4B9A",
"e@	c #4B4B9F",
"f@	c #7777A2",
"g@	c #5151A1",
"h@	c #8D8D9F",
"i@	c #5656A3",
"j@	c #5151A9",
"k@	c #8D8DA1",
"l@	c #7272A3",
"m@	c #4B4B9C",
"n@	c #727293",
"o@	c #72728D",
"p@	c #888898",
"q@	c #5656A0",
"r@	c #8282A8",
"s@	c #6161AA",
"t@	c #5C5CA2",
"u@	c #93939F",
"v@	c #93939E",
"w@	c #4B4BA2",
"x@	c #6C6CA3",
"y@	c #5656AB",
"z@	c #727299",
"A@	c #56568A",
"B@	c #56567C",
"C@	c #555555",
"D@	c #4B4B59",
"E@	c #404040",
"F@	c #303030",
"G@	c #494949",
"H@	c #2D2D2D",
"I@	c #414141",
"J@	c #353535",
"K@	c #3F3F3F",
"L@	c #313131",
"M@	c #3E3E3E",
"N@	c #242424",
"O@	c #3A3A3A",
"P@	c #3D3D3D",
"Q@	c #292929",
"R@	c #333333",
"S@	c #373737",
"T@	c #3C3C3C",
"U@	c #3B3B3B",
"          . + @ # $ % % & & & & & & & & & & & & & & & & & & & & & & & & & & & & & & & & & & & & & & & & & & & & & & & & & & & & & & & & & & & & & & & & & & & & & & & & & & & & & & & & & & & & & & & & & & & & & * = - ; > , ' & ) ! ",
"        ~ # ' % * ) { = ] ] ] ] ] ] ] ] ] ] ] ] ] ] ] ] ] ] ] ] ] ] ] ] ] ] ] ] ] ] ] ] ] ] ] ] ] ] ] ] ] ] ] ] ] ] ] ] ] ] ] ] ] ] ] ] ] ] ] ] ] ] ] ] ] ] ] ] ] ] ] ] ] ] ] ] ] ] ] ] ] ] ] ] ] ] ] ] ] ] ] ] ] ^ / ( > _ , ' & ) ! ",
"      : % $ * { ^ - # / / / / / / / / / / / / / / / / / / / / / / / / / / / / / / / / / / / / / / / / / / / / / / / / / / / / / / / / / / / / / / / / / / / / / / / / / / / / / / / / / / / / / / / / / / / / / / < [ } _ | , ' & ) ! ",
"    1 ' % ) ^ / < 2 3 3 [ [ [ 4 4 4 4 4 4 4 4 4 4 4 4 4 4 4 4 4 4 4 4 4 4 4 4 4 4 4 4 4 4 4 4 4 4 4 4 4 4 4 4 4 4 4 4 4 4 4 4 4 4 4 4 4 4 4 4 4 4 4 4 4 4 4 4 4 4 4 4 4 4 4 4 4 4 4 4 4 4 4 4 4 4 4 4 4 4 4 4 4 4 @ 5 _ | 6 , ' & ) ! ",
"  7 % * = 8 ; 4 9 } 0 0 5 5 5 5 5 5 5 5 5 5 5 5 5 5 5 5 5 5 5 5 5 5 5 5 5 5 5 5 5 5 5 5 5 5 5 5 5 5 5 5 5 5 5 5 5 5 5 5 5 5 5 5 5 5 5 5 5 5 5 5 5 5 5 5 5 5 5 5 5 5 5 5 5 5 5 5 5 5 5 5 5 5 5 5 5 5 5 5 5 5 5 5 5 a 1 b 6 : , ' & ) ! ",
"c d e ] / 3 9 0 f a a _ _ _ _ _ _ _ _ _ _ _ _ _ _ _ _ _ _ _ _ _ _ _ _ _ _ _ _ _ _ _ _ _ _ _ _ _ _ _ _ _ _ _ _ _ _ _ _ _ _ _ _ _ _ _ _ _ _ _ _ _ _ _ _ _ _ _ _ _ _ _ _ _ _ _ _ _ _ _ _ _ _ _ _ _ _ _ _ _ _ _ _ _ _ 1 | g h i , ' & ) ! ",
"+ ) ! / 3 > f a a _ _ _ _ _ _ _ _ _ _ _ _ _ _ _ _ _ _ _ _ _ _ _ _ _ _ _ _ _ _ _ _ _ _ _ _ _ _ _ _ _ _ _ _ _ _ _ _ _ _ _ _ _ _ _ _ _ _ _ _ _ _ _ _ _ _ _ _ _ _ _ _ _ _ _ _ _ _ _ _ _ _ _ _ _ _ _ _ _ _ _ _ _ _ _ _ 1 | g h i , ' & ) ! ",
"j ! 8 ; @ 5 a a _ _ _ _ _ _ _ _ _ _ _ _ _ _ _ _ _ _ _ _ _ _ _ _ k l m n n m l k _ _ _ _ _ _ _ _ _ _ _ _ _ _ _ _ _ _ _ _ _ _ _ _ _ _ _ _ _ _ _ k k m n n n m l k _ _ _ _ _ _ _ _ _ _ _ _ _ _ _ _ _ _ _ _ _ _ _ _ _ 1 | g h i , ' & ) ! ",
"( 8 < [ } j a _ _ _ _ _ _ _ _ _ _ _ _ _ _ _ _ _ _ _ k m n o o o p q r s t s q o n l k _ _ _ _ _ _ _ _ _ _ _ _ _ _ _ _ _ _ _ _ _ _ _ _ k l m n n o o q q p o n l _ _ _ _ _ _ _ _ _ _ _ _ _ _ _ _ _ _ _ _ _ _ _ _ _ 1 | g h i , ' & ) ! ",
"u / 2 @ 5 a _ _ _ _ _ _ _ _ _ _ _ _ _ _ _ _ _ _ _ l o r v w w w x x y z A B y C r o n k _ _ _ _ _ _ _ _ _ _ _ _ _ _ _ _ _ _ _ _ _ _ k n o q D s t v v v s q o m _ _ _ _ _ _ _ _ _ _ _ _ _ _ _ _ _ _ _ _ _ _ _ _ _ 1 | g h i , ' & ) ! ",
"# < 3 9 f a _ _ _ _ _ _ _ _ _ _ _ _ _ _ _ _ _ _ _ n s E F G H I I I H J K L M N O E P s r r q q q q q q r s s s s s D r q q q r D s t P x Q O R R S F A T x P v r q q p p q q r D q o n l k _ _ _ _ _ _ _ _ _ _ _ 1 | g h i , ' & ) ! ",
"/ ; [ > f _ _ _ _ _ _ _ _ _ _ _ _ _ _ _ _ _ _ _ k q x U V W X W Y Z `  ...+.@.#.K N $.O z B B B Q T B B z A O F S S A z T x x T B B S U %.M K &.*.=.-.;.>.I ,.R z B Q y y Q A A A B x s p n k _ _ _ _ _ _ _ _ _ _ 1 | g h i , ' & ) ! ",
"u ; 4 > f _ _ _ _ _ _ _ _ _ _ _ _ _ _ _ _ _ _ _ n v R *.'.).;.!.~.{.].^./.(._.^.+.X &.L M M M J M :.M M J L <.V *.=.<.J [.U U H N }.V Y |.1.2.3.+.1.4.X Z *.*.=.M M M }.N 5.<.<.L 5.I Q v p m _ _ _ _ _ _ _ _ _ _ 1 | g h i , ' & ) ! ",
"< 2 4 > j _ _ _ _ _ _ _ _ _ _ _ _ _ _ _ _ _ _ k o E [.6.7.8.9.0.a.b.c.d.e.f.g.h.i.j.k.l.{.l.m.].+.n.o.1.p.1.n.'.l.l.'.1.q.Z r.W 4.6.l.s.t.u.v._.c.w.x.~.l.@.l.{.1.6.1.y.4.p.+.@.o.6.Z H B v z._ _ _ _ _ _ _ _ _ _ 1 | g h i , ' & ) ! ",
"< 2 4 > j _ _ _ _ _ _ _ _ _ _ _ _ _ _ _ _ _ _ l s F *.x.A.B.C.D.f.E.F.G.H.I.;.;.;.;.J.K.L.;.;.d.M.N.v.O.P.;.Q.R.9.S.;.;.T.k.k.;.;.;.;.U.V.U.;.;.;.9.W.;.X.(.J.Y.;.;.O.c.b.R.9.S.;.;.Z.Z G E q _ _ _ _ _ _ _ _ _ _ 1 | g h i , ' & ) ! ",
"< 2 4 > j _ _ _ _ _ _ _ _ _ _ _ _ _ _ _ _ _ _ n C H |.c.`. +.+;.++f.f.@+#+$+%+&+*+V.V.=+-+;+>+,+'+)+h.!+~+{+]+^+/+(+_+:+8.c.u.W.F._+<+;.[+}+|+<+V.1+2+;.3+4+5+=+6+7+8+9+6+0+`.0+F.a+).#.M A s k _ _ _ _ _ _ _ _ _ 1 | g h i , ' & ) ! ",
"< 2 4 > j _ _ _ _ _ _ _ _ _ _ _ _ _ _ _ _ _ k p Q M o.b+`.c+d+e+f+}+g+h+i+$+%+h+g+*+>+;..+j+k+l+m+g+G.0+n+]+o+^+h.p+V.q+;.7+_+*+g+}+r+;.s+t+@+u+4+)+v+;.w+x+;.y+v+z+A+D.v+<+|+z+2+B+;.C+*.$.v k _ _ _ _ _ _ _ _ _ 1 | g h i , ' & ) ! ",
"< 2 4 > j _ _ _ _ _ _ _ _ _ _ _ _ _ _ _ _ _ k D O K {.D+E+t+F+G+H+I+}+h+#+J+K+&+L+M+N+;.;.;.;.;.H+O+G.9+]+i.i._.d.P+P+q+;.q+*+Q+R+;.;.;.S+t+|+T+p+)+M+;.U+V+;.W+L+X+Y+;.X+<+Z+p+_+7+;.`+r.U P k _ _ _ _ _ _ _ _ _ 1 | g h i , ' & ) ! ",
"< 2 4 > j _ _ _ _ _ _ _ _ _ _ _ _ _ _ _ _ _ l s S *.l.8.;.;.;.;.;. @X+@+.@v++@G.)+V.@@;.#@$@%@$+O+f.&@*@=@s.s.-@v.a.]+B+;.;@>@,@'@$+)@;.!@g+G.~@6+6+{@;.w+x+;.y+v+z+A+D.p+0+h.n+(.]@;.^@=.,.P k _ _ _ _ _ _ _ _ _ 1 | g h i , ' & ) ! ",
"< 2 4 > j _ _ _ _ _ _ _ _ _ _ _ _ _ _ _ _ _ m v S <./@).(.n+F.2+5+(@_+h._@n+^+/+:@{+n+&@U.p+f.<@_@]+[@}@@.6.6.|@1@2@x.3@;.J.9+`.[+4@5@;.6@P+7@S.i.i.W.;.8@)+5+=+6+7+8+9@a.R.[@s.~.0@;.a@M S v k _ _ _ _ _ _ _ _ _ 1 | g h i , ' & ) ! ",
"< ( 4 } j _ _ _ _ _ _ _ _ _ _ _ _ _ _ _ _ _ m t z N b@c@l.~.d@e@f@8.=@[@Q.t.g@h@;.;.i@j@k@;.;.8.l@m@1@n@Y *.*.o@p@|.4.`+;.q@j@!+;.;.r@;.s@u.t@u@;.v@w@;.x@c.y@k@;.;.O.w@2@z@2.6.q.A@;.B@U Q s k _ _ _ _ _ _ _ _ _ 1 | g h i , ' & ) ! ",
"< 3 C@} j _ _ _ _ _ _ _ _ _ _ _ _ _ _ _ _ _ l q w A %.L K &.Z Y q.4.|.6.#.X |.#.q.q.4.p.n.n.o.o.#.Y *.M H I I G }.:.5.=.W |.n.~.m@~.~.k.o.#.4.4.|.|.q.6.#.4.n.'.p.6.p.|.Z =.K M :.:.}.R Q P p k _ _ _ _ _ _ _ _ _ 1 | g h i , ' & ) ! ",
"; 3 @ } j _ _ _ _ _ _ _ _ _ _ _ _ _ _ _ _ _ k o s C Q A A S S $.H N %.[.[.%.N }.[.N N }.:.:.:.:.N U $.A T y y y B B A R G %.5.K *.K K V :.[.N :.}.[.[.:.N N 5.L M M 5.%.,.S S A z z B x v q n _ _ _ _ _ _ _ _ _ _ 1 | g h i , ' & ) ! ",
"4 4 9 0 j _ _ _ _ _ _ _ _ _ _ _ _ _ _ _ _ _ k m o q D D r r r s P w x E E x E T T T T Q B z z z Q x C v s D D D t t t D@w x T A F O A A Q y y T Q Q y y E E T B B B Q x C D@v t t t t q o n l _ _ _ _ _ _ _ _ _ _ 1 | g h i , ' & ) ! ",
"j @ > 5 a _ _ _ _ _ _ _ _ _ _ _ _ _ _ _ _ _ _ k l m n n m m m n z.o o o o o p q q q q r D D D D q p o n n n n n n n n n o o q r s s D r q p p q q q q q p o p q q q q o z.n n n n n n m l k k _ _ _ _ _ _ _ _ _ _ 1 | g h i , ' & ) ! ",
"E@} 0 f a _ _ _ _ _ _ _ _ _ _ _ _ _ _ _ _ _ _ _ _ _ _ _ _ _ _ _ _ _ _ _ _ _ _ _ _ _ _ _ _ _ _ _ _ _ _ _ _ _ _ _ _ _ _ _ _ _ _ _ _ _ _ _ _ _ _ _ _ _ _ _ _ _ _ _ _ _ _ _ _ _ _ _ _ _ _ _ _ _ _ _ _ _ _ _ _ _ _ _ _ 1 | g h i , ' & ) ! ",
"F@f a _ _ 1 _ _ _ _ _ _ _ _ _ _ _ _ _ _ _ _ _ _ _ _ _ _ _ _ _ _ _ _ _ _ _ _ _ _ _ _ _ _ _ _ _ _ _ _ _ _ _ _ _ _ _ _ _ _ _ _ _ _ _ _ _ _ _ _ _ _ _ _ _ _ _ _ _ _ _ _ _ _ _ _ _ _ _ _ _ _ _ _ _ _ _ _ _ _ _ _ _ _ _ 1 | g h i , ' & ) ! ",
". 6 1 G@G@G@1 1 _ _ _ _ _ _ _ _ _ _ _ _ _ _ _ _ _ _ _ _ _ _ _ _ _ _ _ _ _ _ _ _ _ _ _ _ _ _ _ _ _ _ _ _ _ _ _ _ _ _ _ _ _ _ _ _ _ _ _ _ _ _ _ _ _ _ _ _ _ _ _ _ _ _ _ _ _ _ _ _ _ _ _ _ _ _ _ _ _ _ _ _ _ _ _ _ _ 1 | g h i , ' & ) ! ",
"  H@| b b b b | G@G@G@G@G@G@G@G@G@G@G@G@G@G@G@G@G@G@G@G@G@G@G@G@G@G@G@G@G@G@G@G@G@G@G@G@G@G@G@G@G@G@G@G@G@G@G@G@G@G@G@G@G@G@G@G@G@G@G@G@G@G@G@G@G@G@G@G@G@G@G@G@G@G@G@G@G@G@G@G@G@G@G@G@G@G@G@G@G@G@G@G@G@G@G@G@G@| g 6 : I@, ' & ) ! ",
"    J@g 6 6 6 6 6 g g g g g g g g g g g g g g g g g g g g g g g g g g g g g g g g g g g g g g g g g g g g g g g g g g g g g g g g g g g g g g g g g g g g g g g g g g g g g g g g g g g g g g g g g g g g g g g g 6 : i E@K@, ' & ) ! ",
"      L@i : i i i i i i i i i i i i i i i i i i i i i i i i i i i i i i i i i i i i i i i i i i i i i i i i i i i i i i i i i i i i i i i i i i i i i i i i i i i i i i i i i i i i i i i i i i i i i i i i i i i i E@K@M@M@, ' & ) ! ",
"        N@O@E@E@K@K@K@K@K@K@K@K@K@K@K@K@K@K@K@K@K@K@K@K@K@K@K@K@K@K@K@K@K@K@K@K@K@K@K@K@K@K@K@K@K@K@K@K@K@K@K@K@K@K@K@K@K@K@K@K@K@K@K@K@K@K@K@K@K@K@K@K@K@K@K@K@K@K@K@K@K@K@K@K@K@K@K@K@K@K@K@K@K@K@K@K@K@K@K@K@K@M@P@P@P@P@, ' & ) ! ",
"            Q@R@S@P@T@T@U@U@U@U@U@U@U@U@U@U@U@U@U@U@U@U@U@U@U@U@U@U@U@U@U@U@U@U@U@U@U@U@U@U@U@U@U@U@U@U@U@U@U@U@U@U@U@U@U@U@U@U@U@U@U@U@U@U@U@U@U@U@U@U@U@U@U@U@U@U@U@U@U@U@U@U@U@U@U@U@U@U@U@U@U@U@U@U@U@U@U@U@U@U@U@U@U@P@, ' & ) ! "};
