/* XPM */
static const char * dynamics_click_xpm[] = {
"115 33 332 2",
"  	c #1E1E1E",
". 	c #1F1F1F",
"+ 	c #383838",
"@ 	c #545454",
"# 	c #606060",
"$ 	c #6F6F6F",
"% 	c #6E6E6E",
"& 	c #6D6D6D",
"* 	c #6B6B6B",
"= 	c #676767",
"- 	c #626262",
"; 	c #5B5B5B",
"> 	c #525252",
", 	c #737373",
"' 	c #707070",
") 	c #696969",
"! 	c #656565",
"~ 	c #2B2B2B",
"{ 	c #686868",
"] 	c #666666",
"^ 	c #646464",
"/ 	c #5F5F5F",
"( 	c #595959",
"_ 	c #4B4B4B",
": 	c #434343",
"< 	c #5D5D5D",
"[ 	c #575757",
"} 	c #515151",
"| 	c #484848",
"1 	c #4A4A4A",
"2 	c #5A5A5A",
"3 	c #585858",
"4 	c #565656",
"5 	c #4F4F4F",
"6 	c #454545",
"7 	c #393939",
"8 	c #616161",
"9 	c #535353",
"0 	c #505050",
"a 	c #4C4C4C",
"b 	c #474747",
"c 	c #202020",
"d 	c #636363",
"e 	c #6A6A6A",
"f 	c #4E4E4E",
"g 	c #464646",
"h 	c #444444",
"i 	c #424242",
"j 	c #4D4D4D",
"k 	c #4B4B4C",
"l 	c #4B4B4D",
"m 	c #4B4B4E",
"n 	c #4B4B4F",
"o 	c #4B4B51",
"p 	c #4B4B53",
"q 	c #4B4B56",
"r 	c #4B4B54",
"s 	c #4B4B52",
"t 	c #4B4B50",
"u 	c #5E5E5E",
"v 	c #4B4B5A",
"w 	c #4B4B60",
"x 	c #4B4B64",
"y 	c #4B4B67",
"z 	c #4B4B66",
"A 	c #4B4B5E",
"B 	c #4B4B58",
"C 	c #4B4B57",
"D 	c #4B4B55",
"E 	c #4B4B5C",
"F 	c #4B4B71",
"G 	c #4B4B77",
"H 	c #4B4B7A",
"I 	c #4B4B70",
"J 	c #4B4B68",
"K 	c #4B4B5F",
"L 	c #4B4B59",
"M 	c #4B4B5B",
"N 	c #4B4B5D",
"O 	c #4B4B61",
"P 	c #4B4B75",
"Q 	c #4B4B86",
"R 	c #4B4B8E",
"S 	c #4B4B92",
"T 	c #4B4B8D",
"U 	c #4B4B85",
"V 	c #4B4B7C",
"W 	c #4B4B72",
"X 	c #4B4B69",
"Y 	c #4B4B62",
"Z 	c #4B4B63",
"` 	c #4B4B65",
" .	c #4B4B6A",
"..	c #4B4B6B",
"+.	c #6C6C81",
"@.	c #9E9E9E",
"#.	c #565673",
"$.	c #4B4B73",
"%.	c #4B4B87",
"&.	c #93939F",
"*.	c #72729E",
"=.	c #4B4B95",
"-.	c #4B4B89",
";.	c #4B4B7D",
">.	c #4B4B6D",
",.	c #4B4B6C",
"'.	c #4B4B6E",
").	c #4B4B79",
"!.	c #4B4B76",
"~.	c #4B4B6F",
"{.	c #4B4B7B",
"].	c #4B4B7F",
"^.	c #4B4B81",
"/.	c #4B4B80",
"(.	c #4B4B74",
"_.	c #4B4B90",
":.	c #7272A8",
"<.	c #4B4BB4",
"[.	c #4B4BB5",
"}.	c #7272A9",
"|.	c #8282A2",
"1.	c #4B4BA1",
"2.	c #4B4B8F",
"3.	c #4B4B83",
"4.	c #4B4B88",
"5.	c #4B4B94",
"6.	c #4B4B91",
"7.	c #4B4B8A",
"8.	c #4B4B8B",
"9.	c #4B4B98",
"0.	c #4B4B9B",
"a.	c #4B4B97",
"b.	c #4B4B93",
"c.	c #4B4B96",
"d.	c #4B4B8C",
"e.	c #7272AA",
"f.	c #4B4BB6",
"g.	c #6767AC",
"h.	c #6161B0",
"i.	c #6767A9",
"j.	c #98989F",
"k.	c #5151A3",
"l.	c #4B4B99",
"m.	c #7272A0",
"n.	c #93939E",
"o.	c #4B4BA3",
"p.	c #8888A2",
"q.	c #8888A3",
"r.	c #8D8DA1",
"s.	c #98989E",
"t.	c #5C5C9C",
"u.	c #4B4BAA",
"v.	c #4B4BA6",
"w.	c #8D8DA2",
"x.	c #9393A2",
"y.	c #7272AD",
"z.	c #6161AB",
"A.	c #4B4BA8",
"B.	c #6161A9",
"C.	c #5656AA",
"D.	c #6161AA",
"E.	c #8D8DA0",
"F.	c #8282A0",
"G.	c #6C6CA7",
"H.	c #777798",
"I.	c #7272AB",
"J.	c #9898A0",
"K.	c #7777AF",
"L.	c #4B4BBF",
"M.	c #9393A3",
"N.	c #7272AF",
"O.	c #4B4BB0",
"P.	c #4B4BB3",
"Q.	c #8888A6",
"R.	c #8D8DA5",
"S.	c #6161B2",
"T.	c #8282A6",
"U.	c #8282A3",
"V.	c #4B4BA0",
"W.	c #4B4BAC",
"X.	c #7272B1",
"Y.	c #5151BD",
"Z.	c #4B4BBB",
"`.	c #8888A7",
" +	c #5C5CB8",
".+	c #4B4BC1",
"++	c #8888A9",
"@+	c #9898A1",
"#+	c #6C6CB2",
"$+	c #4B4BBD",
"%+	c #7777B0",
"&+	c #6161B9",
"*+	c #5656BE",
"=+	c #5656BB",
"-+	c #7D7DA7",
";+	c #5C5CA8",
">+	c #5151AC",
",+	c #6767B4",
"'+	c #6C6CA9",
")+	c #88889E",
"!+	c #4B4B82",
"~+	c #4B4B9E",
"{+	c #7272AC",
"]+	c #4B4BB7",
"^+	c #4B4BB8",
"/+	c #7D7DAF",
"(+	c #4B4BC7",
"_+	c #7272B7",
":+	c #9393A4",
"<+	c #4B4BC2",
"[+	c #6767B8",
"}+	c #5151BF",
"|+	c #8888A8",
"1+	c #7272B2",
"2+	c #6C6CB1",
"3+	c #4B4BAF",
"4+	c #4B4BB2",
"5+	c #4B4BC0",
"6+	c #4B4BCA",
"7+	c #4B4BD7",
"8+	c #6161C5",
"9+	c #4B4BC9",
"0+	c #8888AA",
"a+	c #7272B5",
"b+	c #4B4BC3",
"c+	c #4B4BC4",
"d+	c #6767BD",
"e+	c #5656CD",
"f+	c #7272B8",
"g+	c #5151BE",
"h+	c #5151B4",
"i+	c #4B4BBE",
"j+	c #4B4BC5",
"k+	c #5151CB",
"l+	c #6C6CBB",
"m+	c #8888AB",
"n+	c #7D7DB2",
"o+	c #4B4BBA",
"p+	c #7272B0",
"q+	c #4B4BB9",
"r+	c #7272B9",
"s+	c #8D8DAA",
"t+	c #6161CB",
"u+	c #4B4BCE",
"v+	c #6161C0",
"w+	c #4B4BCB",
"x+	c #6161C9",
"y+	c #5656D3",
"z+	c #7272BB",
"A+	c #9393A6",
"B+	c #7272B6",
"C+	c #9898A2",
"D+	c #6161A8",
"E+	c #4B4BBC",
"F+	c #8D8DA8",
"G+	c #5C5CC1",
"H+	c #4B4BAD",
"I+	c #6C6CAE",
"J+	c #6C6CB3",
"K+	c #7272BC",
"L+	c #4B4BD6",
"M+	c #4B4BE0",
"N+	c #6161C6",
"O+	c #4B4BB1",
"P+	c #8888A5",
"Q+	c #6161B8",
"R+	c #6161C4",
"S+	c #5656CE",
"T+	c #515190",
"U+	c #7272A7",
"V+	c #7D7DA1",
"W+	c #4B4BA5",
"X+	c #4B4BAB",
"Y+	c #88889D",
"Z+	c #72729D",
"`+	c #4B4B9C",
" @	c #6C6CA3",
".@	c #9393A0",
"+@	c #5151C6",
"@@	c #4B4BC8",
"#@	c #7272A4",
"$@	c #88889F",
"%@	c #6161B6",
"&@	c #5656BD",
"*@	c #5656BA",
"=@	c #7D7DA8",
"-@	c #5656A8",
";@	c #6161A7",
">@	c #5C5CB7",
",@	c #6767AB",
"'@	c #515189",
")@	c #72729B",
"!@	c #4B4BA4",
"~@	c #888898",
"{@	c #727292",
"]@	c #6C6C97",
"^@	c #93939D",
"/@	c #5151A6",
"(@	c #8D8DA3",
"_@	c #8282A8",
":@	c #727299",
"<@	c #727293",
"[@	c #888899",
"}@	c #616199",
"|@	c #6161A3",
"1@	c #5656A7",
"2@	c #82829F",
"3@	c #5656A1",
"4@	c #8888A1",
"5@	c #616197",
"6@	c #555555",
"7@	c #4B4B9A",
"8@	c #4B4B84",
"9@	c #4B4B7E",
"0@	c #93939A",
"a@	c #404040",
"b@	c #303030",
"c@	c #494949",
"d@	c #2D2D2D",
"e@	c #414141",
"f@	c #353535",
"g@	c #3F3F3F",
"h@	c #313131",
"i@	c #3E3E3E",
"j@	c #242424",
"k@	c #3A3A3A",
"l@	c #3D3D3D",
"m@	c #292929",
"n@	c #333333",
"o@	c #373737",
"p@	c #3C3C3C",
"q@	c #3B3B3B",
"          . + @ # $ % % & & & & & & & & & & & & & & & & & & & & & & & & & & & & & & & & & & & & & & & & & & & & & & & & & & & & & & & & & & & & & & & & & & & & & & & & & & & & & & & & & & & & & & & & & & & & & * = - ; > , ' & ) ! ",
"        ~ # ' % * ) { = ] ] ] ] ] ] ] ] ] ] ] ] ] ] ] ] ] ] ] ] ] ] ] ] ] ] ] ] ] ] ] ] ] ] ] ] ] ] ] ] ] ] ] ] ] ] ] ] ] ] ] ] ] ] ] ] ] ] ] ] ] ] ] ] ] ] ] ] ] ] ] ] ] ] ] ] ] ] ] ] ] ] ] ] ] ] ] ] ] ] ] ] ] ^ / ( > _ , ' & ) ! ",
"      : % $ * { ^ - # / / / / / / / / / / / / / / / / / / / / / / / / / / / / / / / / / / / / / / / / / / / / / / / / / / / / / / / / / / / / / / / / / / / / / / / / / / / / / / / / / / / / / / / / / / / / / / < [ } _ | , ' & ) ! ",
"    1 ' % ) ^ / < 2 3 3 [ [ [ 4 4 4 4 4 4 4 4 4 4 4 4 4 4 4 4 4 4 4 4 4 4 4 4 4 4 4 4 4 4 4 4 4 4 4 4 4 4 4 4 4 4 4 4 4 4 4 4 4 4 4 4 4 4 4 4 4 4 4 4 4 4 4 4 4 4 4 4 4 4 4 4 4 4 4 4 4 4 4 4 4 4 4 4 4 4 4 4 4 4 @ 5 _ | 6 , ' & ) ! ",
"  7 % * = 8 ; 4 9 } 0 0 5 5 5 5 5 5 5 5 5 5 5 5 5 5 5 5 5 5 5 5 5 5 5 5 5 5 5 5 5 5 5 5 5 5 5 5 5 5 5 5 5 5 5 5 5 5 5 5 5 5 5 5 5 5 5 5 5 5 5 5 5 5 5 5 5 5 5 5 5 5 5 5 5 5 5 5 5 5 5 5 5 5 5 5 5 5 5 5 5 5 5 5 5 a 1 b 6 : , ' & ) ! ",
"c d e ] / 3 9 0 f a a _ _ _ _ _ _ _ _ _ _ _ _ _ _ _ _ _ _ _ _ _ _ _ _ _ _ _ _ _ _ _ _ _ _ _ _ _ _ _ _ _ _ _ _ _ _ _ _ _ _ _ _ _ _ _ _ _ _ _ _ _ _ _ _ _ _ _ _ _ _ _ _ _ _ _ _ _ _ _ _ _ _ _ _ _ _ _ _ _ _ _ _ _ _ 1 | g h i , ' & ) ! ",
"+ ) ! / 3 > f a a _ _ _ _ _ _ _ _ _ _ _ _ _ _ _ _ _ _ _ _ _ _ _ _ _ _ _ _ _ _ _ _ _ _ _ _ _ _ _ _ _ _ _ _ _ _ _ _ _ _ _ _ _ _ _ _ _ _ _ _ _ _ _ _ _ _ _ _ _ _ _ _ _ _ _ _ _ _ _ _ _ _ _ _ _ _ _ _ _ _ _ _ _ _ _ _ 1 | g h i , ' & ) ! ",
"j ! 8 ; @ 5 a a _ _ _ _ _ _ _ _ _ _ _ _ _ _ _ _ _ _ _ _ _ _ _ _ _ _ _ _ _ _ _ _ _ _ _ _ _ _ _ _ _ _ _ _ _ _ _ _ _ _ _ _ _ _ _ _ _ _ _ _ k l m n n n m k k _ _ _ _ _ _ _ _ _ _ _ _ _ _ _ _ _ _ _ _ _ _ _ _ _ _ _ _ 1 | g h i , ' & ) ! ",
"( 8 < [ } j a _ _ _ _ _ _ _ _ _ _ _ _ _ _ _ _ _ _ _ k n o p q q q r s n l k _ _ _ _ _ _ _ _ _ _ _ _ _ _ _ _ _ _ _ _ _ _ _ _ _ _ _ _ _ _ l n o s p s t n k _ _ _ _ _ _ _ _ _ _ _ _ _ _ _ _ _ _ _ _ _ _ _ _ _ _ _ _ 1 | g h i , ' & ) ! ",
"u / 2 @ 5 a _ _ _ _ _ _ _ _ _ _ _ _ _ _ _ _ _ _ _ k t r v w x y z x A B p t l _ _ _ _ _ _ _ _ _ _ _ _ _ _ _ _ _ _ _ _ _ _ _ _ _ _ _ _ _ m o p q C D p t l _ _ _ _ _ _ _ _ _ _ _ _ _ _ _ _ _ _ _ _ _ _ _ _ _ _ _ _ 1 | g h i , ' & ) ! ",
"# < 3 9 f a _ _ _ _ _ _ _ _ _ _ _ _ _ _ _ _ _ _ _ n r E z F G H H G I J K L r o n n t o s r D D r p p s p r D D r p s s p r q q C q q q B M N K O N M L q r r r r r D r p s t m k _ _ _ _ _ _ _ _ _ _ _ _ _ _ _ _ 1 | g h i , ' & ) ! ",
"/ ; [ > f _ _ _ _ _ _ _ _ _ _ _ _ _ _ _ _ _ _ _ _ o M y P Q R S S T U V W X Y M B B M N K Z ` ` Z Y A E N K O Y Y O K K Y x y X  .X y y X  ...+.@.#.X X z Z x x Z x x Z w N C s n k _ _ _ _ _ _ _ _ _ _ _ _ _ _ _ 1 | g h i , ' & ) ! ",
"u ; 4 > f _ _ _ _ _ _ _ _ _ _ _ _ _ _ _ _ _ _ _ _ p Y $.%.@.@.@.@.&.*.=.-.;.P >.y J ,.'.F G H ).!.$.'.X X ,.~.I $.$.I F P ).{.].^./.;.H V V H ;./.{.).H G P !.G P G G (.I X A q o k _ _ _ _ _ _ _ _ _ _ _ _ _ _ _ 1 | g h i , ' & ) ! ",
"< 2 4 > j _ _ _ _ _ _ _ _ _ _ _ _ _ _ _ _ _ _ _ _ q y H _.@.:.<.[.}.@.|.1.=.2.Q V ;.3.Q 4._.5.6.T 7.^.H H ^.Q -.R 2.8.-.2.S 5.9.0.0.a.b.=.b.2.S c._.2.S T 4.8.d.d.S b.R %.{. .N r m _ _ _ _ _ _ _ _ _ _ _ _ _ _ _ 1 | g h i , ' & ) ! ",
"< 2 4 > j _ _ _ _ _ _ _ _ _ _ _ _ _ _ _ _ _ _ _ _ B ../.a.@.e.f.f.<.g.@.h.i.j.k.a.l.m.n.o.p.q.r.@.s.t.S S @.@.@.@.:.u.v.p.w.j.@.x.y.w.@.@.z.A.B.@.C.u.D.E.@.@.F.o.G.j.@.@.H.).y L n _ _ _ _ _ _ _ _ _ _ _ _ _ _ _ 1 | g h i , ' & ) ! ",
"< 2 4 > j _ _ _ _ _ _ _ _ _ _ _ _ _ _ _ _ _ _ _ _ L '.3.0.@.I.<.[.<.f.J.K.L.M.N.O.P.x.I.P.Q.R.S.[.T.U.V.1.W.P.f.X.@.Y.Z.`.R. +.+++@+#+$+%+R.Z.&+@.*+=+J.-+u.;+r.>+@.,+Z.'+)+!+,.N o _ _ _ _ _ _ _ _ _ _ _ _ _ _ _ 1 | g h i , ' & ) ! ",
"< 2 4 > j _ _ _ _ _ _ _ _ _ _ _ _ _ _ _ _ _ _ _ _ L ~.Q ~+@.{+]+^+]+^+M./+(+_+:+<+[+@+}+Z.|+1+$+Z.2+x.3+4+5+(+6+7+@.8+9+0+a+<+b+a+0+c+<+d+@.(+8+@.e+f+@.g+4+P.P.h+@.f+9+i+u.7.F K s _ _ _ _ _ _ _ _ _ _ _ _ _ _ _ 1 | g h i , ' & ) ! ",
"< 2 4 > j _ _ _ _ _ _ _ _ _ _ _ _ _ _ _ _ _ _ _ _ L '.3.0.@.e.P.<.P.4+J.K.j+k+@.l+m+n+c+o+`.p+q+q+#+x.^+L.r+s+@.@.@.t+u+m+a+$+$+X.|+i+L.v+@.w+x+@.y+z+A+c+<.<.[.^+B+C+@.@+}.6.!.Y p _ _ _ _ _ _ _ _ _ _ _ _ _ _ _ 1 | g h i , ' & ) ! ",
"< 2 4 > j _ _ _ _ _ _ _ _ _ _ _ _ _ _ _ _ _ _ _ _ B ../.a.@.e.[.[.4+D+@.h.E+(+n+F+@.G+$+O.q.:.H+3+I+x.^+J+@+K+L+M+@.N+(+|+N.O+3+}.P+O+P.Q+@.c+R+@.S+f+@.}+4+O+O.O+b+w+9+p+@.T+P Y p _ _ _ _ _ _ _ _ _ _ _ _ _ _ _ 1 | g h i , ' & ) ! ",
"< 2 4 > j _ _ _ _ _ _ _ _ _ _ _ _ _ _ _ _ _ _ _ _ q y H _.@.:.P.P.U+s.V+W+X+f.Q+@.|+q+X+~+Y+Z+l.`+ @.@W.I.@++@@@r+@.&+[.q.#@0.l.Z+$@0.~+D+@.4+%@@.&@*@@.=@u.-@E.;@P+>@o+,@s.'@I K p _ _ _ _ _ _ _ _ _ _ _ _ _ _ _ 1 | g h i , ' & ) ! ",
"< ( 4 } j _ _ _ _ _ _ _ _ _ _ _ _ _ _ _ _ _ _ _ _ p Y $.%.@.@.@.@.&.)@S S a.V.>+j.G.!@a.7.~@{@%.7.]@^@`+/@(@@.@._@@.B.V.Y+:@-.%.<@[@4.8.}@@.0.|@@.1@v.D+&.@.@.2@3@4@@.@.&.5@;. .M o _ _ _ _ _ _ _ _ _ _ _ _ _ _ _ 1 | g h i , ' & ) ! ",
"< 3 6@} j _ _ _ _ _ _ _ _ _ _ _ _ _ _ _ _ _ _ _ _ o M y P Q R S 6.d.^.V ;.3.T )@s.a.T ^.!.W $.$.P V ^.3.8.a.l.9.7@l.T 8@^.V P $.P !.(.!.9@3.^.Q d.4.4.T d.-.8.8.-.R _.R 4.].'.O q n _ _ _ _ _ _ _ _ _ _ _ _ _ _ _ 1 | g h i , ' & ) ! ",
"; 3 @ } j _ _ _ _ _ _ _ _ _ _ _ _ _ _ _ _ _ _ _ _ n r E z F G H H !.'.X ,.W H 0@{@/.G '.` Y Z Z x X ..'.$.).H H H H $.>...J x Z x ` x x X ,...'.F I I P P P G G P G G (.I  .K B o l _ _ _ _ _ _ _ _ _ _ _ _ _ _ _ 1 | g h i , ' & ) ! ",
"4 4 9 0 j _ _ _ _ _ _ _ _ _ _ _ _ _ _ _ _ _ _ _ _ k t r v w x y z Z A M N Y y '.I ..` K B q C C B L M E K Z ` x ` x w N M v B C B B C B v E M E N N N O Y x ` z ` z ` Z K M q o m k _ _ _ _ _ _ _ _ _ _ _ _ _ _ _ 1 | g h i , ' & ) ! ",
"j @ > 5 a _ _ _ _ _ _ _ _ _ _ _ _ _ _ _ _ _ _ _ _ _ k n o p q q q r s o r C M K w N B r o n n n n t t o s r D D D r p o o t n n n n n n t o t o o o o p p r D q q q D r p o n l k _ _ _ _ _ _ _ _ _ _ _ _ _ _ _ _ 1 | g h i , ' & ) ! ",
"a@} 0 f a _ _ _ _ _ _ _ _ _ _ _ _ _ _ _ _ _ _ _ _ _ _ _ _ _ _ _ _ _ _ k n o p q q p o n k _ _ _ _ _ _ _ _ _ _ _ _ _ _ _ _ _ _ _ _ _ _ _ _ _ _ _ _ _ _ _ _ _ _ _ _ _ _ _ _ _ _ _ _ _ _ _ _ _ _ _ _ _ _ _ _ _ _ _ _ 1 | g h i , ' & ) ! ",
"b@f a _ _ 1 _ _ _ _ _ _ _ _ _ _ _ _ _ _ _ _ _ _ _ _ _ _ _ _ _ _ _ _ _ _ k l m n n m l k _ _ _ _ _ _ _ _ _ _ _ _ _ _ _ _ _ _ _ _ _ _ _ _ _ _ _ _ _ _ _ _ _ _ _ _ _ _ _ _ _ _ _ _ _ _ _ _ _ _ _ _ _ _ _ _ _ _ _ _ _ 1 | g h i , ' & ) ! ",
". 6 1 c@c@c@1 1 _ _ _ _ _ _ _ _ _ _ _ _ _ _ _ _ _ _ _ _ _ _ _ _ _ _ _ _ _ _ _ _ _ _ _ _ _ _ _ _ _ _ _ _ _ _ _ _ _ _ _ _ _ _ _ _ _ _ _ _ _ _ _ _ _ _ _ _ _ _ _ _ _ _ _ _ _ _ _ _ _ _ _ _ _ _ _ _ _ _ _ _ _ _ _ _ _ 1 | g h i , ' & ) ! ",
"  d@| b b b b | c@c@c@c@c@c@c@c@c@c@c@c@c@c@c@c@c@c@c@c@c@c@c@c@c@c@c@c@c@c@c@c@c@c@c@c@c@c@c@c@c@c@c@c@c@c@c@c@c@c@c@c@c@c@c@c@c@c@c@c@c@c@c@c@c@c@c@c@c@c@c@c@c@c@c@c@c@c@c@c@c@c@c@c@c@c@c@c@c@c@c@c@c@c@c@c@c@| g 6 : e@, ' & ) ! ",
"    f@g 6 6 6 6 6 g g g g g g g g g g g g g g g g g g g g g g g g g g g g g g g g g g g g g g g g g g g g g g g g g g g g g g g g g g g g g g g g g g g g g g g g g g g g g g g g g g g g g g g g g g g g g g g g 6 : i a@g@, ' & ) ! ",
"      h@i : i i i i i i i i i i i i i i i i i i i i i i i i i i i i i i i i i i i i i i i i i i i i i i i i i i i i i i i i i i i i i i i i i i i i i i i i i i i i i i i i i i i i i i i i i i i i i i i i i i i i a@g@i@i@, ' & ) ! ",
"        j@k@a@a@g@g@g@g@g@g@g@g@g@g@g@g@g@g@g@g@g@g@g@g@g@g@g@g@g@g@g@g@g@g@g@g@g@g@g@g@g@g@g@g@g@g@g@g@g@g@g@g@g@g@g@g@g@g@g@g@g@g@g@g@g@g@g@g@g@g@g@g@g@g@g@g@g@g@g@g@g@g@g@g@g@g@g@g@g@g@g@g@g@g@g@g@g@g@g@g@g@i@l@l@l@l@, ' & ) ! ",
"            m@n@o@l@p@p@q@q@q@q@q@q@q@q@q@q@q@q@q@q@q@q@q@q@q@q@q@q@q@q@q@q@q@q@q@q@q@q@q@q@q@q@q@q@q@q@q@q@q@q@q@q@q@q@q@q@q@q@q@q@q@q@q@q@q@q@q@q@q@q@q@q@q@q@q@q@q@q@q@q@q@q@q@q@q@q@q@q@q@q@q@q@q@q@q@q@q@q@q@q@q@q@q@l@, ' & ) ! "};
