/* XPM */ 
static const char * inputpane_xpm[] = {
"102 22 46 1",
" 	c None",
"!	c #383838",
"#	c #EFEBDE",
"$	c #2B272B",
"%	c #2B222B",
"&	c #332733",
"'	c #3B353B",
"(	c #5A595A",
")	c #383338",
"*	c #423D42",
"+	c #504C50",
",	c #444244",
"-	c #332E33",
".	c #484448",
"0	c #4C4C4C",
"1	c #383538",
"2	c #484848",
"3	c #4E4C4E",
"4	c #505050",
"5	c #424042",
"6	c #464446",
"7	c #403D40",
"8	c #545454",
"9	c #504E50",
":	c #332B33",
";	c #595959",
"<	c #555555",
"=	c #595759",
">	c #3B383B",
"?	c #4C4A4C",
"@	c #352B35",
"A	c #555455",
"B	c #3D3B3D",
"C	c #525052",
"D	c #2E272E",
"E	c #3D383D",
"F	c #4A4A4A",
"G	c #4E4E4E",
"H	c #575557",
"I	c #484648",
"J	c #524E52",
"K	c #464246",
"L	c #444444",
"M	c #353335",
"N	c #4A484A",
"O	c #2E2B2E",
"!####################################################################################################!",
"#$$$$$$$$$$$$$$$$$$$$$$$$$$$$$$$$$$$$$$$$$$$$$$$$$$$$$$$$$$$$$$$$$$$$$$$$$$$$$$$$$$$$$$$$$$$$$$$$$$$$#",
"#$%%%%%%%%%%%%%%%%%%%%%%%%%%%%%%%%%%%%%%%%%%%%%%%%%%%%%%%%%%%%%%%%%%%%%%%%%%%%%%%%%%%%%%%%%%%%%%%%%%$#",
"#$%%%%%%%%%%%%%%%%%%%%%%%%%%%%%%%%%%%%%%%%%%%%%%%%%%%%%%%%%%%%%%%%%%%%%%%%%%%%%%%%%%%%%%%%%%%%%%%%%%$#",
"#$%%%%%%%%%%%%%%%%%%%%%%%%%%%%%%%%%%%%%%%%%%%%%%%%%%%%%%%%%%%%%%%%%%%%%%%%%%%%%%%%%%%%%%%%%%%%%%%%%%$#",
"#$%%%%%%%%%%%%%%%%%%%%%%%%%%%%%%%%%%%%%%%%%%%%%%%%%%%%%%%%%%%%%%%%%%%%%%%%%%%%%%%%%%%%%%%%%%%%%%%%%%$#",
"#$%%%%%%%%%%%%%%%%%%%%%%%%%%%%%%%%%%%%%%%%%%%%%%%%%%%%%%%%%%%%%%%%%%%%%%%%%%%%%%%%%%%%%%%%%%%%%%%%%%$#",
"#$%%%%%%%%%%%%%%%%%%%%%%%%%%%%%%%%&''&%%%%%%%%%%%%%%%%%%%%%%%%%%%%%%%%%%%%%%%%%%%%%%%%%%%%%%%%%%%%%%$#",
"#$%%%%%%%%%%%%%%%%%%%%%%%%%%%%%%%%'(()%%%%%%%%%%%%%%%%%%%%%%*+,%%%%%%%%%%%%%%%%%%%%%%%%%%%%%%%%%%%%%$#",
"#$%%%%%%%%%%%%%%%%%%%%%%%%%%%%%%%%'(()-..'001)23405%-.6%-.678(9*%%%%%%%%%%%%%%%%%%%%%%%%%%%%%%%%%%%%$#",
"#$%%%%%%%%%%%%%%%%%%%%%%%%%%%%%%%%'((:'((;((<,(=4<(,'(<%>(<9(((3%%%%%%%%%%%%%%%%%%%%%%%%%%%%%%%%%%%%$#",
"#$%%%%%%%%%%%%%%%%%%%%%%%%%%%%%%%%>((:>((17((6(?%@(AB(C%B(8%<(7%%%%%%%%%%%%%%%%%%%%%%%%%%%%%%%%%%%%%$#",
"#$%%%%%%%%%%%%%%%%%%%%%%%%%%%%%%%%7((DE(<%'((.(F%$(;5(9%5(G%H(E%%%%%%%%%%%%%%%%%%%%%%%%%%%%%%%%%%%%%$#",
"#$%%%%%%%%%%%%%%%%%%%%%%%%%%%%%%%%5((D7(9%'((,(HBI(J6(;6A(G%((I1%%%%%%%%%%%%%%%%%%%%%%%%%%%%%%%%%%%%$#",
"#$%%%%%%%%%%%%%%%%%%%%%%%%%%%%%%%%K((D,(4%'((L(8=(H1M=(;C(4%9((I%%%%%%%%%%%%%%%%%%%%%%%%%%%%%%%%%%%%$#",
"#$%%%%%%%%%%%%%%%%%%%%%%%%%%%%%%%%%%%%%%%%%%%N(LO'O%%D'D%%%%D')$%%%%%%%%%%%%%%%%%%%%%%%%%%%%%%%%%%%%$#",
"#$%%%%%%%%%%%%%%%%%%%%%%%%%%%%%%%%%%%%%%%%%%%0(,%%%%%%%%%%%%%%%%%%%%%%%%%%%%%%%%%%%%%%%%%%%%%%%%%%%%$#",
"#$%%%%%%%%%%%%%%%%%%%%%%%%%%%%%%%%%%%%%%%%%%%%%%%%%%%%%%%%%%%%%%%%%%%%%%%%%%%%%%%%%%%%%%%%%%%%%%%%%%$#",
"#$%%%%%%%%%%%%%%%%%%%%%%%%%%%%%%%%%%%%%%%%%%%%%%%%%%%%%%%%%%%%%%%%%%%%%%%%%%%%%%%%%%%%%%%%%%%%%%%%%%$#",
"#$%%%%%%%%%%%%%%%%%%%%%%%%%%%%%%%%%%%%%%%%%%%%%%%%%%%%%%%%%%%%%%%%%%%%%%%%%%%%%%%%%%%%%%%%%%%%%%%%%%$#",
"#$$$$$$$$$$$$$$$$$$$$$$$$$$$$$$$$$$$$$$$$$$$$$$$$$$$$$$$$$$$$$$$$$$$$$$$$$$$$$$$$$$$$$$$$$$$$$$$$$$$$#",
"!####################################################################################################!"};