/* XPM */
static const char * joystickTab_click_xpm[] = {
"115 33 323 2",
"  	c #1E1E1E",
". 	c #1F1F1F",
"+ 	c #383838",
"@ 	c #545454",
"# 	c #606060",
"$ 	c #6F6F6F",
"% 	c #6E6E6E",
"& 	c #6D6D6D",
"* 	c #6B6B6B",
"= 	c #676767",
"- 	c #626262",
"; 	c #5B5B5B",
"> 	c #525252",
", 	c #737373",
"' 	c #707070",
") 	c #696969",
"! 	c #656565",
"~ 	c #2B2B2B",
"{ 	c #686868",
"] 	c #666666",
"^ 	c #646464",
"/ 	c #5F5F5F",
"( 	c #595959",
"_ 	c #4B4B4B",
": 	c #434343",
"< 	c #5D5D5D",
"[ 	c #575757",
"} 	c #515151",
"| 	c #484848",
"1 	c #4A4A4A",
"2 	c #5A5A5A",
"3 	c #585858",
"4 	c #565656",
"5 	c #4F4F4F",
"6 	c #454545",
"7 	c #393939",
"8 	c #616161",
"9 	c #535353",
"0 	c #505050",
"a 	c #4C4C4C",
"b 	c #474747",
"c 	c #202020",
"d 	c #636363",
"e 	c #6A6A6A",
"f 	c #4E4E4E",
"g 	c #464646",
"h 	c #444444",
"i 	c #424242",
"j 	c #4D4D4D",
"k 	c #4B4B4C",
"l 	c #4B4B4D",
"m 	c #4B4B4E",
"n 	c #4B4B4F",
"o 	c #4B4B50",
"p 	c #4B4B51",
"q 	c #4B4B53",
"r 	c #4B4B52",
"s 	c #5E5E5E",
"t 	c #4B4B56",
"u 	c #4B4B5B",
"v 	c #4B4B5D",
"w 	c #4B4B57",
"x 	c #4B4B58",
"y 	c #4B4B55",
"z 	c #4B4B54",
"A 	c #4B4B5C",
"B 	c #4B4B65",
"C 	c #4B4B6A",
"D 	c #4B4B6D",
"E 	c #4B4B69",
"F 	c #4B4B62",
"G 	c #4B4B60",
"H 	c #4B4B64",
"I 	c #4B4B68",
"J 	c #4B4B67",
"K 	c #4B4B5F",
"L 	c #4B4B59",
"M 	c #4B4B66",
"N 	c #4B4B63",
"O 	c #4B4B5A",
"P 	c #4B4B72",
"Q 	c #4B4B7B",
"R 	c #4B4B80",
"S 	c #4B4B7C",
"T 	c #4B4B75",
"U 	c #4B4B6E",
"V 	c #4B4B5E",
"W 	c #4B4B61",
"X 	c #4B4B6F",
"Y 	c #4B4B74",
"Z 	c #4B4B7A",
"` 	c #4B4B81",
" .	c #4B4B7F",
"..	c #6C6C88",
"+.	c #9E9E9E",
"@.	c #565674",
"#.	c #4B4B78",
"$.	c #7D7D92",
"%.	c #72728C",
"&.	c #4B4B6C",
"*.	c #4B4B70",
"=.	c #888896",
"-.	c #72729A",
";.	c #4B4B8C",
">.	c #4B4B85",
",.	c #4B4B77",
"'.	c #4B4B76",
").	c #4B4B73",
"!.	c #4B4B6B",
"~.	c #4B4B84",
"{.	c #4B4B8B",
"].	c #4B4B92",
"^.	c #61619B",
"/.	c #4B4B95",
"(.	c #4B4B8F",
"_.	c #4B4B89",
":.	c #4B4B83",
"<.	c #4B4B7D",
"[.	c #4B4B87",
"}.	c #7D7D99",
"|.	c #727297",
"1.	c #4B4B86",
"2.	c #4B4B71",
"3.	c #4B4B96",
"4.	c #93939F",
"5.	c #7272A3",
"6.	c #4B4BA0",
"7.	c #4B4B9C",
"8.	c #4B4B97",
"9.	c #4B4B8E",
"0.	c #4B4B82",
"a.	c #4B4B7E",
"b.	c #4B4B93",
"c.	c #4B4BA5",
"d.	c #4B4BAB",
"e.	c #6161AC",
"f.	c #4B4BAA",
"g.	c #4B4BA3",
"h.	c #4B4B9E",
"i.	c #4B4B98",
"j.	c #4B4B90",
"k.	c #4B4B8D",
"l.	c #4B4B94",
"m.	c #4B4B99",
"n.	c #7D7DA1",
"o.	c #7272A2",
"p.	c #4B4B9B",
"q.	c #9393A1",
"r.	c #7272AC",
"s.	c #4B4BB5",
"t.	c #4B4BB6",
"u.	c #8282A5",
"v.	c #8D8DA0",
"w.	c #5656A6",
"x.	c #8D8D9E",
"y.	c #72729F",
"z.	c #51519E",
"A.	c #98989E",
"B.	c #6C6CA0",
"C.	c #5151A9",
"D.	c #8888A3",
"E.	c #8D8DA4",
"F.	c #5C5CBA",
"G.	c #8888A8",
"H.	c #7D7DA8",
"I.	c #6161AF",
"J.	c #5656AA",
"K.	c #4B4BAC",
"L.	c #6161AA",
"M.	c #8282A2",
"N.	c #4B4BAD",
"O.	c #7D7DA9",
"P.	c #7272AE",
"Q.	c #4B4BB2",
"R.	c #5151A6",
"S.	c #8D8D9D",
"T.	c #9393A2",
"U.	c #7272B4",
"V.	c #4B4BC4",
"W.	c #7D7DAF",
"X.	c #9393A3",
"Y.	c #5656B5",
"Z.	c #8888A6",
"`.	c #8888A5",
" +	c #6C6CAC",
".+	c #9898A0",
"++	c #5151B4",
"@+	c #4B4BB1",
"#+	c #6C6CAE",
"$+	c #5151B2",
"%+	c #7777AC",
"&+	c #8D8DA5",
"*+	c #4B4BBD",
"=+	c #5151C1",
"-+	c #8282AE",
";+	c #6C6CBA",
">+	c #4B4BCC",
",+	c #6161C1",
"'+	c #4B4BC3",
")+	c #6161B8",
"!+	c #5656BB",
"~+	c #5656BC",
"{+	c #7D7DA7",
"]+	c #5C5CAB",
"^+	c #8D8DA2",
"/+	c #7D7DAE",
"(+	c #7272B7",
"_+	c #4B4BC5",
":+	c #8D8DA3",
"<+	c #8888A0",
"[+	c #4B4B88",
"}+	c #4B4B8A",
"|+	c #7272B8",
"1+	c #4B4BCF",
"2+	c #9898A2",
"3+	c #7272BA",
"4+	c #4B4BC1",
"5+	c #5C5CBD",
"6+	c #5656BA",
"7+	c #9898A1",
"8+	c #6C6CB8",
"9+	c #8D8DA7",
"0+	c #7272B3",
"a+	c #4B4BBF",
"b+	c #7777B1",
"c+	c #8D8DA8",
"d+	c #5656C3",
"e+	c #4B4BD0",
"f+	c #4B4BD9",
"g+	c #4B4BD5",
"h+	c #4B4BD1",
"i+	c #6161C3",
"j+	c #4B4BC7",
"k+	c #6161BF",
"l+	c #5656C8",
"m+	c #7272B9",
"n+	c #5151BD",
"o+	c #4B4BB3",
"p+	c #4B4BBA",
"q+	c #7D7DB1",
"r+	c #7272BC",
"s+	c #8888AC",
"t+	c #4B4BAF",
"u+	c #4B4BA4",
"v+	c #4B4BCE",
"w+	c #6C6CBF",
"x+	c #4B4BC8",
"y+	c #4B4BC9",
"z+	c #7777B7",
"A+	c #9393A5",
"B+	c #4B4BC2",
"C+	c #5656C2",
"D+	c #8888AB",
"E+	c #8888AF",
"F+	c #5656D0",
"G+	c #5656CD",
"H+	c #9393A6",
"I+	c #6161BD",
"J+	c #5C5CB9",
"K+	c #5656B9",
"L+	c #5656C9",
"M+	c #4B4BB8",
"N+	c #4B4BBB",
"O+	c #7777B5",
"P+	c #6161BB",
"Q+	c #5151BE",
"R+	c #4B4BB0",
"S+	c #6C6CB9",
"T+	c #4B4B91",
"U+	c #5C5CA0",
"V+	c #6767AF",
"W+	c #7D7DAA",
"X+	c #5656B3",
"Y+	c #8888A9",
"Z+	c #6161B5",
"`+	c #7272A8",
" @	c #4B4BB4",
".@	c #7272AB",
"+@	c #6161B1",
"@@	c #4B4BA8",
"#@	c #5656A7",
"$@	c #4B4BA7",
"%@	c #7272AD",
"&@	c #56568C",
"*@	c #93939A",
"=@	c #7D7DA0",
"-@	c #4B4BA2",
";@	c #8282A1",
">@	c #56569D",
",@	c #7272AA",
"'@	c #4B4BA9",
")@	c #4B4B9F",
"!@	c #72729C",
"~@	c #8282A4",
"{@	c #6C6CA2",
"]@	c #6161A5",
"^@	c #5656A5",
"/@	c #6161A8",
"(@	c #82829E",
"_@	c #7D7D9E",
":@	c #7272A0",
"<@	c #7D7D98",
"[@	c #555555",
"}@	c #6C6C8D",
"|@	c #98989D",
"1@	c #515187",
"2@	c #404040",
"3@	c #303030",
"4@	c #494949",
"5@	c #2D2D2D",
"6@	c #414141",
"7@	c #353535",
"8@	c #3F3F3F",
"9@	c #313131",
"0@	c #3E3E3E",
"a@	c #242424",
"b@	c #3A3A3A",
"c@	c #3D3D3D",
"d@	c #292929",
"e@	c #333333",
"f@	c #373737",
"g@	c #3C3C3C",
"h@	c #3B3B3B",
"          . + @ # $ % % & & & & & & & & & & & & & & & & & & & & & & & & & & & & & & & & & & & & & & & & & & & & & & & & & & & & & & & & & & & & & & & & & & & & & & & & & & & & & & & & & & & & & & & & & & & & & * = - ; > , ' & ) ! ",
"        ~ # ' % * ) { = ] ] ] ] ] ] ] ] ] ] ] ] ] ] ] ] ] ] ] ] ] ] ] ] ] ] ] ] ] ] ] ] ] ] ] ] ] ] ] ] ] ] ] ] ] ] ] ] ] ] ] ] ] ] ] ] ] ] ] ] ] ] ] ] ] ] ] ] ] ] ] ] ] ] ] ] ] ] ] ] ] ] ] ] ] ] ] ] ] ] ] ] ] ^ / ( > _ , ' & ) ! ",
"      : % $ * { ^ - # / / / / / / / / / / / / / / / / / / / / / / / / / / / / / / / / / / / / / / / / / / / / / / / / / / / / / / / / / / / / / / / / / / / / / / / / / / / / / / / / / / / / / / / / / / / / / / < [ } _ | , ' & ) ! ",
"    1 ' % ) ^ / < 2 3 3 [ [ [ 4 4 4 4 4 4 4 4 4 4 4 4 4 4 4 4 4 4 4 4 4 4 4 4 4 4 4 4 4 4 4 4 4 4 4 4 4 4 4 4 4 4 4 4 4 4 4 4 4 4 4 4 4 4 4 4 4 4 4 4 4 4 4 4 4 4 4 4 4 4 4 4 4 4 4 4 4 4 4 4 4 4 4 4 4 4 4 4 4 4 @ 5 _ | 6 , ' & ) ! ",
"  7 % * = 8 ; 4 9 } 0 0 5 5 5 5 5 5 5 5 5 5 5 5 5 5 5 5 5 5 5 5 5 5 5 5 5 5 5 5 5 5 5 5 5 5 5 5 5 5 5 5 5 5 5 5 5 5 5 5 5 5 5 5 5 5 5 5 5 5 5 5 5 5 5 5 5 5 5 5 5 5 5 5 5 5 5 5 5 5 5 5 5 5 5 5 5 5 5 5 5 5 5 5 5 a 1 b 6 : , ' & ) ! ",
"c d e ] / 3 9 0 f a a _ _ _ _ _ _ _ _ _ _ _ _ _ _ _ _ _ _ _ _ _ _ _ _ _ _ _ _ _ _ _ _ _ _ _ _ _ _ _ _ _ _ _ _ _ _ _ _ _ _ _ _ _ _ _ _ _ _ _ _ _ _ _ _ _ _ _ _ _ _ _ _ _ _ _ _ _ _ _ _ _ _ _ _ _ _ _ _ _ _ _ _ _ _ 1 | g h i , ' & ) ! ",
"+ ) ! / 3 > f a a _ _ _ _ _ _ _ _ _ _ _ _ _ _ _ _ _ _ _ _ _ _ _ _ _ _ _ _ _ _ _ _ _ _ _ _ _ _ _ _ _ _ _ _ _ _ _ _ _ _ _ _ _ _ _ _ _ _ _ _ _ _ _ _ _ _ _ _ _ _ _ _ _ _ _ _ _ _ _ _ _ _ _ _ _ _ _ _ _ _ _ _ _ _ _ _ 1 | g h i , ' & ) ! ",
"j ! 8 ; @ 5 a a _ _ _ _ _ _ _ _ _ _ _ _ _ _ _ _ _ _ _ _ _ _ _ _ _ _ _ _ _ _ _ _ _ _ _ _ _ _ _ _ _ _ _ _ _ _ _ _ _ _ _ _ _ k l m n n n m k k _ k k l m m l k k _ _ _ _ _ _ _ _ _ _ _ _ _ _ _ _ _ _ _ _ _ _ _ _ _ _ 1 | g h i , ' & ) ! ",
"( 8 < [ } j a _ _ _ _ _ _ _ _ _ _ _ _ _ _ _ _ _ _ _ _ _ _ _ _ k m o p q q p n m k _ _ _ _ _ _ _ _ _ _ _ _ _ _ _ _ k l m n o p r q q r o n k k m o p q q p n m k _ _ _ _ _ _ _ _ _ _ _ _ _ _ _ _ _ _ _ _ _ _ _ _ _ 1 | g h i , ' & ) ! ",
"s / 2 @ 5 a _ _ _ _ _ _ _ _ _ _ _ _ _ _ _ _ _ _ _ _ _ _ _ _ k m p t u v v u t r n k _ _ _ _ _ _ _ _ _ _ _ _ _ _ k n p q t w x x x x y q o l l p z x A u x z o k _ _ _ _ _ _ _ _ _ _ _ _ _ _ _ _ _ _ _ _ _ _ _ _ _ 1 | g h i , ' & ) ! ",
"# < 3 9 f a _ _ _ _ _ _ _ _ _ _ _ _ _ _ _ _ _ _ _ _ _ _ _ _ k n t v B C D E F v x y z q r p o n n n n p p q z y x A G H E C E I J H K u L t x v F M C E N v x r m l k _ _ _ _ _ _ _ _ _ _ _ _ _ _ _ _ _ _ _ _ _ _ 1 | g h i , ' & ) ! ",
"/ ; [ > f _ _ _ _ _ _ _ _ _ _ _ _ _ _ _ _ _ _ _ _ _ _ _ _ _ k p O M P Q R S T U E H F F G v u O x x O A V W N H E X Y Z R `  .S ..+.@.C E M J X T #.$.%.Y &.H u q p m k _ _ _ _ _ _ _ _ _ _ _ _ _ _ _ _ _ _ _ _ _ 1 | g h i , ' & ) ! ",
"s ; 4 > f _ _ _ _ _ _ _ _ _ _ _ _ _ _ _ _ _ _ _ _ _ _ _ _ _ l r K *.=.+.+.-.;.>. .,.T '.).U !.!.J J !.U *.Y ,.,.S ~.{.].+.^./.(._.:.<.Z Z ,.#.` [.{.}.|.1.<.).H O y o k _ _ _ _ _ _ _ _ _ _ _ _ _ _ _ _ _ _ _ _ _ 1 | g h i , ' & ) ! ",
"< 2 4 > j _ _ _ _ _ _ _ _ _ _ _ _ _ _ _ _ _ _ _ _ _ _ _ _ _ k p V 2.~.3.4.5.6.7.8.9.;.9.{.:.0.0.a.S ` 1.[.9.b.].8.6.c.d.+.e.f.g.h.i.].j.].k.;.l.m.7.n.o.p.j.:.*.F L p k _ _ _ _ _ _ _ _ _ _ _ _ _ _ _ _ _ _ _ _ _ 1 | g h i , ' & ) ! ",
"< 2 4 > j _ _ _ _ _ _ _ _ _ _ _ _ _ _ _ _ _ _ _ _ _ _ _ _ _ k n v P 1.p.q.r.s.t.u.+.+.v.w.h.x.y.p.8.z.A.B.C.D.+.+.E.F.G.+.+.+.H.I.+.J.K.L.v.+.+.M.N.O.P.Q.R.S.=.!.v q l _ _ _ _ _ _ _ _ _ _ _ _ _ _ _ _ _ _ _ _ _ 1 | g h i , ' & ) ! ",
"< 2 4 > j _ _ _ _ _ _ _ _ _ _ _ _ _ _ _ _ _ _ _ _ _ _ _ _ _ k m A 2.1.6.T.U.V.W.X.Y.s.Z.`.Q. +.+++@+#+.+$+%+&+*+=+-+;+>++.,+'+*+)++.!+~+.+{+f.]+^+t./+(+_+:+<+[+*.K q k _ _ _ _ _ _ _ _ _ _ _ _ _ _ _ _ _ _ _ _ _ 1 | g h i , ' & ) ! ",
"< 2 4 > j _ _ _ _ _ _ _ _ _ _ _ _ _ _ _ _ _ _ _ _ _ _ _ _ _ l o K T }+c.X.|+1+2+3+_+4+5++.6+=+7+8+V.9+0+a+b+c+d+e+f+g+h++.i+j+V.k++.l+m++.n+@+o+t.p+q+r+s+G.t+(.T F z l _ _ _ _ _ _ _ _ _ _ _ _ _ _ _ _ _ _ _ _ _ 1 | g h i , ' & ) ! ",
"< 2 4 > j _ _ _ _ _ _ _ _ _ _ _ _ _ _ _ _ _ _ _ _ _ _ _ _ k m r F ,.}+u+X.(+v++.w+x+V.j++.)+y+z+A+,++.d+B+C+D++.+.E+F+h++.,+_+V.,++.G+r+H+V.o+o+t.p+q+2++.I+Q.].'.N z l _ _ _ _ _ _ _ _ _ _ _ _ _ _ _ _ _ _ _ _ _ 1 | g h i , ' & ) ! ",
"< 2 4 > j _ _ _ _ _ _ _ _ _ _ _ _ _ _ _ _ _ _ _ _ _ _ _ _ k o y B Z k.u+.+0+j+7+|+V.a+J++.K+V.L++.c+-+B+M+N+'+V.l+A+O+j++.P+*+*+I++.l+m++.Q+R+R+@+o+/+D+S++.]+T+'.H y m _ _ _ _ _ _ _ _ _ _ _ _ _ _ _ _ _ _ _ _ _ 1 | g h i , ' & ) ! ",
"< 2 4 > j _ _ _ _ _ _ _ _ _ _ _ _ _ _ _ _ _ _ _ _ _ _ _ _ l p x E <.k.U++.V+t.W+T.X+Q.D.D.N.t.4+Y++.Z+o+f.M.`+ @*+&+P.s..+.@R+t++@+.K+!++.{+@@#@v.$@{+%@M+`+A.&@).F t m _ _ _ _ _ _ _ _ _ _ _ _ _ _ _ _ _ _ _ _ _ 1 | g h i , ' & ) ! ",
"< ( 4 } j _ _ _ _ _ _ _ _ _ _ _ _ _ _ _ _ _ _ _ _ _ _ _ _ m q u !.*@+.+.=@-@6.c.;@+.+.x.>@p.-@K.,@q.'@)@m.!@A.+.+.~@'@g.{@+.+.=@]@+.^@$@/@4.+.+.(@m._@:@h.m.<@*@@.W t n _ _ _ _ _ _ _ _ _ _ _ _ _ _ _ _ _ _ _ _ _ 1 | g h i , ' & ) ! ",
"< 3 [@} j _ _ _ _ _ _ _ _ _ _ _ _ _ _ _ _ _ _ _ _ _ _ _ _ l p x H *.Z ` 1.>.:.[.{.{._.1.1.[.k.8.A.!@]._.0.` 1.}+9.j.;.[+}+{._.[+}+{.[+_.k.{.[+_.1.` :.~.`  .Z *.H u q m _ _ _ _ _ _ _ _ _ _ _ _ _ _ _ _ _ _ _ _ _ 1 | g h i , ' & ) ! ",
"; 3 @ } j _ _ _ _ _ _ _ _ _ _ _ _ _ _ _ _ _ _ _ _ _ _ _ _ k o y v B !.U *.U D *.).).).2.P T Z }@|@1@S T X &.X 2.).T P *.P Y ).).).).*.2.T T Y T ).U D &.C E I F A t p l _ _ _ _ _ _ _ _ _ _ _ _ _ _ _ _ _ _ _ _ _ 1 | g h i , ' & ) ! ",
"4 4 9 0 j _ _ _ _ _ _ _ _ _ _ _ _ _ _ _ _ _ _ _ _ _ _ _ _ k m p t u V K K v A v G W W G W H J D 2.X E H G K G F F W K V K W F W G K v V W F N N F V v u O L O x z p n k _ _ _ _ _ _ _ _ _ _ _ _ _ _ _ _ _ _ _ _ _ 1 | g h i , ' & ) ! ",
"j @ > 5 a _ _ _ _ _ _ _ _ _ _ _ _ _ _ _ _ _ _ _ _ _ _ _ _ _ k n o r q q r p p p r q q q y x u V W K u x y q q z z q r r r q z q q r p p q q z z q r p o n n o n n m k _ _ _ _ _ _ _ _ _ _ _ _ _ _ _ _ _ _ _ _ _ _ 1 | g h i , ' & ) ! ",
"2@} 0 f a _ _ _ _ _ _ _ _ _ _ _ _ _ _ _ _ _ _ _ _ _ _ _ _ _ _ _ _ _ _ _ _ _ _ _ _ _ _ _ m o r y t z r o l _ _ _ _ _ _ _ _ _ _ _ _ _ _ _ _ _ _ _ _ _ _ _ _ _ _ _ _ _ _ _ _ _ _ _ _ _ _ _ _ _ _ _ _ _ _ _ _ _ _ _ _ 1 | g h i , ' & ) ! ",
"3@f a _ _ 1 _ _ _ _ _ _ _ _ _ _ _ _ _ _ _ _ _ _ _ _ _ _ _ _ _ _ _ _ _ _ _ _ _ _ _ _ _ _ k l m n n m l k _ _ _ _ _ _ _ _ _ _ _ _ _ _ _ _ _ _ _ _ _ _ _ _ _ _ _ _ _ _ _ _ _ _ _ _ _ _ _ _ _ _ _ _ _ _ _ _ _ _ _ _ _ 1 | g h i , ' & ) ! ",
". 6 1 4@4@4@1 1 _ _ _ _ _ _ _ _ _ _ _ _ _ _ _ _ _ _ _ _ _ _ _ _ _ _ _ _ _ _ _ _ _ _ _ _ _ _ _ _ _ _ _ _ _ _ _ _ _ _ _ _ _ _ _ _ _ _ _ _ _ _ _ _ _ _ _ _ _ _ _ _ _ _ _ _ _ _ _ _ _ _ _ _ _ _ _ _ _ _ _ _ _ _ _ _ _ 1 | g h i , ' & ) ! ",
"  5@| b b b b | 4@4@4@4@4@4@4@4@4@4@4@4@4@4@4@4@4@4@4@4@4@4@4@4@4@4@4@4@4@4@4@4@4@4@4@4@4@4@4@4@4@4@4@4@4@4@4@4@4@4@4@4@4@4@4@4@4@4@4@4@4@4@4@4@4@4@4@4@4@4@4@4@4@4@4@4@4@4@4@4@4@4@4@4@4@4@4@4@4@4@4@4@4@4@4@4@4@| g 6 : 6@, ' & ) ! ",
"    7@g 6 6 6 6 6 g g g g g g g g g g g g g g g g g g g g g g g g g g g g g g g g g g g g g g g g g g g g g g g g g g g g g g g g g g g g g g g g g g g g g g g g g g g g g g g g g g g g g g g g g g g g g g g g 6 : i 2@8@, ' & ) ! ",
"      9@i : i i i i i i i i i i i i i i i i i i i i i i i i i i i i i i i i i i i i i i i i i i i i i i i i i i i i i i i i i i i i i i i i i i i i i i i i i i i i i i i i i i i i i i i i i i i i i i i i i i i i 2@8@0@0@, ' & ) ! ",
"        a@b@2@2@8@8@8@8@8@8@8@8@8@8@8@8@8@8@8@8@8@8@8@8@8@8@8@8@8@8@8@8@8@8@8@8@8@8@8@8@8@8@8@8@8@8@8@8@8@8@8@8@8@8@8@8@8@8@8@8@8@8@8@8@8@8@8@8@8@8@8@8@8@8@8@8@8@8@8@8@8@8@8@8@8@8@8@8@8@8@8@8@8@8@8@8@8@8@8@8@8@0@c@c@c@c@, ' & ) ! ",
"            d@e@f@c@g@g@h@h@h@h@h@h@h@h@h@h@h@h@h@h@h@h@h@h@h@h@h@h@h@h@h@h@h@h@h@h@h@h@h@h@h@h@h@h@h@h@h@h@h@h@h@h@h@h@h@h@h@h@h@h@h@h@h@h@h@h@h@h@h@h@h@h@h@h@h@h@h@h@h@h@h@h@h@h@h@h@h@h@h@h@h@h@h@h@h@h@h@h@h@h@h@h@h@c@, ' & ) ! "};
