/* XPM */
static const char * knob2_xpm[] = {
"20 20 9 1",
" 	c None",
".	c #FF00FF",
"+	c #606570",
"@	c #5D626C",
"#	c #525863",
"$	c #85888E",
"%	c #B9B9B9",
"&	c #83868C",
"*	c #5D626D",
"....................",
"....................",
"....................",
"....................",
"....................",
"....................",
"....................",
"....................",
"....................",
"+@@@@@@@@@#.........",
"$%%%%%%%%%&.........",
"*@@@@@@@@@#.........",
"....................",
"....................",
"....................",
"....................",
"....................",
"....................",
"....................",
"...................."};
