/* XPM */ 
static const char * maximize_xpm[] = {
"15 15 29 1",
" 	c None",
"!	c black",
"#	c #15002B",
"$	c #4A1599",
"%	c #4C159C",
"&	c #220042",
"'	c #737273",
"(	c #747470",
")	c #522B9A",
"*	c #150033",
"+	c #747374",
",	c #727072",
"-	c #676767",
".	c #706F70",
"0	c #6D6B6D",
"1	c #636263",
"2	c #767572",
"3	c #656365",
"4	c #636363",
"5	c #6F6E6F",
"6	c #757470",
"7	c #767573",
"8	c #75766E",
"9	c #542B9C",
":	c #220044",
";	c #522E9A",
"<	c #542E9C",
"=	c #2B1552",
">	c #000015",
"!!!!!!!!!!!!!!!",
"!!!!!!!!!!!!!!!",
"#$$$$$$$$$$$%&!",
"$'''''''''''()*",
"$''++++++++'()*",
"$',--------.()*",
"$+0!!!!!!!!12)*",
"$+0!!!!!!!!32)*",
"$+0!!!!!!!!32)*",
"$+0!!!!!!!!32)*",
"$+0!!!!!!!!32)*",
"$+0!!!!!!!!12)*",
"$',4444444456)*",
"%((77777777689*",
":;;;;;;;;;;;<=>"};