/* XPM */
static const char * MenuTracks_xpm[] = {
"70 25 17 1",
" 	c #333333",
".	c #8C8C8C",
"+	c #BCBCBC",
"@	c #A6A6A6",
"#	c #FFFFFF",
"$	c #E1E1E1",
"%	c #CFCFCF",
"&	c #C6C6C6",
"*	c #7D7D7D",
"=	c #B2B2B2",
"-	c #D8D8D8",
";	c #545454",
">	c #6A6A6A",
",	c #F0F0F0",
"'	c #9A9A9A",
")	c #F8F8F8",
"!	c #E8E8E8",
"                                                                      ",
"                                                                      ",
"                                                                      ",
"                                                                      ",
"                                                                      ",
"                                                                      ",
"         .++++++++@                         @+.                       ",
"         +########$                         $#+                       ",
"         .+++##%++@                         $#+                       ",
"             ##.    @+.&$* =$$$=    *%$-@   $#+ ;++* >&$$%.           ",
"             ##.    $#,##'%#####%  .#####&  $#+ $#$ >)#####@          ",
"             ##.    $##&%>!)> =##  ,#% @##> $#+%#!; +#!; &#-          ",
"             ##.    $#$     *@-## >##;  .;  $#)#,;  =##-=*            ",
"             ##.    $#+   @,##### .##       $####.  ;$####,'          ",
"             ##.    $#+  .##&''## .##       $#)%#!    *&$###>         ",
"             ##.    $#+  +#$  @##  ##'  ,,' $#&;,#= @-+  ;##.         ",
"             ##.    $#+  @##%&)##  &#)+-#); $#+ .#);'##%+$#);         ",
"             ##.    $#+   %##)@,#'  &###,*  $#+  -#& @)###,*          ",
"                           *.;       >..               ..*            ",
"                                                                      ",
"                                                                      ",
"                                                                      ",
"                                                                      ",
"                                                                      ",
"                                                                      "};
