/* XPM */
static const char * MenuDevices_xpm[] = {
"80 25 17 1",
" 	c #333333",
".	c #A6A6A6",
"+	c #BCBCBC",
"@	c #9A9A9A",
"#	c #8C8C8C",
"$	c #E1E1E1",
"%	c #FFFFFF",
"&	c #E8E8E8",
"*	c #7D7D7D",
"=	c #CFCFCF",
"-	c #F8F8F8",
";	c #D8D8D8",
">	c #6A6A6A",
",	c #C6C6C6",
"'	c #545454",
")	c #B2B2B2",
"!	c #F0F0F0",
"                                                                                ",
"                                                                                ",
"                                                                                ",
"                                                                                ",
"                                                                                ",
"                                                                                ",
"          .+++++@                       .+#                                     ",
"          $%%%%%%&*                     $%+                                     ",
"          $%$++=-%&                     .+#                                     ",
"          $%+   *%%@   #=$=#  .+#   .+# .+#  *=$;.    #=$=#   >,$$=#            ",
"          $%+    ;%,  .%%%%%. +%;   -%# $%+ #%%%%%,  .%%%%%. >-%%%%%.           ",
"          $%+    +%$ '-%) .%-'>%%> .%!  $%+ !%= .%%>'-%) .%-'+%&' ,%;           ",
"          $%+    +%$ .%!   &%@ ;%) ;%)  $%+>%%'  #' .%!   &%@)%%;)*             ",
"          $%+    ,%$ +%-$$$-%+ @%&'%%>  $%+#%%      +%-$$$-%+'$%%%%!@           ",
"          $%+    &%+ +%!+++++#  -%+%;   $%+#%%      +%!+++++#  *,$%%%>          ",
"          $%+  '+%%> #%-' >$,'  ,%-%.   $%+ %%@  !!@#%-' >$,'.;+  '%%#          ",
"          $%%%%%%%+   &%!+&%&   >%%-    $%+ ,%-+;%-' &%!+&%& @%%=+$%-'          ",
"          $%%%%%$@    *$%%%$'    &%,    $%+  ,%%%!*  *$%%%$'  .-%%%!*           ",
"                        >#*                   >##      >#*      ##*             ",
"                                                                                ",
"                                                                                ",
"                                                                                ",
"                                                                                ",
"                                                                                ",
"                                                                                "};
