/* XPM */
static const char * MenuHelp_xpm[] = {
"51 25 17 1",
" 	c #333333",
".	c #A6A6A6",
"+	c #BCBCBC",
"@	c #8C8C8C",
"#	c #6A6A6A",
"$	c #E1E1E1",
"%	c #FFFFFF",
"&	c #CFCFCF",
"*	c #9A9A9A",
"=	c #D8D8D8",
"-	c #E8E8E8",
";	c #545454",
">	c #F8F8F8",
",	c #B2B2B2",
"'	c #F0F0F0",
")	c #7D7D7D",
"!	c #C6C6C6",
"                                                   ",
"                                                   ",
"                                                   ",
"                                                   ",
"                                                   ",
"                                                   ",
"          .+@    ++#           .+@                 ",
"          $%+    %%@           $%+                 ",
"          $%+    %%@           $%+                 ",
"          $%+    %%@   @&$&@   $%+ .+@*==*         ",
"          $%+    %%@  .%%%%%.  $%+ $%-%%%%*        ",
"          $%%%%%%%%@ ;>%, .%>; $%+ $%>@;&%'        ",
"          $%%%%%%%%@ .%'   -%* $%+ $%&  #%%)       ",
"          $%+    %%@ +%>$$$>%+ $%+ $%+   %%@       ",
"          $%+    %%@ +%'+++++@ $%+ $%!   %%@       ",
"          $%+    %%@ @%>; #$!; $%+ $%'  *%%        ",
"          $%+    %%@  -%'+-%-  $%+ $%%$+>%&        ",
"          $%+    %%@  )$%%%$;  $%+ $%='%%$;        ",
"                        #@)        $%+ @)          ",
"                                   $%+             ",
"                                   $%+             ",
"                                                   ",
"                                                   ",
"                                                   ",
"                                                   "};
