/* XPM */
static const char * MenuFile_xpm[] = {
"43 25 16 1",
" 	c #333333",
".	c #A6A6A6",
"+	c #BCBCBC",
"@	c #8C8C8C",
"#	c #E1E1E1",
"$	c #FFFFFF",
"%	c #CFCFCF",
"&	c #545454",
"*	c #F8F8F8",
"=	c #B2B2B2",
"-	c #F0F0F0",
";	c #E8E8E8",
">	c #9A9A9A",
",	c #6A6A6A",
"'	c #C6C6C6",
")	c #7D7D7D",
"                                           ",
"                                           ",
"                                           ",
"                                           ",
"                                           ",
"                                           ",
"         .+++++++  .+@ .+@                 ",
"         #$$$$$$$  #$+ #$+                 ",
"         #$#+++++  .+@ #$+                 ",
"         #$+       .+@ #$+  @%#%@          ",
"         #$+       #$+ #$+ .$$$$$.         ",
"         #$$$$$$@  #$+ #$+&*$= .$*&        ",
"         #$$$$$$@  #$+ #$+.$-   ;$>        ",
"         #$+       #$+ #$++$*###*$+        ",
"         #$+       #$+ #$++$-+++++@        ",
"         #$+       #$+ #$+@$*& ,#'&        ",
"         #$+       #$+ #$+ ;$-+;$;         ",
"         #$+       #$+ #$+ )#$$$#&         ",
"                             ,@)           ",
"                                           ",
"                                           ",
"                                           ",
"                                           ",
"                                           ",
"                                           "};
