/* XPM */
static const char * MenuView_xpm[] = {
"56 25 17 1",
" 	c #333333",
".	c #B2B2B2",
"+	c #BCBCBC",
"@	c #8C8C8C",
"#	c #A6A6A6",
"$	c #9A9A9A",
"%	c #CFCFCF",
"&	c #FFFFFF",
"*	c #D8D8D8",
"=	c #F8F8F8",
"-	c #E1E1E1",
";	c #545454",
">	c #6A6A6A",
",	c #E8E8E8",
"'	c #C6C6C6",
")	c #7D7D7D",
"!	c #F0F0F0",
"                                                        ",
"                                                        ",
"                                                        ",
"                                                        ",
"                                                        ",
"                                                        ",
"         .+@     #+$ #+@                                ",
"         %&*     =&# -&+                                ",
"         $&&;   #&=; #+@                                ",
"          =&.   *&%  #+@  @%-%@  ++>  #+@  @+#          ",
"          %&,  ;&&@  -&+ #&&&&&# *&'  =&*  ,&.          ",
"          )&&> #&!   -&+;=&. #&=;#&, )&&& ;&&>          ",
"           !&. -&+   -&+#&!   ,&$;&&>.&!&@#&,           ",
"           '&!>&&>   -&++&=---=&+ *&.*&+&+*&.           ",
"           )&&%&-    -&++&!+++++@ #&*&!>&-=&>           ",
"            ,&&&#    -&+@&=; >-'; ;&&&% ,&&,            ",
"            .&&=;    -&+ ,&!+,&,   *&&# '&&.            ",
"            >&&%     -&+ )-&&&-;   #&&; $&&>            ",
"                           >@)                          ",
"                                                        ",
"                                                        ",
"                                                        ",
"                                                        ",
"                                                        ",
"                                                        "};
