/* XPM */ 
static const char * minimize_xpm[] = {
"15 15 16 1",
" 	c None",
"!	c black",
"#	c #270050",
"$	c #523396",
"%	c #543598",
"&	c #2E155A",
"'	c #00001C",
"(	c #5415AC",
")	c #747374",
"*	c #757570",
"+	c #592BAC",
",	c #150038",
"-	c #5215AA",
".	c #737273",
"0	c #74746F",
"1	c #572BAA",
"!!!!!!!!!!!!!!!",
"!!!!!!!!!!!!!!!",
"!!!!!!!!!!!!!!!",
"!!!!!!!!!!!!!!!",
"!!!!!!!!!!!!!!!",
"!!!!!!!!!!!!!!!",
"!!!!!!!!!!!!!!!",
"!!!!!!!!!!!!!!!",
"!!!!!!!!!!!!!!!",
"#$$$$$$$$$$$%&'",
"()))))))))))*+,",
"-...........01,",
"()))))))))))*+,",
"#$$$$$$$$$$$%&'",
"!!!!!!!!!!!!!!!"};