/* XPM */
static const char * multiZone_click_xpm[] = {
"115 33 365 2",
"  	c #1E1E1E",
". 	c #1F1F1F",
"+ 	c #383838",
"@ 	c #545454",
"# 	c #606060",
"$ 	c #6F6F6F",
"% 	c #6E6E6E",
"& 	c #6D6D6D",
"* 	c #6B6B6B",
"= 	c #676767",
"- 	c #626262",
"; 	c #5B5B5B",
"> 	c #525252",
", 	c #737373",
"' 	c #707070",
") 	c #696969",
"! 	c #656565",
"~ 	c #2B2B2B",
"{ 	c #686868",
"] 	c #666666",
"^ 	c #646464",
"/ 	c #5F5F5F",
"( 	c #595959",
"_ 	c #4B4B4B",
": 	c #434343",
"< 	c #5D5D5D",
"[ 	c #575757",
"} 	c #515151",
"| 	c #484848",
"1 	c #4A4A4A",
"2 	c #5A5A5A",
"3 	c #585858",
"4 	c #565656",
"5 	c #4F4F4F",
"6 	c #454545",
"7 	c #393939",
"8 	c #616161",
"9 	c #535353",
"0 	c #505050",
"a 	c #4C4C4C",
"b 	c #474747",
"c 	c #202020",
"d 	c #636363",
"e 	c #6A6A6A",
"f 	c #4E4E4E",
"g 	c #464646",
"h 	c #444444",
"i 	c #424242",
"j 	c #4D4D4D",
"k 	c #4B4B4C",
"l 	c #4B4B4E",
"m 	c #4B4B4F",
"n 	c #4B4B4D",
"o 	c #4B4B50",
"p 	c #4B4B51",
"q 	c #4B4B53",
"r 	c #4B4B56",
"s 	c #4B4B58",
"t 	c #4B4B55",
"u 	c #4B4B52",
"v 	c #4B4B57",
"w 	c #5E5E5E",
"x 	c #4B4B5B",
"y 	c #4B4B5D",
"z 	c #4B4B5C",
"A 	c #4B4B5A",
"B 	c #4B4B60",
"C 	c #4B4B66",
"D 	c #4B4B64",
"E 	c #4B4B62",
"F 	c #4B4B5F",
"G 	c #4B4B65",
"H 	c #4B4B67",
"I 	c #4B4B5E",
"J 	c #4B4B54",
"K 	c #4B4B63",
"L 	c #4B4B6B",
"M 	c #4B4B6E",
"N 	c #4B4B6C",
"O 	c #4B4B6D",
"P 	c #4B4B70",
"Q 	c #4B4B69",
"R 	c #4B4B72",
"S 	c #4B4B7B",
"T 	c #4B4B7A",
"U 	c #4B4B77",
"V 	c #4B4B76",
"W 	c #4B4B6A",
"X 	c #4B4B68",
"Y 	c #4B4B75",
"Z 	c #4B4B79",
"` 	c #4B4B59",
" .	c #4B4B74",
"..	c #4B4B81",
"+.	c #4B4B86",
"@.	c #4B4B88",
"#.	c #4B4B8A",
"$.	c #4B4B8C",
"%.	c #4B4B8B",
"&.	c #4B4B80",
"*.	c #61618E",
"=.	c #9E9E9E",
"-.	c #565696",
";.	c #4B4B93",
">.	c #4B4B92",
",.	c #4B4B7C",
"'.	c #6C6C87",
").	c #56566F",
"!.	c #4B4B7D",
"~.	c #4B4B8F",
"{.	c #4B4B91",
"].	c #4B4B8D",
"^.	c #4B4B83",
"/.	c #4B4B61",
"(.	c #93939E",
"_.	c #5151A7",
":.	c #4B4BAB",
"<.	c #4B4BAC",
"[.	c #5151AC",
"}.	c #98989F",
"|.	c #56569D",
"1.	c #4B4B7E",
"2.	c #61619E",
"3.	c #5656AE",
"4.	c #4B4BAF",
"5.	c #6161A2",
"6.	c #4B4B96",
"7.	c #4B4B8E",
"8.	c #4B4B6F",
"9.	c #88889D",
"0.	c #4B4B73",
"a.	c #4B4B78",
"b.	c #4B4B98",
"c.	c #9393A1",
"d.	c #7272B4",
"e.	c #4B4BCD",
"f.	c #4B4BCF",
"g.	c #7272B8",
"h.	c #5656B5",
"i.	c #4B4BA3",
"j.	c #4B4B94",
"k.	c #4B4B99",
"l.	c #6161AC",
"m.	c #5656C1",
"n.	c #4B4BC6",
"o.	c #6161B4",
"p.	c #4B4BA2",
"q.	c #4B4B97",
"r.	c #4B4BA0",
"s.	c #5656B0",
"t.	c #6C6CA4",
"u.	c #4B4B9E",
"v.	c #4B4B85",
"w.	c #4B4B90",
"x.	c #4B4B84",
"y.	c #9393A3",
"z.	c #8888AD",
"A.	c #9898A2",
"B.	c #4B4BE8",
"C.	c #4B4BEB",
"D.	c #9393A8",
"E.	c #8888B2",
"F.	c #5656C8",
"G.	c #4B4BB8",
"H.	c #616199",
"I.	c #4B4B87",
"J.	c #7D7D9B",
"K.	c #72729E",
"L.	c #4B4BA8",
"M.	c #6161B8",
"N.	c #5656CF",
"O.	c #7D7DA8",
"P.	c #6161A8",
"Q.	c #56568A",
"R.	c #4B4BA1",
"S.	c #4B4BAE",
"T.	c #8D8DA3",
"U.	c #7777A9",
"V.	c #4B4BB1",
"W.	c #6161A9",
"X.	c #93939F",
"Y.	c #7272A2",
"Z.	c #7272A3",
"`.	c #9393A0",
" +	c #8888A2",
".+	c #6C6CA6",
"++	c #4B4BA7",
"@+	c #5C5CAC",
"#+	c #8D8DA2",
"$+	c #77779F",
"%+	c #9393A4",
"&+	c #7272C2",
"*+	c #9898A3",
"=+	c #6C6CD5",
"-+	c #6161E2",
";+	c #9898A4",
">+	c #7272CD",
",+	c #5656D5",
"'+	c #4B4BC7",
")+	c #6161A7",
"!+	c #7D7DA2",
"~+	c #7272A6",
"{+	c #4B4BB3",
"]+	c #6161BF",
"^+	c #5656D4",
"/+	c #4B4BDB",
"(+	c #6161C5",
"_+	c #4B4BC2",
":+	c #4B4BBB",
"<+	c #6161AD",
"[+	c #565691",
"}+	c #7777A5",
"|+	c #4B4BB6",
"1+	c #4B4BB2",
"2+	c #5656AF",
"3+	c #7272AB",
"4+	c #6161AE",
"5+	c #7272AC",
"6+	c #9898A0",
"7+	c #7272AD",
"8+	c #7272B0",
"9+	c #4B4BBA",
"0+	c #5151BD",
"a+	c #9898A1",
"b+	c #7D7DAF",
"c+	c #4B4BC3",
"d+	c #5C5CB8",
"e+	c #6C6C9A",
"f+	c #4B4BA6",
"g+	c #6C6CC6",
"h+	c #7777C2",
"i+	c #8888B7",
"j+	c #8888B8",
"k+	c #7272CC",
"l+	c #6C6CD4",
"m+	c #5656DA",
"n+	c #4B4BD1",
"o+	c #6161B5",
"p+	c #7D7DA9",
"q+	c #4B4BBD",
"r+	c #6161C3",
"s+	c #4B4BDA",
"t+	c #6161C7",
"u+	c #4B4BC0",
"v+	c #6161B2",
"w+	c #4B4B9B",
"x+	c #7272A4",
"y+	c #5656B3",
"z+	c #4B4BB5",
"A+	c #4B4BC1",
"B+	c #4B4BBE",
"C+	c #8282AC",
"D+	c #7D7DAC",
"E+	c #4B4BBF",
"F+	c #7272B2",
"G+	c #8888A9",
"H+	c #5656C2",
"I+	c #5656C3",
"J+	c #6767C0",
"K+	c #4B4BDC",
"L+	c #4B4BD4",
"M+	c #7D7DAB",
"N+	c #7D7D9F",
"O+	c #6C6CBD",
"P+	c #5656DB",
"Q+	c #6C6CCC",
"R+	c #4B4BD0",
"S+	c #6161BB",
"T+	c #4B4BB7",
"U+	c #7D7DAD",
"V+	c #6161C1",
"W+	c #5656CE",
"X+	c #4B4BD2",
"Y+	c #4B4BC4",
"Z+	c #6161B3",
"`+	c #565699",
" @	c #4B4B82",
".@	c #4B4B71",
"+@	c #5C5C9E",
"@@	c #5C5CA9",
"#@	c #7272AA",
"$@	c #7272B6",
"%@	c #7272BE",
"&@	c #7D7DA1",
"*@	c #6C6CB0",
"=@	c #8282AF",
"-@	c #7D7DB3",
";@	c #4B4BCA",
">@	c #6C6CBE",
",@	c #6161BA",
"'@	c #6161BC",
")@	c #4B4BBC",
"!@	c #6161B0",
"~@	c #515195",
"{@	c #7272A7",
"]@	c #4B4BAD",
"^@	c #7272A8",
"/@	c #8888A6",
"(@	c #5656B7",
"_@	c #5656C0",
":@	c #6767BF",
"<@	c #8D8DAA",
"[@	c #4B4BD9",
"}@	c #4B4BCE",
"|@	c #6C6CA1",
"1@	c #4B4BA5",
"2@	c #6C6CAC",
"3@	c #7272AF",
"4@	c #9393A2",
"5@	c #6161AF",
"6@	c #5656B1",
"7@	c #56568E",
"8@	c #82829C",
"9@	c #8282A2",
"0@	c #4B4BAA",
"a@	c #4B4BA4",
"b@	c #5656A6",
"c@	c #6161AB",
"d@	c #4B4BA9",
"e@	c #8888A0",
"f@	c #4B4B9C",
"g@	c #5656A4",
"h@	c #5151B9",
"i@	c #5C5CBC",
"j@	c #727297",
"k@	c #93939B",
"l@	c #6C6C92",
"m@	c #5656A0",
"n@	c #8D8DA0",
"o@	c #8D8DA1",
"p@	c #4B4B9D",
"q@	c #61619F",
"r@	c #56569F",
"s@	c #4B4B9F",
"t@	c #6C6CA2",
"u@	c #61619D",
"v@	c #565685",
"w@	c #565683",
"x@	c #6161A3",
"y@	c #88889B",
"z@	c #4B4B89",
"A@	c #565692",
"B@	c #56569B",
"C@	c #5C5CAA",
"D@	c #8D8D9D",
"E@	c #61618C",
"F@	c #555555",
"G@	c #4B4B7F",
"H@	c #404040",
"I@	c #303030",
"J@	c #494949",
"K@	c #2D2D2D",
"L@	c #414141",
"M@	c #353535",
"N@	c #3F3F3F",
"O@	c #313131",
"P@	c #3E3E3E",
"Q@	c #242424",
"R@	c #3A3A3A",
"S@	c #3D3D3D",
"T@	c #292929",
"U@	c #333333",
"V@	c #373737",
"W@	c #3C3C3C",
"X@	c #3B3B3B",
"          . + @ # $ % % & & & & & & & & & & & & & & & & & & & & & & & & & & & & & & & & & & & & & & & & & & & & & & & & & & & & & & & & & & & & & & & & & & & & & & & & & & & & & & & & & & & & & & & & & & & & & * = - ; > , ' & ) ! ",
"        ~ # ' % * ) { = ] ] ] ] ] ] ] ] ] ] ] ] ] ] ] ] ] ] ] ] ] ] ] ] ] ] ] ] ] ] ] ] ] ] ] ] ] ] ] ] ] ] ] ] ] ] ] ] ] ] ] ] ] ] ] ] ] ] ] ] ] ] ] ] ] ] ] ] ] ] ] ] ] ] ] ] ] ] ] ] ] ] ] ] ] ] ] ] ] ] ] ] ] ^ / ( > _ , ' & ) ! ",
"      : % $ * { ^ - # / / / / / / / / / / / / / / / / / / / / / / / / / / / / / / / / / / / / / / / / / / / / / / / / / / / / / / / / / / / / / / / / / / / / / / / / / / / / / / / / / / / / / / / / / / / / / / < [ } _ | , ' & ) ! ",
"    1 ' % ) ^ / < 2 3 3 [ [ [ 4 4 4 4 4 4 4 4 4 4 4 4 4 4 4 4 4 4 4 4 4 4 4 4 4 4 4 4 4 4 4 4 4 4 4 4 4 4 4 4 4 4 4 4 4 4 4 4 4 4 4 4 4 4 4 4 4 4 4 4 4 4 4 4 4 4 4 4 4 4 4 4 4 4 4 4 4 4 4 4 4 4 4 4 4 4 4 4 4 4 @ 5 _ | 6 , ' & ) ! ",
"  7 % * = 8 ; 4 9 } 0 0 5 5 5 5 5 5 5 5 5 5 5 5 5 5 5 5 5 5 5 5 5 5 5 5 5 5 5 5 5 5 5 5 5 5 5 5 5 5 5 5 5 5 5 5 5 5 5 5 5 5 5 5 5 5 5 5 5 5 5 5 5 5 5 5 5 5 5 5 5 5 5 5 5 5 5 5 5 5 5 5 5 5 5 5 5 5 5 5 5 5 5 5 5 a 1 b 6 : , ' & ) ! ",
"c d e ] / 3 9 0 f a a _ _ _ _ _ _ _ _ _ _ _ _ _ _ _ _ _ _ _ _ _ _ _ _ _ _ _ _ _ _ _ _ _ _ _ _ _ _ _ _ _ _ _ _ _ _ _ _ _ _ _ _ _ _ _ _ _ _ _ _ _ _ _ _ _ _ _ _ _ _ _ _ _ _ _ _ _ _ _ _ _ _ _ _ _ _ _ _ _ _ _ _ _ _ 1 | g h i , ' & ) ! ",
"+ ) ! / 3 > f a a _ _ _ _ _ _ _ _ _ _ _ _ _ _ _ _ _ _ _ _ _ _ _ _ _ _ _ _ _ _ _ _ _ _ _ _ _ _ _ _ _ _ _ _ _ _ _ _ _ _ _ _ _ _ _ _ _ _ _ _ _ _ _ _ _ _ _ _ _ _ _ _ _ _ _ _ _ _ _ _ _ _ _ _ _ _ _ _ _ _ _ _ _ _ _ _ 1 | g h i , ' & ) ! ",
"j ! 8 ; @ 5 a a _ _ _ _ _ _ _ _ _ _ _ _ _ _ _ _ _ _ _ _ _ _ _ _ _ _ _ _ _ _ _ _ _ k k l m m l n k k n l m m m l k k _ _ _ _ _ _ _ _ _ _ _ _ _ _ _ _ _ _ _ _ _ _ _ _ _ _ _ _ _ _ _ _ _ _ _ _ _ _ _ _ _ _ _ _ _ _ _ 1 | g h i , ' & ) ! ",
"( 8 < [ } j a _ _ _ _ _ _ _ _ _ _ _ _ _ _ _ _ _ k l m o o m o o o p p m l n k _ _ l o q r s r t q u p u q q u o m l m p q r s s v r q o l k _ _ _ _ _ _ _ _ _ _ _ _ _ _ _ _ _ _ _ _ _ _ _ _ _ _ _ _ _ _ _ _ _ _ _ 1 | g h i , ' & ) ! ",
"w / 2 @ 5 a _ _ _ _ _ _ _ _ _ _ _ _ _ _ _ _ _ k o q v x x x x x x y z s t p n _ k o t A B C D E F z s s s s t q p p u r z E G H H D I s q m k _ _ _ _ _ _ _ _ _ _ _ _ _ _ _ _ _ _ _ _ _ _ _ _ _ _ _ _ _ _ _ _ _ _ 1 | g h i , ' & ) ! ",
"# < 3 9 f a _ _ _ _ _ _ _ _ _ _ _ _ _ _ _ _ _ l J z K L M N O M M P P Q E x q m p s F H R S T U V P W X H K y s t q r z G M Y Z T V M G F ` t q q p p q q J t q u p p p q q q p m l k _ _ _ _ _ _ _ _ _ _ _ _ _ _ 1 | g h i , ' & ) ! ",
"/ ; [ > f _ _ _ _ _ _ _ _ _ _ _ _ _ _ _ _ _ _ o A H  ...+.+.@.@.#.$.%.&. .Q I s s K O U *.=.-.;.>.#.&.,.'.=.).F A s ` E P !.@.~.{.].^.U P Q D E B I I B K D D K F y y F B /./.y s q m k _ _ _ _ _ _ _ _ _ _ _ _ _ 1 | g h i , ' & ) ! ",
"w ; 4 > f _ _ _ _ _ _ _ _ _ _ _ _ _ _ _ _ _ _ q /. .@.(.=._.:.<.[.}.=.|.$.1.M D D R ,.@.2.=.3.4.=.5.6.7.+.,.8.D y x y Q =.=.=.=.=.=.9.7.+.!.V  .0.P 8.0.U a.U U 0.M M P 0.0.R O D x J m k _ _ _ _ _ _ _ _ _ _ _ _ 1 | g h i , ' & ) ! ",
"< 2 4 > j _ _ _ _ _ _ _ _ _ _ _ _ _ _ _ _ _ _ J H 1.b.c.=.d.e.f.g.=.=.h.i.j...0. .^.].k.l.=.m.n.=.o.:.p.q.%.T L E x x H Z ].r.<.s.}.t.u.k.>.$.#.#.+.v.%.{.w.~.~.].+.@.7.{.{.~.+.U H x q k _ _ _ _ _ _ _ _ _ _ _ _ 1 | g h i , ' & ) ! ",
"< 2 4 > j _ _ _ _ _ _ _ _ _ _ _ _ _ _ _ _ _ _ r Q x.i.y.z.A.B.C.D.E.=.F.G.=.H.I.@.J.K.L.M.=.N.z.=.=.=.O.P.=.Q.Y H y x C T ~.R.S.T.U.V.<.W.X.=.=.Y.R.r.Z.`. +=.=..+i.++@+#+=.=.$+#. .K r l _ _ _ _ _ _ _ _ _ _ _ _ 1 | g h i , ' & ) ! ",
"< 2 4 > j _ _ _ _ _ _ _ _ _ _ _ _ _ _ _ _ _ _ v L +.++%+&+*+=+-+;+>+=.,+'+=.)+k.k.!+~+{+]+=.^+/+=.(+_+:+<+=.[+S L F x X ,.{.R.}+#+|+1+2+=.3+{+<+=.4+{+5+6+7+G.8+6+9+0+a+b+c+d+}.e+!.Q A m _ _ _ _ _ _ _ _ _ _ _ _ 1 | g h i , ' & ) ! ",
"< 2 4 > j _ _ _ _ _ _ _ _ _ _ _ _ _ _ _ _ _ _ s L +.f+%+g+h+i+j+k+l+=.m+n+=.o+<.<.p+7+q+r+=.^+s+=.t+n.u+v+=.-.&.8.K B P +.w+x+}.y+|+z+5+6+A+B+u+C+D+E+F+G+u+B+H+=.I+J+A.K+L+e.M+N+v.M y o _ _ _ _ _ _ _ _ _ _ _ _ 1 | g h i , ' & ) ! ",
"< 2 4 > j _ _ _ _ _ _ _ _ _ _ _ _ _ _ _ _ _ _ v Q &.u.y.O+^+=.=.P+Q+=.^+R+=.S+T+T+U+8+B+V+=.W+X+=.r+Y+u+Z+=.`+ @.@C D Y %.+@=.@@4.4.4.#@y.c+_+Y+$@G+A+F+G+q+:+m.=.F.%@=.=.=.=.=.&@I.P y o _ _ _ _ _ _ _ _ _ _ _ _ 1 | g h i , ' & ) ! ",
"< 2 4 > j _ _ _ _ _ _ _ _ _ _ _ _ _ _ _ _ _ _ r H T >.c.*@_+=@-@;@>@=.F.'+=.S+9+:+U+8+9+,@=.H+Y+=.'@)@9+!@=.-.&.P Q L !.~@X.{@]@S.<.:.^@6+E+B+u+C+D+9+7+/@V.4.(@=._@:@<@[@}@n.|+w+&.L x m _ _ _ _ _ _ _ _ _ _ _ _ 1 | g h i , ' & ) ! ",
"< 2 4 > j _ _ _ _ _ _ _ _ _ _ _ _ _ _ _ _ _ _ J E R v.(.|@1@4.V.:.2@=.h.T+6+3@z+2@4@3+S.5@=.6@1+6+3+S.<.)+=.7@Z O Q M ..8@9@4.<.0@1@a@b@=.#@{+<+=.c@d@Z.e@f@w+g@=.3.h@a+i@:+z+Z.j@T H ` m _ _ _ _ _ _ _ _ _ _ _ _ 1 | g h i , ' & ) ! ",
"< ( 4 } j _ _ _ _ _ _ _ _ _ _ _ _ _ _ _ _ _ _ q y Q U k@l@@.~.{.7.e+=.m@p.P.=.=.n@o@Y.p@q@=.r@s@t@=.=.N+u@=.v@P H H O w@=.=.=.=.=.=.(.u.x@X.=.=.Y.f@j.j@y@z@@.A@=.B@i.C@`.=.=.D@E@.@E r l _ _ _ _ _ _ _ _ _ _ _ _ 1 | g h i , ' & ) ! ",
"< 3 F@} j _ _ _ _ _ _ _ _ _ _ _ _ _ _ _ _ _ _ o v F H .@.@8.0. .0.T ^.^.+.].w.7.7.w.%.^.^.+.^.x.z@%.@.I.^.!.P D F F D R ..].w.~.$.@.v.+.%.].%.#.z@ @,.Z Z  .0.a.G@G@x.%.].%.@.G@R D A u k _ _ _ _ _ _ _ _ _ _ _ _ 1 | g h i , ' & ) ! ",
"; 3 @ } j _ _ _ _ _ _ _ _ _ _ _ _ _ _ _ _ _ _ l u v x /.F y F F F G L N 8.Y U U U U 0.M O 8.O M R  .0.R 8.L E x v s z G P U T T U  .R R Y V Y  .0.O Q H C K K C Q Q L P .@P M W E A q m k _ _ _ _ _ _ _ _ _ _ _ _ 1 | g h i , ' & ) ! ",
"4 4 9 0 j _ _ _ _ _ _ _ _ _ _ _ _ _ _ _ _ _ _ k m p q t J q q q J v x z y /.K D D D /.y z y z y F E E /.F z v q p u t A B D H H C D E /.E K E E B y A s s v v s ` A x F /././.I ` J o n _ _ _ _ _ _ _ _ _ _ _ _ _ 1 | g h i , ' & ) ! ",
"j @ > 5 a _ _ _ _ _ _ _ _ _ _ _ _ _ _ _ _ _ _ _ k n l m l l l l l m o p p q J J J J q p p p p p q q J q q p m l n l m p J r s s s r r J J J J q q p o m m m m m o o p u q J J q p m n k _ _ _ _ _ _ _ _ _ _ _ _ _ 1 | g h i , ' & ) ! ",
"H@} 0 f a _ _ _ _ _ _ _ _ _ _ _ _ _ _ _ _ _ _ _ _ _ _ _ _ _ _ _ _ _ _ _ _ _ _ _ _ _ _ _ _ _ _ _ _ _ _ _ _ _ _ _ _ _ _ _ _ _ _ _ _ _ _ _ _ _ _ _ _ _ _ _ _ _ _ _ _ _ _ _ _ _ _ _ _ _ _ _ _ _ _ _ _ _ _ _ _ _ _ _ _ 1 | g h i , ' & ) ! ",
"I@f a _ _ 1 _ _ _ _ _ _ _ _ _ _ _ _ _ _ _ _ _ _ _ _ _ _ _ _ _ _ _ _ _ _ _ _ _ _ _ _ _ _ _ _ _ _ _ _ _ _ _ _ _ _ _ _ _ _ _ _ _ _ _ _ _ _ _ _ _ _ _ _ _ _ _ _ _ _ _ _ _ _ _ _ _ _ _ _ _ _ _ _ _ _ _ _ _ _ _ _ _ _ _ 1 | g h i , ' & ) ! ",
". 6 1 J@J@J@1 1 _ _ _ _ _ _ _ _ _ _ _ _ _ _ _ _ _ _ _ _ _ _ _ _ _ _ _ _ _ _ _ _ _ _ _ _ _ _ _ _ _ _ _ _ _ _ _ _ _ _ _ _ _ _ _ _ _ _ _ _ _ _ _ _ _ _ _ _ _ _ _ _ _ _ _ _ _ _ _ _ _ _ _ _ _ _ _ _ _ _ _ _ _ _ _ _ _ 1 | g h i , ' & ) ! ",
"  K@| b b b b | J@J@J@J@J@J@J@J@J@J@J@J@J@J@J@J@J@J@J@J@J@J@J@J@J@J@J@J@J@J@J@J@J@J@J@J@J@J@J@J@J@J@J@J@J@J@J@J@J@J@J@J@J@J@J@J@J@J@J@J@J@J@J@J@J@J@J@J@J@J@J@J@J@J@J@J@J@J@J@J@J@J@J@J@J@J@J@J@J@J@J@J@J@J@J@J@J@| g 6 : L@, ' & ) ! ",
"    M@g 6 6 6 6 6 g g g g g g g g g g g g g g g g g g g g g g g g g g g g g g g g g g g g g g g g g g g g g g g g g g g g g g g g g g g g g g g g g g g g g g g g g g g g g g g g g g g g g g g g g g g g g g g g 6 : i H@N@, ' & ) ! ",
"      O@i : i i i i i i i i i i i i i i i i i i i i i i i i i i i i i i i i i i i i i i i i i i i i i i i i i i i i i i i i i i i i i i i i i i i i i i i i i i i i i i i i i i i i i i i i i i i i i i i i i i i i H@N@P@P@, ' & ) ! ",
"        Q@R@H@H@N@N@N@N@N@N@N@N@N@N@N@N@N@N@N@N@N@N@N@N@N@N@N@N@N@N@N@N@N@N@N@N@N@N@N@N@N@N@N@N@N@N@N@N@N@N@N@N@N@N@N@N@N@N@N@N@N@N@N@N@N@N@N@N@N@N@N@N@N@N@N@N@N@N@N@N@N@N@N@N@N@N@N@N@N@N@N@N@N@N@N@N@N@N@N@N@N@P@S@S@S@S@, ' & ) ! ",
"            T@U@V@S@W@W@X@X@X@X@X@X@X@X@X@X@X@X@X@X@X@X@X@X@X@X@X@X@X@X@X@X@X@X@X@X@X@X@X@X@X@X@X@X@X@X@X@X@X@X@X@X@X@X@X@X@X@X@X@X@X@X@X@X@X@X@X@X@X@X@X@X@X@X@X@X@X@X@X@X@X@X@X@X@X@X@X@X@X@X@X@X@X@X@X@X@X@X@X@X@X@X@X@S@, ' & ) ! "};
