/* XPM */
static const char * pedalEvents_click_xpm[] = {
"115 33 387 2",
"  	c #1E1E1E",
". 	c #1F1F1F",
"+ 	c #383838",
"@ 	c #545454",
"# 	c #606060",
"$ 	c #6F6F6F",
"% 	c #6E6E6E",
"& 	c #6D6D6D",
"* 	c #6B6B6B",
"= 	c #676767",
"- 	c #626262",
"; 	c #5B5B5B",
"> 	c #525252",
", 	c #737373",
"' 	c #707070",
") 	c #696969",
"! 	c #656565",
"~ 	c #2B2B2B",
"{ 	c #686868",
"] 	c #666666",
"^ 	c #646464",
"/ 	c #5F5F5F",
"( 	c #595959",
"_ 	c #4B4B4B",
": 	c #434343",
"< 	c #5D5D5D",
"[ 	c #575757",
"} 	c #515151",
"| 	c #484848",
"1 	c #4A4A4A",
"2 	c #5A5A5A",
"3 	c #585858",
"4 	c #565656",
"5 	c #4F4F4F",
"6 	c #454545",
"7 	c #393939",
"8 	c #616161",
"9 	c #535353",
"0 	c #505050",
"a 	c #4C4C4C",
"b 	c #474747",
"c 	c #202020",
"d 	c #636363",
"e 	c #6A6A6A",
"f 	c #4E4E4E",
"g 	c #464646",
"h 	c #444444",
"i 	c #424242",
"j 	c #4D4D4D",
"k 	c #4B4B4C",
"l 	c #4B4B4D",
"m 	c #4B4B4E",
"n 	c #4B4B4F",
"o 	c #4B4B51",
"p 	c #4B4B53",
"q 	c #4B4B55",
"r 	c #4B4B56",
"s 	c #4B4B50",
"t 	c #4B4B52",
"u 	c #4B4B54",
"v 	c #4B4B57",
"w 	c #5E5E5E",
"x 	c #4B4B5A",
"y 	c #4B4B60",
"z 	c #4B4B64",
"A 	c #4B4B65",
"B 	c #4B4B59",
"C 	c #4B4B5D",
"D 	c #4B4B5C",
"E 	c #4B4B58",
"F 	c #4B4B5F",
"G 	c #4B4B62",
"H 	c #4B4B5E",
"I 	c #4B4B63",
"J 	c #4B4B66",
"K 	c #4B4B72",
"L 	c #4B4B78",
"M 	c #4B4B7A",
"N 	c #4B4B73",
"O 	c #4B4B69",
"P 	c #4B4B61",
"Q 	c #4B4B5B",
"R 	c #4B4B6A",
"S 	c #4B4B70",
"T 	c #4B4B6E",
"U 	c #4B4B67",
"V 	c #4B4B6B",
"W 	c #4B4B75",
"X 	c #4B4B77",
"Y 	c #4B4B76",
"Z 	c #4B4B71",
"` 	c #4B4B87",
" .	c #4B4B91",
"..	c #4B4B93",
"+.	c #4B4B8B",
"@.	c #4B4B7F",
"#.	c #4B4B74",
"$.	c #4B4B80",
"%.	c #888898",
"&.	c #6C6C8E",
"*.	c #4B4B79",
"=.	c #4B4B6C",
"-.	c #616189",
";.	c #9E9E9E",
">.	c #56567F",
",.	c #4B4B81",
"'.	c #4B4B8C",
").	c #4B4B88",
"!.	c #4B4B82",
"~.	c #4B4B6F",
"{.	c #4B4B7B",
"].	c #8282A2",
"^.	c #51519B",
"/.	c #4B4B8D",
"(.	c #4B4B86",
"_.	c #4B4B83",
":.	c #4B4B94",
"<.	c #88889D",
"[.	c #6C6C98",
"}.	c #616197",
"|.	c #56568B",
"1.	c #4B4B6D",
"2.	c #4B4B84",
"3.	c #616188",
"4.	c #4B4B7C",
"5.	c #727299",
"6.	c #88889C",
"7.	c #4B4B8E",
"8.	c #7272B2",
"9.	c #4B4BC7",
"0.	c #5C5CC0",
"a.	c #9393A3",
"b.	c #7D7DA8",
"c.	c #4B4BAA",
"d.	c #4B4BA7",
"e.	c #4B4BA0",
"f.	c #4B4B97",
"g.	c #4B4B92",
"h.	c #4B4B90",
"i.	c #4B4B99",
"j.	c #8888A3",
"k.	c #6C6CA2",
"l.	c #4B4BA2",
"m.	c #6161A5",
"n.	c #565694",
"o.	c #8888A1",
"p.	c #8888A5",
"q.	c #4B4BB8",
"r.	c #4B4BB0",
"s.	c #4B4BA6",
"t.	c #4B4B7E",
"u.	c #4B4B96",
"v.	c #4B4B98",
"w.	c #4B4B9D",
"x.	c #4B4B9E",
"y.	c #4B4BA4",
"z.	c #7272A5",
"A.	c #4B4BA5",
"B.	c #4B4B9F",
"C.	c #4B4B9A",
"D.	c #7272B9",
"E.	c #4B4BD3",
"F.	c #4B4BD7",
"G.	c #7272BC",
"H.	c #9898A1",
"I.	c #4B4BC4",
"J.	c #5C5CBE",
"K.	c #8D8DA5",
"L.	c #7777A8",
"M.	c #5C5CA9",
"N.	c #8D8DA2",
"O.	c #6C6CAC",
"P.	c #4B4BAB",
"Q.	c #7272A4",
"R.	c #8D8DA3",
"S.	c #5656B7",
"T.	c #4B4BB7",
"U.	c #6161B1",
"V.	c #56569B",
"W.	c #8888A4",
"X.	c #8888A8",
"Y.	c #4B4BC1",
"Z.	c #4B4BAC",
"`.	c #777798",
" +	c #4B4B9B",
".+	c #8282A0",
"++	c #7D7DA1",
"@+	c #4B4BAD",
"#+	c #6C6CAE",
"$+	c #9898A0",
"%+	c #6C6CAB",
"&+	c #8282A5",
"*+	c #98989F",
"=+	c #8D8DA4",
"-+	c #5151B7",
";+	c #6161B5",
">+	c #5656AE",
",+	c #6C6CAA",
"'+	c #4B4BA3",
")+	c #4B4BDA",
"!+	c #4B4BDF",
"~+	c #7777BD",
"{+	c #9898A2",
"]+	c #5151CF",
"^+	c #7D7DB4",
"/+	c #4B4BCB",
"(+	c #5C5CC1",
"_+	c #6C6CB2",
":+	c #7272AF",
"<+	c #4B4BBC",
"[+	c #5151BD",
"}+	c #6C6CAF",
"|+	c #4B4BB1",
"1+	c #4B4BB3",
"2+	c #4B4BB6",
"3+	c #5151B9",
"4+	c #9393A4",
"5+	c #7777B4",
"6+	c #6161BA",
"7+	c #5656A0",
"8+	c #4B4B85",
"9+	c #8888A7",
"0+	c #8888AB",
"a+	c #4B4BBB",
"b+	c #5C5C9E",
"c+	c #5656A9",
"d+	c #5151B4",
"e+	c #6C6CBB",
"f+	c #4B4BC6",
"g+	c #6C6CB8",
"h+	c #5656BB",
"i+	c #5151BB",
"j+	c #7272B3",
"k+	c #7272B7",
"l+	c #8888AA",
"m+	c #4B4BBF",
"n+	c #4B4BB9",
"o+	c #6767B2",
"p+	c #6C6CA9",
"q+	c #88889E",
"r+	c #4B4B89",
"s+	c #7272BD",
"t+	c #4B4BD9",
"u+	c #5C5CD1",
"v+	c #7777BA",
"w+	c #6767C6",
"x+	c #9898A3",
"y+	c #4B4BE2",
"z+	c #4B4BDC",
"A+	c #7D7DB7",
"B+	c #7D7DB3",
"C+	c #6767BB",
"D+	c #4B4BC9",
"E+	c #4B4BC2",
"F+	c #6C6CB3",
"G+	c #4B4BCF",
"H+	c #7272C1",
"I+	c #8888AF",
"J+	c #6161BF",
"K+	c #5656A1",
"L+	c #8888A9",
"M+	c #6161A2",
"N+	c #4B4BA9",
"O+	c #4B4BC0",
"P+	c #7272B6",
"Q+	c #9393A5",
"R+	c #4B4BCE",
"S+	c #7777B7",
"T+	c #8282B4",
"U+	c #4B4BD6",
"V+	c #9393A6",
"W+	c #4B4BC8",
"X+	c #6161BE",
"Y+	c #7D7DB1",
"Z+	c #7D7DB0",
"`+	c #4B4BCC",
" @	c #8888AC",
".@	c #5151C0",
"+@	c #7272B5",
"@@	c #4B4BBE",
"#@	c #4B4B8A",
"$@	c #4B4BCD",
"%@	c #7272BA",
"&@	c #7D7DB5",
"*@	c #4B4BCA",
"=@	c #6C6CB5",
"-@	c #5C5CC4",
";@	c #8888B1",
">@	c #6161C0",
",@	c #56569F",
"'@	c #4B4BBA",
")@	c #7272AC",
"!@	c #8888AE",
"~@	c #6C6CBD",
"{@	c #6161BD",
"]@	c #4B4BBD",
"^@	c #7D7DAF",
"/@	c #7272B8",
"(@	c #7272A9",
"_@	c #8D8DA8",
":@	c #4B4BD2",
"<@	c #4B4BD5",
"[@	c #4B4BC3",
"}@	c #6C6CB4",
"|@	c #8888AD",
"1@	c #5656CF",
"2@	c #7272C3",
"3@	c #56569A",
"4@	c #5151B2",
"5@	c #7272B4",
"6@	c #5656C8",
"7@	c #7777B3",
"8@	c #4B4BD0",
"9@	c #6161B3",
"0@	c #4B4BB2",
"a@	c #7D7DAB",
"b@	c #7D7DAA",
"c@	c #7272B1",
"d@	c #4B4BB4",
"e@	c #7272B0",
"f@	c #515190",
"g@	c #7272A3",
"h@	c #5151A3",
"i@	c #5C5CB5",
"j@	c #7272AD",
"k@	c #5656B3",
"l@	c #5656C4",
"m@	c #8D8DA9",
"n@	c #6161AF",
"o@	c #565691",
"p@	c #4B4BAF",
"q@	c #4B4BA1",
"r@	c #4B4B8F",
"s@	c #8888A6",
"t@	c #8282A9",
"u@	c #6161AD",
"v@	c #6161A4",
"w@	c #4B4B9C",
"x@	c #7D7DA2",
"y@	c #7D7DA3",
"z@	c #7272A8",
"A@	c #5151AB",
"B@	c #6161AA",
"C@	c #5C5CB3",
"D@	c #6767AB",
"E@	c #98989E",
"F@	c #515189",
"G@	c #727296",
"H@	c #5C5C9C",
"I@	c #93939F",
"J@	c #8D8DA1",
"K@	c #6C6CA3",
"L@	c #8D8DA0",
"M@	c #9393A0",
"N@	c #6C6CA5",
"O@	c #9393A2",
"P@	c #61619F",
"Q@	c #565685",
"R@	c #4B4B68",
"S@	c #61618C",
"T@	c #67679C",
"U@	c #6C6CA0",
"V@	c #616194",
"W@	c #7D7D9A",
"X@	c #51519F",
"Y@	c #8D8D9F",
"Z@	c #5656A3",
"`@	c #4B4B7D",
" #	c #555555",
".#	c #4B4B95",
"+#	c #404040",
"@#	c #303030",
"##	c #494949",
"$#	c #2D2D2D",
"%#	c #414141",
"&#	c #353535",
"*#	c #3F3F3F",
"=#	c #313131",
"-#	c #3E3E3E",
";#	c #242424",
">#	c #3A3A3A",
",#	c #3D3D3D",
"'#	c #292929",
")#	c #333333",
"!#	c #373737",
"~#	c #3C3C3C",
"{#	c #3B3B3B",
"          . + @ # $ % % & & & & & & & & & & & & & & & & & & & & & & & & & & & & & & & & & & & & & & & & & & & & & & & & & & & & & & & & & & & & & & & & & & & & & & & & & & & & & & & & & & & & & & & & & & & & & * = - ; > , ' & ) ! ",
"        ~ # ' % * ) { = ] ] ] ] ] ] ] ] ] ] ] ] ] ] ] ] ] ] ] ] ] ] ] ] ] ] ] ] ] ] ] ] ] ] ] ] ] ] ] ] ] ] ] ] ] ] ] ] ] ] ] ] ] ] ] ] ] ] ] ] ] ] ] ] ] ] ] ] ] ] ] ] ] ] ] ] ] ] ] ] ] ] ] ] ] ] ] ] ] ] ] ] ] ^ / ( > _ , ' & ) ! ",
"      : % $ * { ^ - # / / / / / / / / / / / / / / / / / / / / / / / / / / / / / / / / / / / / / / / / / / / / / / / / / / / / / / / / / / / / / / / / / / / / / / / / / / / / / / / / / / / / / / / / / / / / / / < [ } _ | , ' & ) ! ",
"    1 ' % ) ^ / < 2 3 3 [ [ [ 4 4 4 4 4 4 4 4 4 4 4 4 4 4 4 4 4 4 4 4 4 4 4 4 4 4 4 4 4 4 4 4 4 4 4 4 4 4 4 4 4 4 4 4 4 4 4 4 4 4 4 4 4 4 4 4 4 4 4 4 4 4 4 4 4 4 4 4 4 4 4 4 4 4 4 4 4 4 4 4 4 4 4 4 4 4 4 4 4 4 @ 5 _ | 6 , ' & ) ! ",
"  7 % * = 8 ; 4 9 } 0 0 5 5 5 5 5 5 5 5 5 5 5 5 5 5 5 5 5 5 5 5 5 5 5 5 5 5 5 5 5 5 5 5 5 5 5 5 5 5 5 5 5 5 5 5 5 5 5 5 5 5 5 5 5 5 5 5 5 5 5 5 5 5 5 5 5 5 5 5 5 5 5 5 5 5 5 5 5 5 5 5 5 5 5 5 5 5 5 5 5 5 5 5 5 a 1 b 6 : , ' & ) ! ",
"c d e ] / 3 9 0 f a a _ _ _ _ _ _ _ _ _ _ _ _ _ _ _ _ _ _ _ _ _ _ _ _ _ _ _ _ _ _ _ _ _ _ _ _ _ _ _ _ _ _ _ _ _ _ _ _ _ _ _ _ _ _ _ _ _ _ _ _ _ _ _ _ _ _ _ _ _ _ _ _ _ _ _ _ _ _ _ _ _ _ _ _ _ _ _ _ _ _ _ _ _ _ 1 | g h i , ' & ) ! ",
"+ ) ! / 3 > f a a _ _ _ _ _ _ _ _ _ _ _ _ _ _ _ _ _ _ _ _ _ _ _ _ _ _ _ _ _ _ _ _ _ _ _ _ _ _ _ _ _ _ _ _ _ _ _ _ _ _ _ _ _ _ _ _ _ _ _ _ _ _ _ _ _ _ _ _ _ _ _ _ _ _ _ _ _ _ _ _ _ _ _ _ _ _ _ _ _ _ _ _ _ _ _ _ 1 | g h i , ' & ) ! ",
"j ! 8 ; @ 5 a a _ _ _ _ _ _ _ _ _ _ _ _ _ _ _ _ _ _ _ _ _ _ _ _ _ _ _ k k l m m l k k _ _ k k m n n m l k k _ _ _ _ _ _ _ _ _ _ _ _ _ _ _ _ _ _ _ _ _ _ _ _ _ _ _ _ _ _ _ _ _ _ _ _ _ _ _ _ _ _ _ _ _ _ _ _ _ _ _ 1 | g h i , ' & ) ! ",
"( 8 < [ } j a _ _ _ _ _ _ _ _ _ _ k n o p q r q p s m k _ _ _ _ _ _ k n s t u p o n m _ _ m s p q r u t s n n s p r v v r u o n l k _ _ _ _ _ _ _ _ _ _ _ _ _ _ _ _ k k l m m m l k _ _ _ _ _ _ _ _ _ _ _ _ _ _ _ 1 | g h i , ' & ) ! ",
"w / 2 @ 5 a _ _ _ _ _ _ _ _ _ _ k s u x y z A z y x u s l _ _ _ _ _ m o r B C D E u s k k s q x F G H B r p p E F z A A I H E p n k _ _ _ _ _ _ _ _ _ _ _ _ _ _ _ k m s t u u p o n k _ _ _ _ _ _ _ _ _ _ _ _ _ _ 1 | g h i , ' & ) ! ",
"# < 3 9 f a _ _ _ _ _ _ _ _ _ _ n u D J K L M L N O P Q E q p t o o r C z R S T U G C v r D G U T K V G C Q Q I T W X Y Z O P Q r o n n s o t p u u p p t p p u q r x C y z A G F Q v q q p t s m k _ _ _ _ _ _ _ 1 | g h i , ' & ) ! ",
"/ ; [ > f _ _ _ _ _ _ _ _ _ _ _ o Q U W `  ... .+.@.#.T O z G y H C z T X $.%.&.*.K V z z =.N M -.;.>.T J I z Z ,.+.'.).!.X =.A F Q E E Q D F G z G G G F y I z z U V ~.#.M {.Y Z =.U z I P C v t n k _ _ _ _ _ _ 1 | g h i , ' & ) ! ",
"w ; 4 > f _ _ _ _ _ _ _ _ _ _ _ p G N ` ;.;.;.;.].^./.(.@.X #.N S ~.X _.+.:.<.[.).,.{.N N @.(./.}.;.|.X T 1.Z 2.<.;.;.;.;.;.3.Y S O J U V T Z Y X W W W N N L M *.4._.(.'.5.6.7.).,.4.X #.S O H r o k _ _ _ _ _ _ 1 | g h i , ' & ) ! ",
"< 2 4 > j _ _ _ _ _ _ _ _ _ _ _ r U 4.:.;.8.9.0.a.b.c.d.e.f.:.g.'.).h.i.e.d.j.k.i.:. .+.'.i.e.l.m.;.n.@.W #.M h.o.p.q.r.s.f.)._.,.4.*.t.2.(./.u.v.:.:.:.7./.:.:.g.:.w.x.y.z.j.A.B.C.f.g.7.` {.R C u m _ _ _ _ _ _ 1 | g h i , ' & ) ! ",
"< 2 4 > j _ _ _ _ _ _ _ _ _ _ _ E V _.w.;.D.E.F.G.H.I.J.K.;.;.L.c.A.M.N.;.;.a.O.P.Q.;.;.;.R.S.T.U.;.V._.*.*.,.i.W.X.Y.T.Z.x...`.6.:... +.+++@+#+$+;.$+%+Z.c.;.&+*+;.=+-+;+;.;.;.;.>+,+*+;.;.`.*.U B n _ _ _ _ _ _ 1 | g h i , ' & ) ! ",
"< 2 4 > j _ _ _ _ _ _ _ _ _ _ _ B T ` '+;.G.)+!+~+{+]+{+^+/+(+H._+-+$+:+<+[+a.}+|+1+q.2+3+4+5+9.6+;.7+(.{.4.8+B.9+0+9.a+r.'+i.b+;.c+Z.d+;.;+6+;.e+f+g+;.h+<+;.X.S.i+4+j+9.k+l+m+n+-+;.o+n+p+q+!.=.C o _ _ _ _ _ _ 1 | g h i , ' & ) ! ",
"< 2 4 > j _ _ _ _ _ _ _ _ _ _ _ B S r+d.;.s+t+u+{+v+w+x+y+z+z+A+B+C+H.D+E+I.l+F+a+Y.D+D+G+H+I+E.J+;.K+(.4.t.).y.L+;.;.;.;.;.M+N+R.:+O+P+Q+R+S+T+z+U+)+V+e+W+;.X+O+E+Y+Z+`+D. @I.m+.@;.+@9.@@c.#@Z F t _ _ _ _ _ _ 1 | g h i , ' & ) ! ",
"< 2 4 > j _ _ _ _ _ _ _ _ _ _ _ B T ` '+;.;.;.;.B+$@%@;.;.;.;.;.&@D. @*@E+I.l+=@E+-@&@;.;.;.;@F.>@;.,@_.M 4.8+B.9+0+9.'@Z.e. +s.)@H.*@ @G.E.!@;.;.;.;.;.~@D+;.{@]@@@Z+^@D+k+0+Y.]@E+/@H.;.H.(@ .Y G p _ _ _ _ _ _ 1 | g h i , ' & ) ! ",
"< 2 4 > j _ _ _ _ _ _ _ _ _ _ _ E V ,.C.;.:+T.2+2+1+o+_@E.:@U+<@/+=@L+[@]@m+L+}@E+4+|@1@t+2@I+R+6+;.3@@.Y X $.i.W.X.Y.2+d. +f.l.4@;.5@;.6@D+7@S+:@R+:@8@I.]@;.9@|+0@a@b@]@c@X.q.d@n+I.9.9.e@;.f@W G p _ _ _ _ _ _ 1 | g h i , ' & ) ! ",
"< 2 4 > j _ _ _ _ _ _ _ _ _ _ _ r U M 7.;.g@e.w. +i.h@*+i@]@E+c@j@k@$+2+0@O.$+#+T.$++@D+l@m@0+@@n@;.o@X S K M h.o.p.q.p@q@:.r@f.A.&+;.s@n+1+n@$+<+a+[+t@u@P.;.v@w@w.x@y@P.z@*+A@N+B@p.C@q.D@E@F@S F p _ _ _ _ _ _ 1 | g h i , ' & ) ! ",
"< ( 4 } j _ _ _ _ _ _ _ _ _ _ _ p P ~.@.;.G@)._.,.@.+.H@I@;.;.J@v@'+K@;.;.L@M@N@c.%+;.;.O@K.p.N+P@;.Q@T R@R Z 2.<.;.;.;.;.;.S@#@g.T@;.U@x. +w.k.;.;.;.o.7+f.;.V@#@#@W@W@i.X@Y@;.;.Z@o.;.;.I@}.`@R Q o _ _ _ _ _ _ 1 | g h i , ' & ) ! ",
"< 3  #} j _ _ _ _ _ _ _ _ _ _ _ o B I 1.X W ~.V O O Z @.` +./.'.).(.+.'.'.7.g.r@7.:.C.i.i. +.#+.2.t.T G F F z Z ,.+.'.).$.X K #.M $._._.$.@.$.(.r++./.+._.t.t.M W W {.4.@.2.r+).).#@r@r@/.).@.T P r n _ _ _ _ _ _ 1 | g h i , ' & ) ! ",
"; 3 @ } j _ _ _ _ _ _ _ _ _ _ _ n p E C G P D B E E H U 1.S Z Z ~.~.N W Y X *.X W L {.M M {.X Z 1.O y B v E Q I T W X W S R J A U R =.V O R@O V T S K Z =.O O U z z U O V ~.N N N W X W #.S R F E o l _ _ _ _ _ _ 1 | g h i , ' & ) ! ",
"4 4 9 0 j _ _ _ _ _ _ _ _ _ _ _ k n t u v r p o o o q Q F P G G y F G I z z z G G I A A A A I F C Q r t o o p E F z A A I F Q x B x Q x B B x C y G G G F D Q B E E B x Q H P G I z J z I F Q r o m k _ _ _ _ _ _ 1 | g h i , ' & ) ! ",
"j @ > 5 a _ _ _ _ _ _ _ _ _ _ _ _ k l m n n m l l l n o p u u u p p p u q q u p p p q r q q u t o s n l l l m s p r v v r u p o s s s n n n o t p q q u p o o s n n n s o o p u q r r r q p o n l k _ _ _ _ _ _ _ 1 | g h i , ' & ) ! ",
"+#} 0 f a _ _ _ _ _ _ _ _ _ _ _ _ _ _ _ _ _ _ _ _ _ _ _ _ _ _ _ _ _ _ _ _ _ _ _ _ _ _ _ _ _ _ _ _ _ _ _ _ _ _ _ _ _ _ _ _ _ _ _ _ _ _ _ _ _ _ _ _ _ _ _ _ _ _ _ _ _ _ _ _ _ _ _ _ _ _ _ _ _ _ _ _ _ _ _ _ _ _ _ _ 1 | g h i , ' & ) ! ",
"@#f a _ _ 1 _ _ _ _ _ _ _ _ _ _ _ _ _ _ _ _ _ _ _ _ _ _ _ _ _ _ _ _ _ _ _ _ _ _ _ _ _ _ _ _ _ _ _ _ _ _ _ _ _ _ _ _ _ _ _ _ _ _ _ _ _ _ _ _ _ _ _ _ _ _ _ _ _ _ _ _ _ _ _ _ _ _ _ _ _ _ _ _ _ _ _ _ _ _ _ _ _ _ _ 1 | g h i , ' & ) ! ",
". 6 1 ######1 1 _ _ _ _ _ _ _ _ _ _ _ _ _ _ _ _ _ _ _ _ _ _ _ _ _ _ _ _ _ _ _ _ _ _ _ _ _ _ _ _ _ _ _ _ _ _ _ _ _ _ _ _ _ _ _ _ _ _ _ _ _ _ _ _ _ _ _ _ _ _ _ _ _ _ _ _ _ _ _ _ _ _ _ _ _ _ _ _ _ _ _ _ _ _ _ _ _ 1 | g h i , ' & ) ! ",
"  $#| b b b b | ##################################################################################################################################################################################################| g 6 : %#, ' & ) ! ",
"    &#g 6 6 6 6 6 g g g g g g g g g g g g g g g g g g g g g g g g g g g g g g g g g g g g g g g g g g g g g g g g g g g g g g g g g g g g g g g g g g g g g g g g g g g g g g g g g g g g g g g g g g g g g g g g 6 : i +#*#, ' & ) ! ",
"      =#i : i i i i i i i i i i i i i i i i i i i i i i i i i i i i i i i i i i i i i i i i i i i i i i i i i i i i i i i i i i i i i i i i i i i i i i i i i i i i i i i i i i i i i i i i i i i i i i i i i i i i +#*#-#-#, ' & ) ! ",
"        ;#>#+#+#*#*#*#*#*#*#*#*#*#*#*#*#*#*#*#*#*#*#*#*#*#*#*#*#*#*#*#*#*#*#*#*#*#*#*#*#*#*#*#*#*#*#*#*#*#*#*#*#*#*#*#*#*#*#*#*#*#*#*#*#*#*#*#*#*#*#*#*#*#*#*#*#*#*#*#*#*#*#*#*#*#*#*#*#*#*#*#*#*#*#*#*#*#*#*#*#*#-#,#,#,#,#, ' & ) ! ",
"            '#)#!#,#~#~#{#{#{#{#{#{#{#{#{#{#{#{#{#{#{#{#{#{#{#{#{#{#{#{#{#{#{#{#{#{#{#{#{#{#{#{#{#{#{#{#{#{#{#{#{#{#{#{#{#{#{#{#{#{#{#{#{#{#{#{#{#{#{#{#{#{#{#{#{#{#{#{#{#{#{#{#{#{#{#{#{#{#{#{#{#{#{#{#{#{#{#{#{#{#{#{#{#,#, ' & ) ! "};
