/* XPM */
static const char * retrigger_click_xpm[] = {
"115 33 353 2",
"  	c #1E1E1E",
". 	c #1F1F1F",
"+ 	c #383838",
"@ 	c #545454",
"# 	c #606060",
"$ 	c #6F6F6F",
"% 	c #6E6E6E",
"& 	c #6D6D6D",
"* 	c #6B6B6B",
"= 	c #676767",
"- 	c #626262",
"; 	c #5B5B5B",
"> 	c #525252",
", 	c #737373",
"' 	c #707070",
") 	c #696969",
"! 	c #656565",
"~ 	c #2B2B2B",
"{ 	c #686868",
"] 	c #666666",
"^ 	c #646464",
"/ 	c #5F5F5F",
"( 	c #595959",
"_ 	c #4B4B4B",
": 	c #434343",
"< 	c #5D5D5D",
"[ 	c #575757",
"} 	c #515151",
"| 	c #484848",
"1 	c #4A4A4A",
"2 	c #5A5A5A",
"3 	c #585858",
"4 	c #565656",
"5 	c #4F4F4F",
"6 	c #454545",
"7 	c #393939",
"8 	c #616161",
"9 	c #535353",
"0 	c #505050",
"a 	c #4C4C4C",
"b 	c #474747",
"c 	c #202020",
"d 	c #636363",
"e 	c #6A6A6A",
"f 	c #4E4E4E",
"g 	c #464646",
"h 	c #444444",
"i 	c #424242",
"j 	c #4D4D4D",
"k 	c #4B4B4C",
"l 	c #4B4B4E",
"m 	c #4B4B4F",
"n 	c #4B4B4D",
"o 	c #4B4B51",
"p 	c #4B4B53",
"q 	c #4B4B55",
"r 	c #4B4B56",
"s 	c #4B4B50",
"t 	c #4B4B52",
"u 	c #5E5E5E",
"v 	c #4B4B54",
"w 	c #4B4B5A",
"x 	c #4B4B60",
"y 	c #4B4B64",
"z 	c #4B4B66",
"A 	c #4B4B65",
"B 	c #4B4B62",
"C 	c #4B4B5B",
"D 	c #4B4B57",
"E 	c #4B4B5C",
"F 	c #4B4B72",
"G 	c #4B4B79",
"H 	c #4B4B7B",
"I 	c #4B4B7A",
"J 	c #4B4B75",
"K 	c #4B4B6B",
"L 	c #4B4B5D",
"M 	c #4B4B61",
"N 	c #4B4B5E",
"O 	c #4B4B58",
"P 	c #4B4B5F",
"Q 	c #4B4B67",
"R 	c #4B4B88",
"S 	c #4B4B92",
"T 	c #4B4B95",
"U 	c #4B4B93",
"V 	c #4B4B8D",
"W 	c #4B4B80",
"X 	c #4B4B73",
"Y 	c #4B4B63",
"Z 	c #4B4B70",
"` 	c #4B4B69",
" .	c #4B4B6E",
"..	c #4B4B71",
"+.	c #565679",
"@.	c #9E9E9E",
"#.	c #6C6C84",
"$.	c #4B4B6C",
"%.	c #4B4B74",
"&.	c #4B4B8A",
"*.	c #8D8DA1",
"=.	c #5C5C9C",
"-.	c #4B4B7F",
";.	c #4B4B82",
">.	c #4B4B87",
",.	c #88889C",
"'.	c #727299",
").	c #4B4B86",
"!.	c #4B4B7C",
"~.	c #4B4B81",
"{.	c #4B4B83",
"].	c #4B4B85",
"^.	c #4B4B76",
"/.	c #4B4B6F",
"(.	c #4B4B6D",
"_.	c #4B4B68",
":.	c #4B4B7D",
"<.	c #4B4B97",
"[.	c #7272B5",
"}.	c #4B4BCE",
"|.	c #5151CA",
"1.	c #8D8DA6",
"2.	c #9393A1",
"3.	c #4B4BA0",
"4.	c #4B4B98",
"5.	c #4B4B99",
"6.	c #4B4BA1",
"7.	c #4B4BA4",
"8.	c #4B4BA9",
"9.	c #8888A3",
"0.	c #7272A5",
"a.	c #4B4B9D",
"b.	c #4B4B96",
"c.	c #4B4B90",
"d.	c #4B4B91",
"e.	c #4B4B8C",
"f.	c #4B4B8B",
"g.	c #4B4B89",
"h.	c #4B4B84",
"i.	c #4B4B8F",
"j.	c #4B4B8E",
"k.	c #4B4B94",
"l.	c #7272BE",
"m.	c #4B4BDE",
"n.	c #4B4BDD",
"o.	c #7272BC",
"p.	c #4B4BB5",
"q.	c #4B4BB1",
"r.	c #5C5CAF",
"s.	c #8D8DA2",
"t.	c #7777AD",
"u.	c #4B4BBF",
"v.	c #7272B1",
"w.	c #4B4BAF",
"x.	c #7D7DA4",
"y.	c #98989F",
"z.	c #6C6CA9",
"A.	c #6C6CA8",
"B.	c #4B4BAA",
"C.	c #5151AB",
"D.	c #8888A2",
"E.	c #93939F",
"F.	c #7D7DA0",
"G.	c #4B4B9E",
"H.	c #6C6CA2",
"I.	c #98989E",
"J.	c #5656A5",
"K.	c #4B4BA7",
"L.	c #5151AE",
"M.	c #8888A4",
"N.	c #5151AD",
"O.	c #7272A4",
"P.	c #8D8DA0",
"Q.	c #88889D",
"R.	c #93939A",
"S.	c #4B4B59",
"T.	c #7272C4",
"U.	c #4B4BE9",
"V.	c #5656DE",
"W.	c #9393A8",
"X.	c #8282B0",
"Y.	c #4B4BC6",
"Z.	c #5151C1",
"`.	c #9898A1",
" +	c #7D7DAE",
".+	c #4B4BC4",
"++	c #5C5CC2",
"@+	c #6C6CBA",
"#+	c #4B4BCB",
"$+	c #8888AB",
"%+	c #4B4BB9",
"&+	c #4B4BB6",
"*+	c #5656B3",
"=+	c #4B4BBB",
"-+	c #6C6CB2",
";+	c #4B4BBD",
">+	c #8888A7",
",+	c #8888A6",
"'+	c #4B4BB2",
")+	c #8282A7",
"!+	c #7D7DA8",
"~+	c #6161AC",
"{+	c #6161AD",
"]+	c #4B4BB0",
"^+	c #5C5CB2",
"/+	c #5656B5",
"(+	c #8888A9",
"_+	c #8D8DA7",
":+	c #5151C2",
"<+	c #5151C4",
"[+	c #7D7DAC",
"}+	c #4B4BBA",
"|+	c #7272AD",
"1+	c #7272A0",
"2+	c #4B4B7E",
"3+	c #4B4BAB",
"4+	c #8282B8",
"5+	c #4B4BDC",
"6+	c #4B4BD3",
"7+	c #6767C2",
"8+	c #9898A2",
"9+	c #4B4BD8",
"0+	c #4B4BD5",
"a+	c #4B4BDA",
"b+	c #7D7DB7",
"c+	c #7D7DB5",
"d+	c #4B4BD2",
"e+	c #8888AC",
"f+	c #7272B8",
"g+	c #4B4BBE",
"h+	c #4B4BBC",
"i+	c #6161B1",
"j+	c #4B4BB8",
"k+	c #4B4BB7",
"l+	c #6C6CB9",
"m+	c #5151C7",
"n+	c #7272B4",
"o+	c #7D7DAD",
"p+	c #8282AB",
"q+	c #5656C3",
"r+	c #5151CB",
"s+	c #5C5CD2",
"t+	c #4B4BD7",
"u+	c #6C6CC3",
"v+	c #9393A5",
"w+	c #4B4BC7",
"x+	c #7272B2",
"y+	c #4B4BA2",
"z+	c #4B4BA3",
"A+	c #8D8DAB",
"B+	c #4B4BD4",
"C+	c #4B4BCF",
"D+	c #4B4BC0",
"E+	c #6161AE",
"F+	c #4B4BB3",
"G+	c #6C6CBB",
"H+	c #6161C2",
"I+	c #4B4BC5",
"J+	c #7D7DB0",
"K+	c #7272B7",
"L+	c #4B4BC2",
"M+	c #4B4BCC",
"N+	c #5656CC",
"O+	c #6161C9",
"P+	c #9393A6",
"Q+	c #4B4BCA",
"R+	c #8888A5",
"S+	c #5656C8",
"T+	c #7777B3",
"U+	c #6767C0",
"V+	c #8D8DAA",
"W+	c #4B4BD6",
"X+	c #4B4BD0",
"Y+	c #7272AF",
"Z+	c #4B4BB4",
"`+	c #6161A7",
" @	c #4B4BA8",
".@	c #6C6CB8",
"+@	c #5151D3",
"@@	c #7D7DB2",
"#@	c #7777B7",
"$@	c #4B4BCD",
"%@	c #5656CB",
"&@	c #5151CF",
"*@	c #5151D7",
"=@	c #4B4BD1",
"-@	c #7272AC",
";@	c #4B4B78",
">@	c #7272A8",
",@	c #6767B3",
"'@	c #5151C0",
")@	c #5C5CBD",
"!@	c #7272A9",
"~@	c #8282A3",
"{@	c #61619A",
"]@	c #6C6CAE",
"^@	c #4B4BC1",
"/@	c #5C5CC4",
"(@	c #8D8DA9",
"_@	c #7D7DB1",
":@	c #6C6CB7",
"<@	c #5656C7",
"[@	c #7272BA",
"}@	c #5656C2",
"|@	c #6C6CB3",
"1@	c #4B4BAC",
"2@	c #7272A3",
"3@	c #72729A",
"4@	c #4B4B9B",
"5@	c #7777A0",
"6@	c #5C5CA9",
"7@	c #5C5CAE",
"8@	c #6161A0",
"9@	c #5C5C9D",
"0@	c #93939E",
"a@	c #61618F",
"b@	c #5C5CBB",
"c@	c #9393A4",
"d@	c #8D8DA8",
"e@	c #7D7DAF",
"f@	c #5656B7",
"g@	c #5151B1",
"h@	c #7272A2",
"i@	c #4B4B9A",
"j@	c #727298",
"k@	c #888898",
"l@	c #555555",
"m@	c #4B4B77",
"n@	c #5151BB",
"o@	c #8D8DA4",
"p@	c #6C6CAB",
"q@	c #6C6CB1",
"r@	c #4B4B6A",
"s@	c #72729B",
"t@	c #7777A4",
"u@	c #5C5CA0",
"v@	c #404040",
"w@	c #303030",
"x@	c #494949",
"y@	c #2D2D2D",
"z@	c #414141",
"A@	c #353535",
"B@	c #3F3F3F",
"C@	c #313131",
"D@	c #3E3E3E",
"E@	c #242424",
"F@	c #3A3A3A",
"G@	c #3D3D3D",
"H@	c #292929",
"I@	c #333333",
"J@	c #373737",
"K@	c #3C3C3C",
"L@	c #3B3B3B",
"          . + @ # $ % % & & & & & & & & & & & & & & & & & & & & & & & & & & & & & & & & & & & & & & & & & & & & & & & & & & & & & & & & & & & & & & & & & & & & & & & & & & & & & & & & & & & & & & & & & & & & & * = - ; > , ' & ) ! ",
"        ~ # ' % * ) { = ] ] ] ] ] ] ] ] ] ] ] ] ] ] ] ] ] ] ] ] ] ] ] ] ] ] ] ] ] ] ] ] ] ] ] ] ] ] ] ] ] ] ] ] ] ] ] ] ] ] ] ] ] ] ] ] ] ] ] ] ] ] ] ] ] ] ] ] ] ] ] ] ] ] ] ] ] ] ] ] ] ] ] ] ] ] ] ] ] ] ] ] ] ^ / ( > _ , ' & ) ! ",
"      : % $ * { ^ - # / / / / / / / / / / / / / / / / / / / / / / / / / / / / / / / / / / / / / / / / / / / / / / / / / / / / / / / / / / / / / / / / / / / / / / / / / / / / / / / / / / / / / / / / / / / / / / < [ } _ | , ' & ) ! ",
"    1 ' % ) ^ / < 2 3 3 [ [ [ 4 4 4 4 4 4 4 4 4 4 4 4 4 4 4 4 4 4 4 4 4 4 4 4 4 4 4 4 4 4 4 4 4 4 4 4 4 4 4 4 4 4 4 4 4 4 4 4 4 4 4 4 4 4 4 4 4 4 4 4 4 4 4 4 4 4 4 4 4 4 4 4 4 4 4 4 4 4 4 4 4 4 4 4 4 4 4 4 4 4 @ 5 _ | 6 , ' & ) ! ",
"  7 % * = 8 ; 4 9 } 0 0 5 5 5 5 5 5 5 5 5 5 5 5 5 5 5 5 5 5 5 5 5 5 5 5 5 5 5 5 5 5 5 5 5 5 5 5 5 5 5 5 5 5 5 5 5 5 5 5 5 5 5 5 5 5 5 5 5 5 5 5 5 5 5 5 5 5 5 5 5 5 5 5 5 5 5 5 5 5 5 5 5 5 5 5 5 5 5 5 5 5 5 5 5 a 1 b 6 : , ' & ) ! ",
"c d e ] / 3 9 0 f a a _ _ _ _ _ _ _ _ _ _ _ _ _ _ _ _ _ _ _ _ _ _ _ _ _ _ _ _ _ _ _ _ _ _ _ _ _ _ _ _ _ _ _ _ _ _ _ _ _ _ _ _ _ _ _ _ _ _ _ _ _ _ _ _ _ _ _ _ _ _ _ _ _ _ _ _ _ _ _ _ _ _ _ _ _ _ _ _ _ _ _ _ _ _ 1 | g h i , ' & ) ! ",
"+ ) ! / 3 > f a a _ _ _ _ _ _ _ _ _ _ _ _ _ _ _ _ _ _ _ _ _ _ _ _ _ _ _ _ _ _ _ _ _ _ _ _ _ _ _ _ _ _ _ _ _ _ _ _ _ _ _ _ _ _ _ _ _ _ _ _ _ _ _ _ _ _ _ _ _ _ _ _ _ _ _ _ _ _ _ _ _ _ _ _ _ _ _ _ _ _ _ _ _ _ _ _ 1 | g h i , ' & ) ! ",
"j ! 8 ; @ 5 a a _ _ _ _ _ _ _ _ _ _ _ _ _ _ _ _ _ _ _ _ _ _ _ _ _ _ _ _ _ _ _ _ _ _ _ _ _ _ _ _ _ _ _ k k l m m m l n k _ _ _ _ _ _ _ _ _ _ _ _ _ _ _ _ _ _ _ _ _ _ _ _ _ _ _ _ _ _ _ _ _ _ _ _ _ _ _ _ _ _ _ _ _ 1 | g h i , ' & ) ! ",
"( 8 < [ } j a _ _ _ _ _ _ _ _ _ _ _ _ _ _ _ _ _ _ _ _ k m o p q r q p o m n _ _ _ _ k n l l l n k k _ k m s t p t o m n _ _ _ _ _ _ _ _ _ _ _ _ _ _ _ _ _ _ _ _ _ _ _ _ _ _ _ _ _ _ _ _ _ _ _ _ _ _ _ _ _ _ _ _ _ 1 | g h i , ' & ) ! ",
"u / 2 @ 5 a _ _ _ _ _ _ _ _ _ _ _ _ _ _ _ _ _ _ _ _ k s v w x y z A B C r o l k _ k m o p v v t s l k n s p q D r p o l _ _ _ _ _ _ _ _ _ _ _ _ _ _ _ _ _ _ _ _ _ _ _ _ _ _ _ _ _ _ _ _ _ _ _ _ _ _ _ _ _ _ _ _ _ 1 | g h i , ' & ) ! ",
"# < 3 9 f a _ _ _ _ _ _ _ _ _ _ _ _ _ _ _ _ _ _ _ _ m v E z F G H I J K B C D v p r w L M A y B N C D O E P B y M L w O r v v p t t p v q v p t t t p p p p t t p p p p t s l k _ _ _ _ _ _ _ _ _ _ _ _ _ _ _ _ _ 1 | g h i , ' & ) ! ",
"/ ; [ > f _ _ _ _ _ _ _ _ _ _ _ _ _ _ _ _ _ _ _ _ _ o C Q J R S T U V W X K Q Y B z K Z J I I J Z K Q `  ...+.@.#.$.` Q y Y B x N N x B Y Y B P N P M B B B x P x B M P E r o l k _ _ _ _ _ _ _ _ _ _ _ _ _ _ _ _ 1 | g h i , ' & ) ! ",
"u ; 4 > f _ _ _ _ _ _ _ _ _ _ _ _ _ _ _ _ _ _ _ _ _ p B %.&.@.@.@.@.*.=.&.-.I J X I ;.>.V ,.'.V ).W H !.-.~.{.].~.H I I ^.J J X  ./.X J J ^.J Z /...%.X J J X ..X %...(.z L q s k _ _ _ _ _ _ _ _ _ _ _ _ _ _ _ _ 1 | g h i , ' & ) ! ",
"< 2 4 > j _ _ _ _ _ _ _ _ _ _ _ _ _ _ _ _ _ _ _ _ _ r _.:.<.@.[.}.|.1.2.3.4.<.U S 5.6.7.8.9.0.7.a.<.S S T b.<.5.T c.d.d.e.f.V g.h.h.&.f.f.V i.g.R j.S S U k.i.f.V f.h.!.F y O o n _ _ _ _ _ _ _ _ _ _ _ _ _ _ _ _ 1 | g h i , ' & ) ! ",
"< 2 4 > j _ _ _ _ _ _ _ _ _ _ _ _ _ _ _ _ _ _ _ _ _ O $.{.3.@.l.m.n.o.@.p.q.r.s.@.@.t.u.v.@.@.@.2.w.@.x.y.@.z.@.A.B.C.D.@.@.E.F.G.G.H.I.@.E.@.J.K.L.M.@.@.M.N.K.O.P.Q.@.R.K C p l _ _ _ _ _ _ _ _ _ _ _ _ _ _ _ _ 1 | g h i , ' & ) ! ",
"< 2 4 > j _ _ _ _ _ _ _ _ _ _ _ _ _ _ _ _ _ _ _ _ _ S./.R K.@.T.U.V.W.X.Y.Z.`. +.+++`.@+#+$+[.u.%+&+@.M.*+&+=+@.-+;+>+,+'+q.)+!+w.~+@.{+]+^+@./+;+(+_+:+<+_+[+}+|+y.1+i.2+` O o n _ _ _ _ _ _ _ _ _ _ _ _ _ _ _ _ 1 | g h i , ' & ) ! ",
"< 2 4 > j _ _ _ _ _ _ _ _ _ _ _ _ _ _ _ _ _ _ _ _ _ S.Z f.3+@.@.@.@.4+5+6+7+8+9+0+a+b+c+d+e+f+.+g+h+@.i+j+k+u.@.l+m+@.++g+g+n+o+g+t.p+u.=+.+@.q+r+@.s+t+t+u+v+w+x+,+y+e.I y r s k _ _ _ _ _ _ _ _ _ _ _ _ _ _ _ _ 1 | g h i , ' & ) ! ",
"< 2 4 > j _ _ _ _ _ _ _ _ _ _ _ _ _ _ _ _ _ _ _ _ _ S. .).z+@.l.n.A+A+t+B+l.@.@.@.@.@.c+C+$+[.D+h+}+@.E+F+F+g+@.G+H+@.d+.+I+f+J+I+(+K+I+L+M+@.N+O+@.@.@.@.@.P+Q+x+R+a.).%.P t l k _ _ _ _ _ _ _ _ _ _ _ _ _ _ _ _ 1 | g h i , ' & ) ! ",
"< 2 4 > j _ _ _ _ _ _ _ _ _ _ _ _ _ _ _ _ _ _ _ _ _ O K W 5.@.n+#+S+`.T+M+U+V+W+X+C+C+Y.D+>+Y+j+Z+'+@.`+ @ @F+@..@S+@.+@M+}.o.@@Q+J+#@$@Q+6+@.%@&@@.*@=@=@6+Q+g+-@D.S !.K w m k _ _ _ _ _ _ _ _ _ _ _ _ _ _ _ _ _ 1 | g h i , ' & ) ! ",
"< 2 4 > j _ _ _ _ _ _ _ _ _ _ _ _ _ _ _ _ _ _ _ _ _ r Q ;@V @.>@Z+k+,@@.Y+'@`.)@g+h+|+!@w.~@9.B.K.z+@.{@T T 3.@.]@^@v+#@M+/@(@_@I+:@`.<@#+[@@.}@.+(+n+g+u.|@!+1@2@Q.~. .M p _ _ _ _ _ _ _ _ _ _ _ _ _ _ _ _ _ _ _ 1 | g h i , ' & ) ! ",
"< ( 4 } j _ _ _ _ _ _ _ _ _ _ _ _ _ _ _ _ _ _ _ _ _ p x  .:.@.3@5.4@3.5@@.6@7@2.@.@.P.8@a.9@0@@.0@<.@.a@].h.V @.H.]+b@c@@.`.d@ +;+g+e@@.@.$+@.f@'+g@s.@.@.y.h@i@j@k@J z E o _ _ _ _ _ _ _ _ _ _ _ _ _ _ _ _ _ _ _ 1 | g h i , ' & ) ! ",
"< 3 l@} j _ _ _ _ _ _ _ _ _ _ _ _ _ _ _ _ _ _ _ _ _ o S.B K ^.G I !.~.{.R V S S j.f.g.].{.{.).).h.~.!.J F ..m@;.e.4.3+j+h+n@o@p@B.1@&+=+;+q@2.7.4.k.c.e.V j.R -.H X Q L r m _ _ _ _ _ _ _ _ _ _ _ _ _ _ _ _ _ _ _ 1 | g h i , ' & ) ! ",
"; 3 @ } j _ _ _ _ _ _ _ _ _ _ _ _ _ _ _ _ _ _ _ _ _ m p O L y A z Q r@(.Z F J J X Z Z  .(. .....Z  .r@z Y B z  .;@).s@@.@.@.t@3.4.i@@.@.@.*.u@V -.m@X Z F X /.r@Q Y C r o l _ _ _ _ _ _ _ _ _ _ _ _ _ _ _ _ _ _ _ 1 | g h i , ' & ) ! ",
"4 4 9 0 j _ _ _ _ _ _ _ _ _ _ _ _ _ _ _ _ _ _ _ _ _ k m t v D O O O w E N P B y Y B M P N N x M x N E S.D r O N A Z :.&.i.i.f.h.-.W R V i.V h.J K A B B B Y x L C O p o m k _ _ _ _ _ _ _ _ _ _ _ _ _ _ _ _ _ _ _ 1 | g h i , ' & ) ! ",
"j @ > 5 a _ _ _ _ _ _ _ _ _ _ _ _ _ _ _ _ _ _ _ _ _ _ k n l m m m m m s o p p q q v p p t t p p p p o s m m s p O P _.Z %.%...$.` r@Z X J X $.B C D q v q q p t o m l n k _ _ _ _ _ _ _ _ _ _ _ _ _ _ _ _ _ _ _ _ 1 | g h i , ' & ) ! ",
"v@} 0 f a _ _ _ _ _ _ _ _ _ _ _ _ _ _ _ _ _ _ _ _ _ _ _ _ _ _ _ _ _ _ _ _ _ _ _ _ _ _ _ _ _ _ _ _ _ _ _ _ _ _ n s v S.L P P L C w C L P P N w q o l k _ _ _ _ _ _ _ _ _ _ _ _ _ _ _ _ _ _ _ _ _ _ _ _ _ _ _ _ _ _ 1 | g h i , ' & ) ! ",
"w@f a _ _ 1 _ _ _ _ _ _ _ _ _ _ _ _ _ _ _ _ _ _ _ _ _ _ _ _ _ _ _ _ _ _ _ _ _ _ _ _ _ _ _ _ _ _ _ _ _ _ _ _ _ k l m t p v p p o o t p v v p o m n _ _ _ _ _ _ _ _ _ _ _ _ _ _ _ _ _ _ _ _ _ _ _ _ _ _ _ _ _ _ _ _ 1 | g h i , ' & ) ! ",
". 6 1 x@x@x@1 1 _ _ _ _ _ _ _ _ _ _ _ _ _ _ _ _ _ _ _ _ _ _ _ _ _ _ _ _ _ _ _ _ _ _ _ _ _ _ _ _ _ _ _ _ _ _ _ _ _ _ _ _ _ _ _ _ _ _ _ _ _ _ _ _ _ _ _ _ _ _ _ _ _ _ _ _ _ _ _ _ _ _ _ _ _ _ _ _ _ _ _ _ _ _ _ _ _ 1 | g h i , ' & ) ! ",
"  y@| b b b b | x@x@x@x@x@x@x@x@x@x@x@x@x@x@x@x@x@x@x@x@x@x@x@x@x@x@x@x@x@x@x@x@x@x@x@x@x@x@x@x@x@x@x@x@x@x@x@x@x@x@x@x@x@x@x@x@x@x@x@x@x@x@x@x@x@x@x@x@x@x@x@x@x@x@x@x@x@x@x@x@x@x@x@x@x@x@x@x@x@x@x@x@x@x@x@x@x@| g 6 : z@, ' & ) ! ",
"    A@g 6 6 6 6 6 g g g g g g g g g g g g g g g g g g g g g g g g g g g g g g g g g g g g g g g g g g g g g g g g g g g g g g g g g g g g g g g g g g g g g g g g g g g g g g g g g g g g g g g g g g g g g g g g 6 : i v@B@, ' & ) ! ",
"      C@i : i i i i i i i i i i i i i i i i i i i i i i i i i i i i i i i i i i i i i i i i i i i i i i i i i i i i i i i i i i i i i i i i i i i i i i i i i i i i i i i i i i i i i i i i i i i i i i i i i i i i v@B@D@D@, ' & ) ! ",
"        E@F@v@v@B@B@B@B@B@B@B@B@B@B@B@B@B@B@B@B@B@B@B@B@B@B@B@B@B@B@B@B@B@B@B@B@B@B@B@B@B@B@B@B@B@B@B@B@B@B@B@B@B@B@B@B@B@B@B@B@B@B@B@B@B@B@B@B@B@B@B@B@B@B@B@B@B@B@B@B@B@B@B@B@B@B@B@B@B@B@B@B@B@B@B@B@B@B@B@B@B@D@G@G@G@G@, ' & ) ! ",
"            H@I@J@G@K@K@L@L@L@L@L@L@L@L@L@L@L@L@L@L@L@L@L@L@L@L@L@L@L@L@L@L@L@L@L@L@L@L@L@L@L@L@L@L@L@L@L@L@L@L@L@L@L@L@L@L@L@L@L@L@L@L@L@L@L@L@L@L@L@L@L@L@L@L@L@L@L@L@L@L@L@L@L@L@L@L@L@L@L@L@L@L@L@L@L@L@L@L@L@L@L@L@L@G@, ' & ) ! "};
