/* XPM */ 
static const char * right_xpm[] = {
"15 15 27 1",
" 	c None",
"!	c #4C484C",
"#	c #6E6D6E",
"$	c #4E4A4E",
"%	c #7E7D7E",
"&	c #A0A0A0",
"'	c #989898",
"(	c #807F80",
")	c #5A575A",
"*	c #636263",
"+	c #909090",
",	c #9F9F9F",
"-	c #8C8C8C",
".	c #5C5A5C",
"0	c #818081",
"1	c #9B9B9B",
"2	c #6B6A6B",
"3	c #8E8E8E",
"4	c #575457",
"5	c #7F7E7F",
"6	c #979797",
"7	c #838283",
"8	c #5D5C5D",
"9	c #919191",
":	c #727072",
";	c #504C50",
"<	c #787778",
"!!!!!!!!!!!!!!!",
"!!!!!!!!!!!!!!!",
"!!!!!!!!!!!!!!!",
"!!!!!!!!!!!!!!!",
"!!!##$!!!!!!!!!",
"!!!%&'()!!!!!!!",
"!!!*+&&,-#$!!!!",
"!!!!!.01&&'!!!!",
"!!!!!$23&&&!!!!",
"!!!456&&178!!!!",
"!!!%&&9:;!!!!!!",
"!!!<78!!!!!!!!!",
"!!!!!!!!!!!!!!!",
"!!!!!!!!!!!!!!!",
"!!!!!!!!!!!!!!!"};