/* XPM */ 
static const char * setup_hit_xpm[] = {
"71 27 177 2",
"  	c None",
"! 	c #4D4D4D",
"# 	c #4E4E4E",
"$ 	c #4D4D4E",
"% 	c #3F3F3F",
"& 	c #363636",
"' 	c #373737",
"( 	c #5B5B5B",
") 	c #353535",
"* 	c #5B5C5C",
"+ 	c #5C5C5C",
", 	c #5C5D5D",
"- 	c #5D5E5E",
". 	c #5E5E5F",
"0 	c #5D5D5E",
"1 	c #5F6061",
"2 	c #616163",
"3 	c #626364",
"4 	c #616263",
"5 	c #606162",
"6 	c #5F5F60",
"7 	c #4C4C4C",
"8 	c #646567",
"9 	c #666769",
": 	c #66686A",
"; 	c #606061",
"< 	c #5E5F60",
"= 	c #626365",
"> 	c #656668",
"? 	c #696B6E",
"@ 	c #6B6D71",
"A 	c #6C6E72",
"B 	c #6A6C70",
"C 	c #67696C",
"D 	c #636465",
"E 	c #686A6C",
"F 	c #6A6C6F",
"G 	c #797C7F",
"H 	c #969697",
"I 	c #9E9E9E",
"J 	c #8E8F90",
"K 	c #717375",
"L 	c #6E7074",
"M 	c #929294",
"N 	c #858789",
"O 	c #6D6F73",
"P 	c #67696B",
"Q 	c #656669",
"R 	c #707376",
"S 	c #9B9B9C",
"T 	c #949597",
"U 	c #797D83",
"V 	c #787B82",
"W 	c #808387",
"X 	c #929394",
"Y 	c #7B7D80",
"Z 	c #6D7073",
"[ 	c #6F7175",
"] 	c #717378",
"^ 	c #73777C",
"_ 	c #74787D",
"` 	c #75797E",
"a 	c #949496",
"b 	c #898A8D",
"c 	c #73767B",
"d 	c #707377",
"e 	c #66676A",
"f 	c #818489",
"g 	c #7B7F85",
"h 	c #797D84",
"i 	c #75787E",
"j 	c #787B80",
"k 	c #949596",
"l 	c #959698",
"m 	c #7E8389",
"n 	c #8C8F92",
"o 	c #99999A",
"p 	c #72757A",
"q 	c #7A7C7E",
"r 	c #8B8C8D",
"s 	c #848688",
"t 	c #707277",
"u 	c #7E8184",
"v 	c #909293",
"w 	c #8C8D8F",
"x 	c #717478",
"y 	c #979899",
"z 	c #8A8C90",
"{ 	c #7B7F86",
"| 	c #7A7E84",
"} 	c #787C82",
"~ 	c #97989A",
" !	c #80858C",
"!!	c #98999B",
"#!	c #929497",
"$!	c #7F848C",
"%!	c #969799",
"&!	c #8D9093",
"'!	c #7A7E85",
"(!	c #777B81",
")!	c #7E8084",
"*!	c #8D8E90",
"+!	c #87898C",
",!	c #8B8D90",
"-!	c #808288",
".!	c #828385",
"0!	c #808287",
"1!	c #909295",
"2!	c #7D8289",
"3!	c #80858B",
"4!	c #888C93",
"5!	c #81868E",
"6!	c #838890",
"7!	c #8F9297",
"8!	c #9A9B9C",
"9!	c #96989A",
":!	c #8D9094",
";!	c #7C8087",
"<!	c #818488",
"=!	c #8F9193",
">!	c #8A8C8F",
"?!	c #84878C",
"@!	c #7C8188",
"A!	c #919395",
"B!	c #6B6D70",
"C!	c #717479",
"D!	c #777A80",
"E!	c #8F9195",
"F!	c #888C92",
"G!	c #83868B",
"H!	c #8B8D91",
"I!	c #86898F",
"J!	c #7E838B",
"K!	c #7D8189",
"L!	c #8F9194",
"M!	c #6F7276",
"N!	c #9A9A9B",
"O!	c #919396",
"P!	c #848990",
"Q!	c #80858D",
"R!	c #7F848B",
"S!	c #84878B",
"T!	c #8C8E92",
"U!	c #878A90",
"V!	c #969798",
"W!	c #7E7F81",
"X!	c #919293",
"Y!	c #767A80",
"Z!	c #888B8F",
"[!	c #87898D",
"]!	c #909194",
"^!	c #919294",
"_!	c #74777C",
"`!	c #9B9C9C",
"a!	c #8A8B8F",
"b!	c #878A8D",
"c!	c #999A9B",
"d!	c #85898E",
"e!	c #84878D",
"f!	c #888A8E",
"g!	c #686A6D",
"h!	c #4B4B4B",
"i!	c #727475",
"j!	c #8A8B8C",
"k!	c #85888B",
"l!	c #888A8C",
"m!	c #7B7E82",
"n!	c #989999",
"o!	c #989899",
"p!	c #7F8185",
"q!	c #969698",
"r!	c #898B8F",
"s!	c #838588",
"t!	c #7B7C7F",
"u!	c #6E7175",
"v!	c #3E3E3E",
"w!	c #363637",
"! ! ! ! ! ! # ! ! ! ! ! # ! ! ! # ! ! ! ! ! # ! ! # ! ! ! # # ! ! ! ! ! # $ ! ! ! ! ! ! ! ! ! ! ! ! # ! ! ! # ! # # # # ! ! # ! # ! ! # # ! ! ",
"# % & & & & ' & & & & & & & & & & & & & & ' & & & & & & & & & ' ' & & & & & & & & & & & & ' ' ' & & ' & ' & & & ' & & & ' & & & & & & & % ! ! ",
"! & ( ( ( ( ( ( ( ( ( ( ( ( ( ( ( ( ( ( ( ( ( ( ( ( ( ( ( ( ( ( ( ( ( ( ( ( ( ( ( ( ( ( ( ( ( ( ( ( ( ( ( ( ( ( ( ( ( ( ( ( ( ( ( ( ( ( & ! ! ",
"! & ( ( ( ( ( ( ( ( ( ( ( ( ( ( ( ( ( ( ( ( ( ( ( ( ( ( ( ( ( ( ( ( ( ( ( ( ( ( ( ( ( ( ( ( ( ( ( ( ( ( ( ( ( ( ( ( ( ( ( ( ( ( ( ( ( ( & ! ! ",
"! & ( ( ( ( ( ( ( ( ( ( ( ( ( ( ( ( ( ( ( ( ( ( ( ( ( ( ( ( ( ( ( ( ( ( ( ( ( ( ( ( ( ( ( ( ( ( ( ( ( ( ( ( ( ( ( ( ( ( ( ( ( ( ( ( ( ( & ! ! ",
"! ) ( ( ( ( ( ( ( ( ( ( ( ( ( * + , - . . . 0 , + * ( ( ( * * + + + * * ( ( ( ( ( ( ( ( ( ( ( ( ( ( ( ( ( ( ( ( ( ( ( ( ( ( ( ( ( ( ( ( ) ! ! ",
"! & ( ( ( ( ( ( ( ( ( ( ( ( + 0 . 1 2 3 3 4 5 6 - + * ( * + , 0 - - 0 , + ( ( ( ( ( ( ( ( ( ( ( ( ( ( ( ( ( ( ( ( ( ( ( ( ( ( ( ( ( ( ( ) ! 7 ",
"! & ( ( ( ( ( ( ( ( ( ( ( * 0 6 2 8 9 : : 9 8 4 ; < . - . 1 ; 4 = = 4 ; < - , + + + , , 0 - . . - 0 , + * ( ( ( ( ( ( ( ( ( ( ( ( ( ( ( & ! ! ",
"! & ( ( ( ( ( ( ( ( ( ( ( , < 4 > ? @ A A B C > D 3 3 4 D 8 9 : E E : > = 5 1 < < 6 6 1 2 3 3 3 4 5 6 - + * ( ( ( ( ( ( ( ( ( ( ( ( ( ( & ! ! ",
"7 & ( ( ( ( ( ( ( ( ( ( ( 0 5 > F G H I I I J K C : : : E B A L M N O B P > D 3 4 D D 8 Q P C P : > 3 1 - + ( ( ( ( ( ( ( ( ( ( ( ( ( ( & 7 7 ",
"! & ( ( ( ( ( ( ( ( ( ( ( - 3 P R S T U V W X Y Z L [ [ ] ^ _ ` a b c d A F C e 9 C E ? @ L L Z O B e D 1 0 * ( ( ( ( ( ( ( ( ( ( ( ( ( & 7 ! ",
"7 ) ( ( ( ( ( ( ( ( ( ( * . = C Y I f g h V i c c j k I I l m n I I I o p I q @ @ r s t u I v I I w @ e 3 < + ( ( ( ( ( ( ( ( ( ( ( ( ( ) 7 7 ",
"7 ) ( ( ( ( ( ( ( ( ( ( * . = E x I y z { g | } U l ~ m  !!!#!$!%!&!'!(!_ I )!d d *!+!_ f I ,!} -!I .!? 8 ; + ( ( ( ( ( ( ( ( ( ( ( ( ( & 7 ! ",
"7 ) ( ( ( ( ( ( ( ( ( ( * . 3 P L 0!y I I I 1!2!3!I 4!5!6!7!8!5!9!:!;!h (!I <!` i =!>!U ?!I @!;!g A!w B!9 2 , ( ( ( ( ( ( ( ( ( ( ( ( ( & 7 7 ",
"7 ) ( ( ( ( ( ( ( ( ( ( * - 2 9 B!C!D!'!;!E!I :!F!I I I I I S 5!%!:!{ U } I G!} } 1!H!{ I!I J!K!;!L!X A e 2 , ( ( ( ( ( ( ( ( ( ( ( ( ( ) 7 7 ",
"7 ) ( ( ( ( ( ( ( ( ( ( * 0 5 8 ? M!_ V | @!N!O! !I P!Q!Q!5!R!@!l H!U (!(!I S!h h 1!T!;!U!I R!K!;!V!b B!9 5 , ( ( ( ( ( ( ( ( ( ( ( ( ( ) 7 7 ",
"7 ) ( ( ( ( ( ( ( ( ( ( * 0 ; 8 W!X!u Y!} Z!I [!'!l T!g g z ]!V ^!a i _!_ `!a!V b!c!H!g d!I e!g f!I Y g!8 1 + ( ( ( ( ( ( ( ( ( ( ( ( ( ) 7 7 ",
"h!) ( ( ( ( ( ( ( ( ( ( * 0 1 D i!j!I I I o k!_!_!j V!I I `!l!c m!n!I o!p p!I I q!V!r!(!S!I c!I `!s!B 9 4 . + ( ( ( ( ( ( ( ( ( ( ( ( ( ) 7 7 ",
"7 ) ( ( ( ( ( ( ( ( ( ( * , . 2 8 : F @ A A A @ @ A Z O Z Z A @ B!@ B!B!@ O Z Z L d ] C!p!I _ p M!@ 9 3 6 0 * ( ( ( ( ( ( ( ( ( ( ( ( ( ) 7 h!",
"h!) ( ( ( ( ( ( ( ( ( ( ( + - 6 4 8 9 : : e 9 > 8 > Q 9 9 9 9 > Q Q Q 9 9 : P P C ? B @ t!I u!A ? 9 4 1 - + ( ( ( ( ( ( ( ( ( ( ( ( ( ( ) 7 7 ",
"7 ) ( ( ( ( ( ( ( ( ( ( ( * , - 6 5 3 3 3 4 5 ; 1 ; 2 4 4 4 4 2 2 2 2 2 2 3 3 3 = 8 8 Q P g!P 9 8 4 < 0 + * ( ( ( ( ( ( ( ( ( ( ( ( ( ( ) h!h!",
"h!) ( ( ( ( ( ( ( ( ( ( ( ( * + , 0 . . . - 0 , , 0 0 - . - - 0 0 0 - - - - . . . 6 1 5 3 = 4 5 1 - + * ( ( ( ( ( ( ( ( ( ( ( ( ( ( ( ( ) h!h!",
"7 ) ( ( ( ( ( ( ( ( ( ( ( ( ( ( ( ( ( ( ( ( ( ( ( ( ( ( ( ( ( ( ( ( ( ( ( ( ( ( ( + , 0 - . - 0 + * ( ( ( ( ( ( ( ( ( ( ( ( ( ( ( ( ( ( ) h!h!",
"7 v!) ) ) ) ) ) ) ) ) ) ) ) ) ) ) ) ) ) ) ) ) ) ) ) ) ) ) ) ) ) ) ) ) ) ) ) ) ) ) ) & & w!w!w!& & ) ) ) ) ) ) ) ) ) ) ) ) ) ) ) ) ) ) ) v!h!h!",
"h!h!7 7 h!h!h!h!7 7 h!h!h!h!7 7 h!h!h!h!h!7 7 h!h!h!h!7 h!h!h!7 h!h!h!h!7 7 7 h!h!7 h!7 h!h!h!h!h!h!h!h!h!h!h!h!h!h!h!h!7 h!7 h!7 h!h!7 h!h!h!",
"h!h!7 h!h!h!h!h!7 h!h!7 7 h!7 h!h!7 h!7 h!h!7 h!h!h!h!h!h!h!h!h!h!h!h!h!h!h!h!h!h!7 7 h!h!h!h!7 h!h!7 h!h!h!h!h!h!h!h!h!h!h!h!h!h!h!h!h!h!h!h!",
"h!h!h!h!h!h!h!h!h!h!h!h!h!7 7 h!h!h!h!h!h!h!h!h!h!h!h!h!h!h!h!h!h!7 h!h!h!7 h!h!h!h!h!h!h!h!h!7 h!h!h!h!h!h!h!h!h!h!h!7 h!h!h!h!h!h!h!h!h!7 h!"};