/* XPM */ 
static const char * velcontrol_xpm[] = {
"60 22 53 1",
" 	c None",
"!	c #383838",
"#	c #EFEBDE",
"$	c #2B272B",
"%	c #2B222B",
"&	c #3B353B",
"'	c #2E272E",
"(	c #353335",
")	c #444244",
"*	c #464446",
"+	c #3D3B3D",
",	c #383338",
"-	c #332733",
".	c #504C50",
"0	c #5A595A",
"1	c #383538",
"2	c #444044",
"3	c #4A484A",
"4	c #595759",
"5	c #3B383B",
"6	c #504E50",
"7	c #505050",
"8	c #403D40",
"9	c #484648",
":	c #545454",
";	c #595959",
"<	c #352E35",
"=	c #332E33",
">	c #4A4A4A",
"?	c #555555",
"@	c #555455",
"A	c #423D42",
"B	c #484448",
"C	c #424042",
"D	c #2E2B2E",
"E	c #4E4C4E",
"F	c #332B33",
"G	c #525252",
"H	c #3D383D",
"I	c #4C4A4C",
"J	c #484848",
"K	c #545254",
"L	c #575557",
"M	c #444444",
"N	c #464246",
"O	c #4E4E4E",
"P	c #524E52",
"Q	c #4E4A4E",
"R	c #4C484C",
"S	c #382E38",
"T	c #525052",
"U	c #4C4C4C",
"V	c #3B333B",
"!##########################################################!",
"#$$$$$$$$$$$$$$$$$$$$$$$$$$$$$$$$$$$$$$$$$$$$$$$$$$$$$$$$$$#",
"#$%%%%%%%%%%%%%%%%%%%%%%%%%%%%%%%%%%%%%%%%%%%%%%%%%%%%%%%%%#",
"#$%%%%%%%%%%%%%%%%%%%%%%%%%%%%%%%%%%%%%%%%%%%%%%%%%%%%%%%%%#",
"#$%%%%%%%%%%%%%%%%%%%%%%%%%%%%%%%%%%%%%%%%%%%%%%%%%%%%%%%%%#",
"#$%%%%%%%%%%%%%%%%%%%%%%%%%%%%%%%%%%%%%%%%%%%%%%%%%%%%%%%%%#",
"#$%%%%%%%%%%%%%%%%%%%%%%%%%%%%%%%%%%%%%%%%%%%%%%%%%%%%%%%%%#",
"#$&&'%%'&&%%%%%%&&%%%%%()*+%%%%%%%%%%%%%%%%%%%%%%%%%%%%,&-%#",
"#$.01%%203%%%%%%04%%%'30000%%%%%%%%%%%%%56)%%%%%%%%%%%%70,%#",
"#$809%%:;<=>7)'$0?%%%)0@818%1>6A%=B8)7CD606&&BCE%F97BD%60<%#",
"#$F;G%H0ID??J0C'0:%%%K01%%%1;LK0M&0;000C000NB000D@;606%O0F%#",
"#$%P0FQ0180E106-07%%%00%%%%>0+'0L10:'K0&I08%B0R%80J%G0ST0'%#",
"#$%20M0P%*07BBAF0O%%%@01%%%701$0;50>%70&U05%M05%*0)%60&:0'%#",
"#$%=0;0H%+0T1HD<0.%%%90?9N9B0J)0.80M%70&70*<30&%50T54L$?0$%#",
"#$%%:0:%%'7000'V07%%%'9;006D600:<)0)%70&900+E0&%%J004+%40%%#",
"#$%%%%%%%%%<&F%%%%%%%%%'&,%%%S,'%%%%%%%%%,S%%%%%%%F&D%%%%%%#",
"#$%%%%%%%%%%%%%%%%%%%%%%%%%%%%%%%%%%%%%%%%%%%%%%%%%%%%%%%%%#",
"#$%%%%%%%%%%%%%%%%%%%%%%%%%%%%%%%%%%%%%%%%%%%%%%%%%%%%%%%%%#",
"#$%%%%%%%%%%%%%%%%%%%%%%%%%%%%%%%%%%%%%%%%%%%%%%%%%%%%%%%%%#",
"#$%%%%%%%%%%%%%%%%%%%%%%%%%%%%%%%%%%%%%%%%%%%%%%%%%%%%%%%%%#",
"#$%%%%%%%%%%%%%%%%%%%%%%%%%%%%%%%%%%%%%%%%%%%%%%%%%%%%%%%%%#",
"!##########################################################!"};