/* XPM */ 
static const char * velcurve_xpm[] = {
"60 22 50 1",
" 	c None",
"!	c #383838",
"#	c #EFEBDE",
"$	c #2B272B",
"%	c #2B222B",
"&	c #3B353B",
"'	c #332E33",
"(	c #352E35",
")	c #332733",
"*	c #383538",
"+	c #444244",
",	c #464446",
"-	c #403D40",
".	c #4C4A4C",
"0	c #5A595A",
"1	c #4A464A",
"2	c #525252",
"3	c #595759",
"4	c #545254",
"5	c #403B40",
"6	c #555455",
"7	c #3D383D",
"8	c #2E272E",
"9	c #4A484A",
":	c #505050",
";	c #555555",
"<	c #3D3B3D",
"=	c #484448",
">	c #424042",
"?	c #383338",
"@	c #575557",
"A	c #524E52",
"B	c #484648",
"C	c #353335",
"D	c #3B383B",
"E	c #545454",
"F	c #575757",
"G	c #484848",
"H	c #4C484C",
"I	c #2E2B2E",
"J	c #4E4E4E",
"K	c #525052",
"L	c #595959",
"M	c #464246",
"N	c #504E50",
"O	c #4E4A4E",
"P	c #444044",
"Q	c #504C50",
"R	c #382E38",
"S	c #332B33",
"!##########################################################!",
"#$$$$$$$$$$$$$$$$$$$$$$$$$$$$$$$$$$$$$$$$$$$$$$$$$$$$$$$$$$#",
"#$%%%%%%%%%%%%%%%%%%%%%%%%%%%%%%%%%%%%%%%%%%%%%%%%%%%%%%%%%#",
"#$%%%%%%%%%%%%%%%%%%%%%%%%%%%%%%%%%%%%%%%%%%%%%%%%%%%%%%%%%#",
"#$%%%%%%%%%%%%%%%%%%%%%%%%%%%%%%%%%%%%%%%%%%%%%%%%%%%%%%%%%#",
"#$%%%%%%%%%%%%%%%%%%%%%%%%%%%%%%%%%%%%%%%%%%%%%%%%%%%%%%%%%#",
"#$%%%%%%%%%%%%%%%%%%%%%%%%%%%%%%%%%%%%%%%%%%%%%%%%%%%%%%%%%#",
"#$%%%&&'%%%(&&%%%%%%)&&%%%%%%*+,-$%%%%%%%%%%%%%%%%%%%%%%%%%#",
"#$%%%.01%%%20,%%%%%%&03%%%%(40000&%%%%%%%%%%%%%%%%%%%%%%%%%#",
"#$%%%506%%7038*9:9(%&0;%%%$604-&<&=,%'=,'==>1+='%-=?*9:9(%%#",
"#$%%%$@0?%A0BC3@B36$D0E%%%-0F8%%%&0;%D0;&000:G0>$33D3@B36%%#",
"#$%%%%H0=&0@I90J&K0&<0K%%%=0:%%%%<0K%<0E&0LC%D0J-0190J&K0%%#",
"#$%%%%&0E.0M%:0:==='-0J%%%-0;8%%%>0N%>0JD0:%%8@3O0':0:===%%#",
"#$%%%%%E0L;I%B02DDD%P0Q%%%I;0E=MB,0L,60J-0:%%%H00Q%B02DDD%%#",
"#$%%%%%B00M%%8K000B%M0:%%%%'K000NC30LK0:+0:%%%D00<%8K000B%%#",
"#$%%%%%%%%%%%%%(&R$%%%%%%%%%%S&?%%8&8%%%%%%%%%%%%%%%%(&R$%%#",
"#$%%%%%%%%%%%%%%%%%%%%%%%%%%%%%%%%%%%%%%%%%%%%%%%%%%%%%%%%%#",
"#$%%%%%%%%%%%%%%%%%%%%%%%%%%%%%%%%%%%%%%%%%%%%%%%%%%%%%%%%%#",
"#$%%%%%%%%%%%%%%%%%%%%%%%%%%%%%%%%%%%%%%%%%%%%%%%%%%%%%%%%%#",
"#$%%%%%%%%%%%%%%%%%%%%%%%%%%%%%%%%%%%%%%%%%%%%%%%%%%%%%%%%%#",
"#$%%%%%%%%%%%%%%%%%%%%%%%%%%%%%%%%%%%%%%%%%%%%%%%%%%%%%%%%%#",
"!##########################################################!"};