/* XPM */ 
static const char * velcontrolled_xpm[] = {
"102 22 55 1",
" 	c None",
"!	c #383838",
"#	c #EFEBDE",
"$	c #2B272B",
"%	c #2B222B",
"&	c #3B353B",
"'	c #332E33",
"(	c #352E35",
")	c #332733",
"*	c #383538",
"+	c #444244",
",	c #464446",
"-	c #403D40",
".	c #4C4A4C",
"0	c #5A595A",
"1	c #4A464A",
"2	c #525252",
"3	c #595759",
"4	c #545254",
"5	c #423D42",
"6	c #504C50",
"7	c #403B40",
"8	c #555455",
"9	c #3D383D",
":	c #2E272E",
";	c #4A484A",
"<	c #505050",
"=	c #555555",
">	c #3D3B3D",
"?	c #332B33",
"@	c #484448",
"A	c #4C4C4C",
"B	c #545454",
"C	c #504E50",
"D	c #424042",
"E	c #545054",
"F	c #575557",
"G	c #383338",
"H	c #524E52",
"I	c #484648",
"J	c #353335",
"K	c #3B383B",
"L	c #575757",
"M	c #595959",
"N	c #4E4C4E",
"O	c #525052",
"P	c #555255",
"Q	c #4C484C",
"R	c #2E2B2E",
"S	c #4E4E4E",
"T	c #484848",
"U	c #464246",
"V	c #444044",
"W	c #4A4A4A",
"X	c #382E38",
"!####################################################################################################!",
"#$$$$$$$$$$$$$$$$$$$$$$$$$$$$$$$$$$$$$$$$$$$$$$$$$$$$$$$$$$$$$$$$$$$$$$$$$$$$$$$$$$$$$$$$$$$$$$$$$$$$#",
"#$%%%%%%%%%%%%%%%%%%%%%%%%%%%%%%%%%%%%%%%%%%%%%%%%%%%%%%%%%%%%%%%%%%%%%%%%%%%%%%%%%%%%%%%%%%%%%%%%%%$#",
"#$%%%%%%%%%%%%%%%%%%%%%%%%%%%%%%%%%%%%%%%%%%%%%%%%%%%%%%%%%%%%%%%%%%%%%%%%%%%%%%%%%%%%%%%%%%%%%%%%%%$#",
"#$%%%%%%%%%%%%%%%%%%%%%%%%%%%%%%%%%%%%%%%%%%%%%%%%%%%%%%%%%%%%%%%%%%%%%%%%%%%%%%%%%%%%%%%%%%%%%%%%%%$#",
"#$%%%%%%%%%%%%%%%%%%%%%%%%%%%%%%%%%%%%%%%%%%%%%%%%%%%%%%%%%%%%%%%%%%%%%%%%%%%%%%%%%%%%%%%%%%%%%%%%%%$#",
"#$%%%%%%%%%%%%%%%%%%%%%%%%%%%%%%%%%%%%%%%%%%%%%%%%%%%%%%%%%%%%%%%%%%%%%%%%%%%%%%%%%%%%%%%%%%%%%%%%%%$#",
"#$%%%%%%%&&'%%%(&&%%%%%%)&&%%%%%%*+,-$%%%%%%%%%%%%%%%%%%%%%%%%%%%%%%)&&)&&%%%%%%%%%%%)&%%%%%%%%%%%%%$#",
"#$%%%%%%%.01%%%20,%%%%%%&03%%%%(40000&%%%%%%%%%%%%%%56+%%%%%%%%%%%%%&03&03%%%%%%%%%%%*0%%%%%%%%%%%%%$#",
"#$%%%%%%%708%%903:*;<;(%&0=%%%$804-&>'?@<.>%'@@&AA*-B0C5'@@D1%?@<.>%&0=&0=%*;<;(%%(1<E0%%%%%%%%%%%%%$#",
"#$%%%%%%%$F0G%H0IJ3FI38$K0B%%%-0L:%%%(=0HF0+&00M00=C000N&000<(=0HF0+K0BK0BJ3FI38$?F0OP0%%%%%%%%%%%%%$#",
"#$%%%%%%%%Q0@&0FR;0S&O0&>0O%%%@0<%%%%T0.%>0=K00*-00%=0-%&0MJ%T0.%>0=>0O>0O;0S&O0&I0I%-0%%%%%%%%%%%%%$#",
"#$%%%%%%%%&0B.0U%<0<@@@'-0S%%%-0=:%%%<0U%K0M90=%&00%F09%K0<%%<0U%K0M-0S-0S<0<@@@'<0*%+0%%%%%%%%%%%%%$#",
"#$%%%%%%%%%B0M=R%I02KKK%V06%%%R=0B@UI+04K<0.-0C%&00%00I*-0<%%+04K<0.V06V06I02KKK%;0WK80%%%%%%%%%%%%%$#",
"#$%%%%%%%%%I00U%%:O000I%U0<%%%%'O000C:.000H?+0<%&00%C00I+0<%%:.000H?U0<U0<:O000I%(80M<0%%%%%%%%%%%%%$#",
"#$%%%%%%%%%%%%%%%%%(&X$%%%%%%%%%%?&G%%%?&(%%%%%%%%%%:&G$%%%%%%%?&(%%%%%%%%%%(&X$%%$&:%%%%%%%%%%%%%%%$#",
"#$%%%%%%%%%%%%%%%%%%%%%%%%%%%%%%%%%%%%%%%%%%%%%%%%%%%%%%%%%%%%%%%%%%%%%%%%%%%%%%%%%%%%%%%%%%%%%%%%%%$#",
"#$%%%%%%%%%%%%%%%%%%%%%%%%%%%%%%%%%%%%%%%%%%%%%%%%%%%%%%%%%%%%%%%%%%%%%%%%%%%%%%%%%%%%%%%%%%%%%%%%%%$#",
"#$%%%%%%%%%%%%%%%%%%%%%%%%%%%%%%%%%%%%%%%%%%%%%%%%%%%%%%%%%%%%%%%%%%%%%%%%%%%%%%%%%%%%%%%%%%%%%%%%%%$#",
"#$%%%%%%%%%%%%%%%%%%%%%%%%%%%%%%%%%%%%%%%%%%%%%%%%%%%%%%%%%%%%%%%%%%%%%%%%%%%%%%%%%%%%%%%%%%%%%%%%%%$#",
"#$$$$$$$$$$$$$$$$$$$$$$$$$$$$$$$$$$$$$$$$$$$$$$$$$$$$$$$$$$$$$$$$$$$$$$$$$$$$$$$$$$$$$$$$$$$$$$$$$$$$#",
"!####################################################################################################!"};