/* XPM */ 
static const char * velocity_xpm[] = {
"102 22 57 1",
" 	c None",
"!	c #383838",
"#	c #EFEBDE",
"$	c #2B272B",
"%	c #2B222B",
"&	c #332B33",
"'	c #464246",
"(	c #352E35",
")	c #383538",
"*	c #403B40",
"+	c #383338",
",	c #737373",
"-	c #484648",
".	c #504E50",
"0	c #595759",
"1	c #666666",
"2	c #707070",
"3	c #525052",
"4	c #3D383D",
"5	c #424042",
"6	c #4E4C4E",
"7	c #575557",
"8	c #444244",
"9	c #636263",
":	c #727272",
";	c #676667",
"<	c #3D3B3D",
"=	c #656365",
">	c #403D40",
"?	c #5C5A5C",
"@	c #6D6B6D",
"A	c #606060",
"B	c #5A595A",
"C	c #5F5F5F",
"D	c #5C5C5C",
"E	c #4C4A4C",
"F	c #6F6F6F",
"G	c #6E6E6E",
"H	c #332E33",
"I	c #6D6D6D",
"J	c #353335",
"K	c #626262",
"L	c #545254",
"M	c #636363",
"N	c #555455",
"O	c #656565",
"P	c #5F5D5F",
"Q	c #6A6A6A",
"R	c #2E2B2E",
"S	c #676767",
"T	c #2E272E",
"U	c #696969",
"V	c #5A5A5A",
"W	c #464446",
"X	c #4A484A",
"Y	c #5D5C5D",
"Z	c #3B353B",
"!####################################################################################################!",
"#$$$$$$$$$$$$$$$$$$$$$$$$$$$$$$$$$$$$$$$$$$$$$$$$$$$$$$$$$$$$$$$$$$$$$$$$$$$$$$$$$$$$$$$$$$$$$$$$$$$$#",
"#$%%%%%%%%%%%%%%%%%%%%%%%%%%%%%%%%%%%%%%%%%%%%%%%%%%%%%%%%%%%%%%%%%%%%%%%%%%%%%%%%%%%%%%%%%%%%%%%%%%$#",
"#$%%%%%%%%%%%%%%%%%%%%%%%%%%%%%%%%%%%%%%%%%%%%%%%%%%%%%%%%%%%%%%%%%%%%%%%%%%%%%%%%%%%%%%%%%%%%%%%%%%$#",
"#$%%%%%%%%%%%%%%%%%%%%%%%&'''(%''')%%%%%%)''*%%%%%%%%%%%%%%%%)''*%%%%%%%%%%%%%%%%%%%%%%%%%%%%%%%%%%%$#",
"#$%%%%%%%%%%%%%%%%%%%%%%%+,,,-&,,,.%%%%%%0,,1%%%%%%%%%%%%%%%%0,,1)''*%%%%%%%%%%%%%%%%%%%%%%%%%%%%%%%$#",
"#$%%%%%%%%%%%%%%%%%%%%%%%%2,,34,,,5%%%%%%0,,1%%%%%%%%%%%%%%%%'0060,,1%%%%%%%%%%%%%%%%%%%%%%%%%%%%%%%$#",
"#$%%%%%%%%%%%%%%%%%%%%%%%%1,,78,,,-9::;8%0,,1%<=::;-%%>9::9<%611?1,,@0A1B%611+%%%%%%%%%%%%%%%%%%%%%%$#",
"#$%%%%%%%%%%%%%%%%%%%%%%%%C,,DE,,:F,2G,:>0,,1HG,:I,:8+2,:G,FJ0,,1,,,,,K,I%0,,$%%%%%%%%%%%%%%%%%%%%%%$#",
"#$%%%%%%%%%%%%%%%%%%%%%%%%L,,MN,,,,,O7,,?0,,1E,,O7,,C3,,O7,,60,,1P,,Q'L,,&C,G%%%%%%%%%%%%%%%%%%%%%%%$#",
"#$%%%%%%%%%%%%%%%%%%%%%%%%-,,10,,,,,QP,,O0,,17,,10,,10,,10,,70,,10,,1%5,,>O,;%%%%%%%%%%%%%%%%%%%%%%%$#",
"#$%%%%%%%%%%%%%%%%%%%%%%%%4,,IC,,,,,,,,,10,,10,,10,,10,,1%%%%0,,10,,1%R:,6S,A%%%%%%%%%%%%%%%%%%%%%%%$#",
"#$%%%%%%%%%%%%%%%%%%%%%%%%T:,:O,,I,,@00060,,10,,10,,10,,1%%%%0,,10,,1%%;,0F,0%%%%%%%%%%%%%%%%%%%%%%%$#",
"#$%%%%%%%%%%%%%%%%%%%%%%%%%U,,G,,O,,1*11?0,,10,,10,,10,,1*1160,,10,,1%%0,9,,3%%%%%%%%%%%%%%%%%%%%%%%$#",
"#$%%%%%%%%%%%%%%%%%%%%%%%%%A,,,,,V,,1',,O0,,17,,10,,M7,,1',,N0,,10,,1%%-,:,,W%%%%%%%%%%%%%%%%%%%%%%%$#",
"#$%%%%%%%%%%%%%%%%%%%%%%%%%N,,,,:X,,;-,,Y0,,1E,,;0,,B-,,U-,,-0,,17,,Q8(&,,,,*%%%%%%%%%%%%%%%%%%%%%%%$#",
"#$%%%%%%%%%%%%%%%%%%%%%%%%%X,,,,ST1,,,,GZ0,,1HI,,,,GZTQ,,,,;T0,,18:,,,'%Q,,:R%%%%%%%%%%%%%%%%%%%%%%%$#",
"#$%%%%%%%%%%%%%%%%%%%%%%%%%)00006%R3MO?Z%'006%+0OOBZ%%&0OONR%'006%>N00X=:,,1%%%%%%%%%%%%%%%%%%%%%%%%$#",
"#$%%%%%%%%%%%%%%%%%%%%%%%%%%%%%%%%%%%%%%%%%%%%%%%%%%%%%%%%%%%%%%%%%%%%',,:;*%%%%%%%%%%%%%%%%%%%%%%%%$#",
"#$%%%%%%%%%%%%%%%%%%%%%%%%%%%%%%%%%%%%%%%%%%%%%%%%%%%%%%%%%%%%%%%%%%%%%%%%%%%%%%%%%%%%%%%%%%%%%%%%%%$#",
"#$$$$$$$$$$$$$$$$$$$$$$$$$$$$$$$$$$$$$$$$$$$$$$$$$$$$$$$$$$$$$$$$$$$$$$$$$$$$$$$$$$$$$$$$$$$$$$$$$$$$#",
"!####################################################################################################!"};