/* XPM */
static const char * Zone2_Hover_xpm[] = {
"74 31 103 2",
"  	c #1E1E1E",
". 	c #1F1F1F",
"+ 	c #383838",
"@ 	c #545454",
"# 	c #606060",
"$ 	c #6F6F6F",
"% 	c #6E6E6E",
"& 	c #6D6D6D",
"* 	c #6C6C6C",
"= 	c #6B6B6B",
"- 	c #696969",
"; 	c #595959",
"> 	c #4C4C4C",
", 	c #343434",
"' 	c #2B2B2B",
") 	c #707070",
"! 	c #686868",
"~ 	c #676767",
"{ 	c #666666",
"] 	c #656565",
"^ 	c #646464",
"/ 	c #636363",
"( 	c #616161",
"_ 	c #505050",
": 	c #272727",
"< 	c #434343",
"[ 	c #626262",
"} 	c #5F5F5F",
"| 	c #5E5E5E",
"1 	c #5D5D5D",
"2 	c #5B5B5B",
"3 	c #575757",
"4 	c #373737",
"5 	c #4A4A4A",
"6 	c #5A5A5A",
"7 	c #585858",
"8 	c #565656",
"9 	c #3A3A3A",
"0 	c #393939",
"a 	c #535353",
"b 	c #515151",
"c 	c #4F4F4F",
"d 	c #525252",
"e 	c #4E4E4E",
"f 	c #2E2E2E",
"g 	c #202020",
"h 	c #6A6A6A",
"i 	c #4B4B4B",
"j 	c #4D4D4D",
"k 	c #444444",
"l 	c #484848",
"m 	c #2C2C2C",
"n 	c #474747",
"o 	c #494949",
"p 	c #464646",
"q 	c #404040",
"r 	c #555555",
"s 	c #454545",
"t 	c #424242",
"u 	c #9E9E9E",
"v 	c #7E7E7E",
"w 	c #5C5C5C",
"x 	c #7C7C7C",
"y 	c #969696",
"z 	c #878787",
"A 	c #9A9A9A",
"B 	c #727272",
"C 	c #787878",
"D 	c #9B9B9B",
"E 	c #828282",
"F 	c #979797",
"G 	c #757575",
"H 	c #8F8F8F",
"I 	c #909090",
"J 	c #939393",
"K 	c #7F7F7F",
"L 	c #7B7B7B",
"M 	c #898989",
"N 	c #868686",
"O 	c #797979",
"P 	c #838383",
"Q 	c #919191",
"R 	c #949494",
"S 	c #8E8E8E",
"T 	c #818181",
"U 	c #8C8C8C",
"V 	c #8D8D8D",
"W 	c #929292",
"X 	c #858585",
"Y 	c #989898",
"Z 	c #717171",
"` 	c #8A8A8A",
" .	c #777777",
"..	c #737373",
"+.	c #808080",
"@.	c #8B8B8B",
"#.	c #888888",
"$.	c #747474",
"%.	c #848484",
"&.	c #7D7D7D",
"*.	c #414141",
"=.	c #3E3E3E",
"-.	c #7A7A7A",
"          . + @ # $ % % & & & & & & & & & & & & & & & & & & & & & & & & & & & & & & & & & & & & & & & & & & & & & & & & & * = = - ; > , .           ",
"        ' # ) % = - ! ~ { { { { { { { { { { { { { { { { { { { { { { { { { { { { { { { { { { { { { { { { { { { { { { { { { ] ] ] ^ ^ / ( _ :         ",
"      < % $ = ! ^ [ # } } } } } } } } } } } } } } } } } } } } } } } } } } } } } } } } } } } } } } } } } } } } } } } } } } } | | | | 1 1 2 3 4       ",
"    5 ) % - ^ } 1 6 7 7 3 3 3 8 8 8 8 8 8 8 8 8 8 8 8 8 8 8 8 8 8 8 8 8 8 8 8 8 8 8 8 8 8 8 8 8 8 8 8 8 8 8 8 8 8 8 8 8 8 8 8 3 3 3 7 7 7 8 @ 9     ",
"  0 % = ~ ( 2 8 a b _ _ c c c c c c c c c c c c c c c c c c c c c c c c c c c c c c c c c c c c c c c c c c c c c c c c c c c c _ b d d a d _ e f   ",
"g / h { } 7 a _ e > > i i i i i i i i i i i i i i i i i i i i i i i i i i i i i i i i i i i i i i i i i i i i i i i i i i i i > > > j e c e > i k . ",
"+ - ] } 7 d e > > i i i i i i i i i i i i i i i i i i i i i i i i i i i i i i i i i i i i i i i i i i i i i i i i i i i i i i i i i > > > > 5 5 l m ",
"j ] ( 2 @ c > > i i i i i i i > > j e c c c c e j > > > i i i i i i i i i i i i i i i i i i i i i i > > j e e e j > > > i i i i i i i > > i 5 l n + ",
"; ( 1 3 b j > i i i i i i i > > j c b d a a a d b c j > i i i i i i i i i i i i i i i i i i i i > > j c b d d d b c e > > i i i i i i i i 5 o n p q ",
"| } 6 @ c > i i i i i i i i > j c b a 8 7 ; ; 7 r a b c e j j j j j e e e e j j j j j e j j > > > j c b r 3 7 7 8 a b e > i i i i i i i i 5 o n s t ",
"# 1 7 a e > i i i i i i i i > e _ a 3 2 | } # | 2 7 8 a d b b b b b d a d d b b b b d d b b c j j c b @ ; 1 | | 1 7 a b e > i i i i i i i 5 l p s < ",
"} 2 3 d e i i i i i i i i i > c b - u u u u u u v } w 6 7 3 3 8 8 3 7 7 7 7 8 8 8 3 7 7 3 r d c c _ a 3 x y u u z | 7 a c > i i i i i i i 5 l p k t ",
"| 2 8 d e i i i i i i i i i > e b r 2 # { - x A B ^ [ # | | 1 w 1 } } } } } | 1 | # # # } 1 7 a b b a 7 u z ! C u v 2 r _ > i i i i i i i 5 l p k t ",
"1 6 8 d j i i i i i i i i i > j _ r 2 ( { ) D x - - E u u F G ^ ^ H I J u A B { ~ K D u A L 1 8 a d a 3 M ^ ! h F z w 8 b > i i i i i i i 5 l p k t ",
"1 6 8 d j i i i i i i i i i > e b r 2 [ { J N = h K u O h P D & h Q R O * S S * L u P ) T u ! ; r d d 8 1 / ~ ) u K w 8 _ > i i i i i i i 5 l p k t ",
"1 6 8 d j i i i i i i i i i > c d 7 | ^ U R = = = V S % % $ D T % W X % % P Y Z ` Q  .G ..F L 2 8 a a 3 | ^ ! I F { 2 r _ > i i i i i i i 5 l p k t ",
"1 6 8 d j i i i i i i i i i > c a 6 # +.F & - - - Q @.$ % ) W X % W X & % P Y ..R u u u u u L w 8 a a 7 | ^ U #.& } ; a c > i i i i i i i 5 l p k t ",
"1 6 8 d j i i i i i i i i i > b 8 w $ u $.- - ! ! V S % % $ D T * Q %.- h T Y ) ` U G ..) h [ 6 r a @ 7 } H & { / 1 3 d c > i i i i i i i 5 l p k t ",
"1 6 8 d j i i i i i i i i > j b 3 ( y T - ! ~ { { v u O h P D & ~ H T / ^ &.F h L D $ & % @.) 7 @ a r } W +.{ ] [ w 8 b e > i i i i i i i 5 l p k t ",
"1 6 8 d j i i i i i i i i > j b 8  .u u u u u u N ^ T u u F G / # V x | | O y / { v u u u S ^ 8 a a r & u u u u u u r b e > i i i i i i i 5 l p k t ",
"1 6 8 d j i i i i i i i i i j _ a 7 1 } # } | 1 1 1 } } | | 1 2 ; ; 7 7 7 ; 2 2 1 } } | 1 2 8 d b b a 8 2 | } 1 2 3 a c j > i i i i i i i 5 l p k t ",
"1 ; 8 b j i i i i i i i i i > c b a 3 7 ; ; 7 3 3 3 7 7 7 3 8 r a a a a a a @ @ r 8 3 8 8 @ b c c c b a 8 7 7 7 8 a _ c > > i i i i i i i 5 l p k *.",
"1 7 r b j i i i i i i i i i > j c _ d a a a a a d d d d d b b _ c c c c c c c c b b d d b b c e j j c _ b a a a d b c j > > i i i i i i i 5 l s < *.",
"2 7 @ b j i i i i i i i i i i > > j e c c c c c e e e e e j j > > > > > > > > > j j e e e j > > > > > j e c c c c e > > > i i i i i i i i 5 n s < *.",
"8 8 a _ j i i i i i i i i i i i i i i i i i i i i i i i i i i i i i i i i i i i i i i i i i i i i i i i i i i i i i i i i i i i i i i i i o n k t =.",
"+.+.+.+.+.+.+.+.+.+.+.+.+.+.+.+.+.+.+.+.+.+.+.+.+.+.+.+.+.+.+.+.+.+.+.+.+.+.+.+.+.+.+.+.+.+.+.+.+.+.+.+.+.+.+.+.+.+.+.+.+.+.+.+.+.+.+.+.+.+.+.+.+.+.",
"-.-.-.-.-.-.-.-.-.-.-.-.-.-.-.-.-.-.-.-.-.-.-.-.-.-.-.-.-.-.-.-.-.-.-.-.-.-.-.-.-.-.-.-.-.-.-.-.-.-.-.-.-.-.-.-.-.-.-.-.-.-.-.-.-.-.-.-.-.-.-.-.-.-.",
"$.$.$.$.$.$.$.$.$.$.$.$.$.$.$.$.$.$.$.$.$.$.$.$.$.$.$.$.$.$.$.$.$.$.$.$.$.$.$.$.$.$.$.$.$.$.$.$.$.$.$.$.$.$.$.$.$.$.$.$.$.$.$.$.$.$.$.$.$.$.$.$.$.$.",
"& & & & & & & & & & & & & & & & & & & & & & & & & & & & & & & & & & & & & & & & & & & & & & & & & & & & & & & & & & & & & & & & & & & & & & & & & & ",
"~ ~ ~ ~ ~ ~ ~ ~ ~ ~ ~ ~ ~ ~ ~ ~ ~ ~ ~ ~ ~ ~ ~ ~ ~ ~ ~ ~ ~ ~ ~ ~ ~ ~ ~ ~ ~ ~ ~ ~ ~ ~ ~ ~ ~ ~ ~ ~ ~ ~ ~ ~ ~ ~ ~ ~ ~ ~ ~ ~ ~ ~ ~ ~ ~ ~ ~ ~ ~ ~ ~ ~ ~ ~ ",
"/ / / / / / / / / / / / / / / / / / / / / / / / / / / / / / / / / / / / / / / / / / / / / / / / / / / / / / / / / / / / / / / / / / / / / / / / / / "};
