/* XPM */
static const char * zone2_xpm[] = {
"74 31 74 1",
" 	c #1E1E1E",
".	c #1F1F1F",
"+	c #383838",
"@	c #545454",
"#	c #606060",
"$	c #6F6F6F",
"%	c #6E6E6E",
"&	c #6D6D6D",
"*	c #6C6C6C",
"=	c #6B6B6B",
"-	c #696969",
";	c #595959",
">	c #4C4C4C",
",	c #343434",
"'	c #2B2B2B",
")	c #707070",
"!	c #686868",
"~	c #676767",
"{	c #666666",
"]	c #656565",
"^	c #646464",
"/	c #636363",
"(	c #616161",
"_	c #505050",
":	c #272727",
"<	c #434343",
"[	c #626262",
"}	c #5F5F5F",
"|	c #5E5E5E",
"1	c #5D5D5D",
"2	c #5B5B5B",
"3	c #575757",
"4	c #373737",
"5	c #4A4A4A",
"6	c #5A5A5A",
"7	c #585858",
"8	c #565656",
"9	c #3A3A3A",
"0	c #393939",
"a	c #535353",
"b	c #515151",
"c	c #4F4F4F",
"d	c #525252",
"e	c #4E4E4E",
"f	c #2E2E2E",
"g	c #202020",
"h	c #6A6A6A",
"i	c #4B4B4B",
"j	c #4D4D4D",
"k	c #444444",
"l	c #484848",
"m	c #2C2C2C",
"n	c #474747",
"o	c #494949",
"p	c #464646",
"q	c #404040",
"r	c #454545",
"s	c #424242",
"t	c #9E9E9E",
"u	c #727272",
"v	c #939393",
"w	c #7D7D7D",
"x	c #989898",
"y	c #5C5C5C",
"z	c #888888",
"A	c #8D8D8D",
"B	c #828282",
"C	c #777777",
"D	c #414141",
"E	c #555555",
"F	c #3E3E3E",
"G	c #808080",
"H	c #7A7A7A",
"I	c #747474",
"     .+@#$%%&&&&&&&&&&&&&&&&&&&&&&&&&&&&&&&&&&&&&&&&&&&&&&&&&*==-;>,.     ",
"    '#)%=-!~{{{{{{{{{{{{{{{{{{{{{{{{{{{{{{{{{{{{{{{{{{{{{{{{{]]]^^/(_:    ",
"   <%$=!^[#}}}}}}}}}}}}}}}}}}}}}}}}}}}}}}}}}}}}}}}}}}}}}}}}}}}||||11234   ",
"  5)%-^}16773338888888888888888888888888888888888888888888888883337778@9  ",
" 0%=~(28ab__cccccccccccccccccccccccccccccccccccccccccccccccccccc_bddad_ef ",
"g/h{}7a_e>>iiiiiiiiiiiiiiiiiiiiiiiiiiiiiiiiiiiiiiiiiiiiiiiiiiii>>>jece>ik.",
"+-]}7de>>iiiiiiiiiiiiiiiiiiiiiiiiiiiiiiiiiiiiiiiiiiiiiiiiiiiiiiiii>>>>55lm",
"j](2@c>>iiiiiiiiiiiiiiiiiiiiiiiiiiiiiiiiiiiiiiiiiiiiiiiiiiiiiiiiiii>>i5ln+",
";(13bj>iiiiiiiiiiiiiiiiiiiiiiiiiiiiiiiiiiiiiiiiiiiiiiiiiiiiiiiiiiiiii5onpq",
"|}6@c>iiiiiiiiiiiiiiiiiiiiiiiiiiiiiiiiiiiiiiiiiiiiiiiiiiiiiiiiiiiiiii5onrs",
"#17ae>iiiiiiiiiiiiiiiiiiiiiiiiiiiiiiiiiiiiiiiiiiiiiiiiiiiiiiiiiiiiiii5lpr<",
"}23deiiiiiiiiiiii(ttttttuiiiiiiiiiiiiiiiiiiiiiiiiiiiuvttwiiiiiiiiiiii5lpks",
"|28deiiiiiiiiiiiiiiiii~xyiiiiiiiiiiiiiiiiiiiiiiiiiiitwi(tuiiiiiiiiiii5lpks",
"168djiiiiiiiiiiiiiiii8x~iiuttv(iizzAtxyii*xtx*iiiiiiBiiivwiiiiiiiiiii5lpks",
"168djiiiiiiiiiiiiiiiiACii*t(iuxbizA(iBBi(t*i*t8iiiiiiii8tuiiiiiiiiiii5lpks",
"168djiiiiiiiiiiiiiiiBAiiiBBiiix*izuii*viCBiiiv*iiiiiiiizvbiiiiiiiiiii5lpks",
"168djiiiiiiiiiiiiiiuvbiiizwiiizuizuii*vizttttt*iiiiiiiBw8iiiiiiiiiiii5lpks",
"168djiiiiiiiiiiiiiytyiiiiBBiiix*izuii*viCCiiiiiiiiiiiz8iiiiiiiiiiiiii5lpks",
"168djiiiiiiiiiiiibvuiiiii*t(iuxbizuii*vi(xiibB(iiiibAuiiiiiiiiiiiiiii5lpks",
"168djiiiiiiiiiiii*ttttttwiuttv(iizuii*vii*tttz8iiii(ttttttiiiiiiiiiii5lpks",
"168djiiiiiiiiiiiiiiiiiiiiiiiiiiiiiiiiiiiiiiiiiiiiiiiiiiiiiiiiiiiiiiii5lpks",
"1;8bjiiiiiiiiiiiiiiiiiiiiiiiiiiiiiiiiiiiiiiiiiiiiiiiiiiiiiiiiiiiiiiii5lpkD",
"17Ebjiiiiiiiiiiiiiiiiiiiiiiiiiiiiiiiiiiiiiiiiiiiiiiiiiiiiiiiiiiiiiiii5lr<D",
"27@bjiiiiiiiiiiiiiiiiiiiiiiiiiiiiiiiiiiiiiiiiiiiiiiiiiiiiiiiiiiiiiiii5nr<D",
"88a_jiiiiiiiiiiiiiiiiiiiiiiiiiiiiiiiiiiiiiiiiiiiiiiiiiiiiiiiiiiiiiiiionksF",
"GGGGGGGGGGGGGGGGGGGGGGGGGGGGGGGGGGGGGGGGGGGGGGGGGGGGGGGGGGGGGGGGGGGGGGGGGG",
"HHHHHHHHHHHHHHHHHHHHHHHHHHHHHHHHHHHHHHHHHHHHHHHHHHHHHHHHHHHHHHHHHHHHHHHHHH",
"IIIIIIIIIIIIIIIIIIIIIIIIIIIIIIIIIIIIIIIIIIIIIIIIIIIIIIIIIIIIIIIIIIIIIIIIII",
"&&&&&&&&&&&&&&&&&&&&&&&&&&&&&&&&&&&&&&&&&&&&&&&&&&&&&&&&&&&&&&&&&&&&&&&&&&",
"~~~~~~~~~~~~~~~~~~~~~~~~~~~~~~~~~~~~~~~~~~~~~~~~~~~~~~~~~~~~~~~~~~~~~~~~~~",
"//////////////////////////////////////////////////////////////////////////"};
