/* XPM */
static const char * Zone3_Hover_xpm[] = {
"74 31 100 2",
"  	c #1E1E1E",
". 	c #1F1F1F",
"+ 	c #383838",
"@ 	c #545454",
"# 	c #606060",
"$ 	c #6F6F6F",
"% 	c #6E6E6E",
"& 	c #6D6D6D",
"* 	c #6C6C6C",
"= 	c #6B6B6B",
"- 	c #696969",
"; 	c #595959",
"> 	c #4C4C4C",
", 	c #343434",
"' 	c #2B2B2B",
") 	c #707070",
"! 	c #686868",
"~ 	c #676767",
"{ 	c #666666",
"] 	c #656565",
"^ 	c #646464",
"/ 	c #636363",
"( 	c #616161",
"_ 	c #505050",
": 	c #272727",
"< 	c #434343",
"[ 	c #626262",
"} 	c #5F5F5F",
"| 	c #5E5E5E",
"1 	c #5D5D5D",
"2 	c #5B5B5B",
"3 	c #575757",
"4 	c #373737",
"5 	c #4A4A4A",
"6 	c #5A5A5A",
"7 	c #585858",
"8 	c #565656",
"9 	c #3A3A3A",
"0 	c #393939",
"a 	c #535353",
"b 	c #515151",
"c 	c #4F4F4F",
"d 	c #525252",
"e 	c #4E4E4E",
"f 	c #2E2E2E",
"g 	c #202020",
"h 	c #6A6A6A",
"i 	c #4B4B4B",
"j 	c #4D4D4D",
"k 	c #444444",
"l 	c #484848",
"m 	c #2C2C2C",
"n 	c #474747",
"o 	c #494949",
"p 	c #464646",
"q 	c #404040",
"r 	c #555555",
"s 	c #454545",
"t 	c #424242",
"u 	c #5C5C5C",
"v 	c #9E9E9E",
"w 	c #7E7E7E",
"x 	c #7B7B7B",
"y 	c #8B8B8B",
"z 	c #7C7C7C",
"A 	c #9A9A9A",
"B 	c #727272",
"C 	c #8D8D8D",
"D 	c #747474",
"E 	c #828282",
"F 	c #9B9B9B",
"G 	c #979797",
"H 	c #757575",
"I 	c #8F8F8F",
"J 	c #909090",
"K 	c #939393",
"L 	c #7F7F7F",
"M 	c #949494",
"N 	c #888888",
"O 	c #868686",
"P 	c #797979",
"Q 	c #838383",
"R 	c #919191",
"S 	c #8E8E8E",
"T 	c #818181",
"U 	c #737373",
"V 	c #8C8C8C",
"W 	c #929292",
"X 	c #858585",
"Y 	c #989898",
"Z 	c #717171",
"` 	c #8A8A8A",
" .	c #777777",
"..	c #808080",
"+.	c #848484",
"@.	c #969696",
"#.	c #7D7D7D",
"$.	c #414141",
"%.	c #3E3E3E",
"&.	c #7A7A7A",
"          . + @ # $ % % & & & & & & & & & & & & & & & & & & & & & & & & & & & & & & & & & & & & & & & & & & & & & & & & & * = = - ; > , .           ",
"        ' # ) % = - ! ~ { { { { { { { { { { { { { { { { { { { { { { { { { { { { { { { { { { { { { { { { { { { { { { { { { ] ] ] ^ ^ / ( _ :         ",
"      < % $ = ! ^ [ # } } } } } } } } } } } } } } } } } } } } } } } } } } } } } } } } } } } } } } } } } } } } } } } } } } } | | | | 1 1 2 3 4       ",
"    5 ) % - ^ } 1 6 7 7 3 3 3 8 8 8 8 8 8 8 8 8 8 8 8 8 8 8 8 8 8 8 8 8 8 8 8 8 8 8 8 8 8 8 8 8 8 8 8 8 8 8 8 8 8 8 8 8 8 8 8 3 3 3 7 7 7 8 @ 9     ",
"  0 % = ~ ( 2 8 a b _ _ c c c c c c c c c c c c c c c c c c c c c c c c c c c c c c c c c c c c c c c c c c c c c c c c c c c c _ b d d a d _ e f   ",
"g / h { } 7 a _ e > > i i i i i i i i i i i i i i i i i i i i i i i i i i i i i i i i i i i i i i i i i i i i i i i i i i i i > > > j e c e > i k . ",
"+ - ] } 7 d e > > i i i i i i i i i i i i i i i i i i i i i i i i i i i i i i i i i i i i i i i i i i i i i i i i i i i i i i i i i > > > > 5 5 l m ",
"j ] ( 2 @ c > > i i i i i i i > > j e c c c c e j > > > i i i i i i i i i i i i i i i i i i i i i > > > j e e e j > > > i i i i i i i > > i 5 l n + ",
"; ( 1 3 b j > i i i i i i i > > j c b d a a a d b c j > i i i i i i i i i i i i i i i i i i i i i > j c b b d d b c e > > i i i i i i i i 5 o n p q ",
"| } 6 @ c > i i i i i i i i > j c b a 8 7 ; ; 7 r a b c e j j j j j e e e e j j j j j e j j > > > > c b a 8 3 3 8 a b c > > i i i i i i i 5 o n s t ",
"# 1 7 a e > i i i i i i i i > e _ a 3 2 | } # | 2 7 8 a d b b b b b d a d d b b b b d d b b c j > e _ a 7 2 1 1 u 7 a b e > i i i i i i i 5 l p s < ",
"} 2 3 d e i i i i i i i i i > c b - v v v v v v w } u 6 7 3 3 8 8 3 7 7 7 7 8 8 8 3 7 7 3 r d c c c b 8 x v v v y [ 7 a c > i i i i i i i 5 l p k t ",
"| 2 8 d e i i i i i i i i i > e b r 2 # { - z A B ^ [ # | | 1 u 1 } } } } } | 1 | # # # } 1 7 a b _ b 8 C x ~ D A E 2 r _ > i i i i i i i 5 l p k t ",
"1 6 8 d j i i i i i i i i i > j _ r 2 ( { ) F z - - E v v G H ^ ^ I J K v A B { ~ L F v A x 1 8 d _ b @ 2 [ ! = M N | 3 b > i i i i i i i 5 l p k t ",
"1 6 8 d j i i i i i i i i i > e b r 2 [ { K O = h L v P h Q F & h R M P * S S * x v Q ) T v ! ; @ b _ a 2 [ ! P v U } 7 b > i i i i i i i 5 l p k t ",
"1 6 8 d j i i i i i i i i i > c d 7 | ^ V M = = = C S % % $ F T % W X % % Q Y Z ` R  .H U G x 2 8 b b @ u * v v y - # 7 d > i i i i i i i 5 l p k t ",
"1 6 8 d j i i i i i i i i i > c a 6 # ..G & - - - R y $ % ) W X % W X & % Q Y U M v v v v v x u 8 d b a 2 [ ! U Y N # 7 d j i i i i i i i 5 l p k t ",
"1 6 8 d j i i i i i i i i i > b 8 u $ v D - - ! ! C S % % $ F T * R +.- h T Y ) ` V H U ) h [ 6 r d b r 2 [ ~ = ` G } 7 b > i i i i i i i 5 l p k t ",
"1 6 8 d j i i i i i i i i > j b 3 ( @.T - ! ~ { { w v P h Q F & ~ I T / ^ #.G h x F $ & % y ) 7 @ d a # R $ ~ D A O u 8 b > i i i i i i i 5 l p k t ",
"1 6 8 d j i i i i i i i i > j b 8  .v v v v v v O ^ T v v G H / # C z | | P @./ { w v v v S ^ 8 d b a 2 +.v v v y } 7 a c > i i i i i i i 5 l p k t ",
"1 6 8 d j i i i i i i i i i j _ a 7 1 } # } | 1 1 1 } } | | 1 2 ; ; 7 7 7 ; 2 2 1 } } | 1 2 8 d _ c b a 7 2 1 1 u 7 @ b e > i i i i i i i 5 l p k t ",
"1 ; 8 b j i i i i i i i i i > c b a 3 7 ; ; 7 3 3 3 7 7 7 3 8 r a a a a a a @ @ r 8 3 8 8 @ b c e e c b @ 8 7 3 8 a b c > > i i i i i i i 5 l p k $.",
"1 7 r b j i i i i i i i i i > j c _ d a a a a a d d d d d b b _ c c c c c c c c b b d d b b c e j > j c b d d d b c e > > i i i i i i i i 5 l s < $.",
"2 7 @ b j i i i i i i i i i i > > j e c c c c c e e e e e j j > > > > > > > > > j j e e e j > > > > > > j e e e j > > > i i i i i i i i i 5 n s < $.",
"8 8 a _ j i i i i i i i i i i i i i i i i i i i i i i i i i i i i i i i i i i i i i i i i i i i i i i i i i i i i i i i i i i i i i i i i o n k t %.",
"....................................................................................................................................................",
"&.&.&.&.&.&.&.&.&.&.&.&.&.&.&.&.&.&.&.&.&.&.&.&.&.&.&.&.&.&.&.&.&.&.&.&.&.&.&.&.&.&.&.&.&.&.&.&.&.&.&.&.&.&.&.&.&.&.&.&.&.&.&.&.&.&.&.&.&.&.&.&.&.&.",
"D D D D D D D D D D D D D D D D D D D D D D D D D D D D D D D D D D D D D D D D D D D D D D D D D D D D D D D D D D D D D D D D D D D D D D D D D D ",
"& & & & & & & & & & & & & & & & & & & & & & & & & & & & & & & & & & & & & & & & & & & & & & & & & & & & & & & & & & & & & & & & & & & & & & & & & & ",
"~ ~ ~ ~ ~ ~ ~ ~ ~ ~ ~ ~ ~ ~ ~ ~ ~ ~ ~ ~ ~ ~ ~ ~ ~ ~ ~ ~ ~ ~ ~ ~ ~ ~ ~ ~ ~ ~ ~ ~ ~ ~ ~ ~ ~ ~ ~ ~ ~ ~ ~ ~ ~ ~ ~ ~ ~ ~ ~ ~ ~ ~ ~ ~ ~ ~ ~ ~ ~ ~ ~ ~ ~ ~ ",
"/ / / / / / / / / / / / / / / / / / / / / / / / / / / / / / / / / / / / / / / / / / / / / / / / / / / / / / / / / / / / / / / / / / / / / / / / / / "};
