/* XPM */
static const char * Zone3_Selected_xpm[] = {
"74 31 268 2",
"  	c #1E1E1E",
". 	c #1F1F1F",
"+ 	c #3E3E3E",
"@ 	c #606060",
"# 	c #6F6F6F",
"$ 	c #828282",
"% 	c #818181",
"& 	c #808080",
"* 	c #7F7F7F",
"= 	c #7D7D7D",
"- 	c #696969",
"; 	c #5A5A5A",
"> 	c #3A3A3A",
", 	c #2E2E2E",
"' 	c #838383",
") 	c #7C7C7C",
"! 	c #7B7B7B",
"~ 	c #7A7A7A",
"{ 	c #797979",
"] 	c #787878",
"^ 	c #767676",
"/ 	c #626262",
"( 	c #2B2B2B",
"_ 	c #4B4B4B",
": 	c #777777",
"< 	c #757575",
"[ 	c #747474",
"} 	c #737373",
"| 	c #727272",
"1 	c #717171",
"2 	c #6C6C6C",
"3 	c #414141",
"4 	c #555555",
"5 	c #707070",
"6 	c #6E6E6E",
"7 	c #6D6D6D",
"8 	c #6B6B6B",
"9 	c #474747",
"0 	c #3F3F3F",
"a 	c #6A6A6A",
"b 	c #676767",
"c 	c #686868",
"d 	c #656565",
"e 	c #363636",
"f 	c #202020",
"g 	c #7E7E7E",
"h 	c #646464",
"i 	c #636363",
"j 	c #666666",
"k 	c #585858",
"l 	c #616161",
"m 	c #5F5F5F",
"n 	c #353535",
"o 	c #636364",
"p 	c #636365",
"q 	c #636367",
"r 	c #636369",
"s 	c #64636B",
"t 	c #64636D",
"u 	c #64636E",
"v 	c #64636C",
"w 	c #64636A",
"x 	c #63636A",
"y 	c #5E5E5E",
"z 	c #464646",
"A 	c #646373",
"B 	c #646377",
"C 	c #65637A",
"D 	c #65637B",
"E 	c #646372",
"F 	c #636366",
"G 	c #646376",
"H 	c #646378",
"I 	c #646375",
"J 	c #646370",
"K 	c #5C5C5C",
"L 	c #525252",
"M 	c #646374",
"N 	c #65637C",
"O 	c #656383",
"P 	c #666389",
"Q 	c #66638B",
"R 	c #666386",
"S 	c #656380",
"T 	c #656378",
"U 	c #64636F",
"V 	c #636368",
"W 	c #656386",
"X 	c #5B5B5B",
"Y 	c #646371",
"Z 	c #666391",
"` 	c #676399",
" .	c #67639E",
"..	c #6763A0",
"+.	c #67639A",
"@.	c #666388",
"#.	c #656382",
"$.	c #656379",
"%.	c #676396",
"&.	c #676398",
"*.	c #666395",
"=.	c #5D5D5D",
"-.	c #747389",
";.	c #9E9E9E",
">.	c #817FA2",
",.	c #67639B",
"'.	c #66638D",
").	c #656385",
"!.	c #656381",
"~.	c #807F99",
"{.	c #8C8AA2",
"].	c #6B679B",
"^.	c #575757",
"/.	c #65637F",
"(.	c #66638F",
"_.	c #6763A1",
":.	c #6863AF",
"<.	c #6963B9",
"[.	c #7B77B3",
"}.	c #9A9AA0",
"|.	c #746FAD",
"1.	c #6863AA",
"2.	c #6863A6",
"3.	c #676395",
"4.	c #67639D",
"5.	c #67639F",
"6.	c #8F8E9C",
"7.	c #7E7BA4",
"8.	c #6963B4",
"9.	c #746FB4",
"0.	c #8582A2",
"a.	c #666392",
"b.	c #666390",
"c.	c #6763A2",
"d.	c #6863B0",
"e.	c #706BB7",
"f.	c #9B9AA0",
"g.	c #7B77B4",
"h.	c #6963BA",
"i.	c #6963B7",
"j.	c #827FAB",
"k.	c #9796A1",
"l.	c #7673AC",
"m.	c #6863AC",
"n.	c #908EA4",
"o.	c #908EA5",
"p.	c #9392A3",
"q.	c #746FAF",
"r.	c #7E7BB0",
"s.	c #7E7BA6",
"t.	c #65637D",
"u.	c #6963B6",
"v.	c #6963BF",
"w.	c #9492A5",
"x.	c #8886A5",
"y.	c #595959",
"z.	c #6863A3",
"A.	c #8582AD",
"B.	c #6963BC",
"C.	c #7E7BB1",
"D.	c #7873B6",
"E.	c #827FB0",
"F.	c #6D67BB",
"G.	c #6963BD",
"H.	c #908EA8",
"I.	c #9492A6",
"J.	c #7873B8",
"K.	c #6A63C2",
"L.	c #8D8AAC",
"M.	c #8D8AAB",
"N.	c #7873BE",
"O.	c #7F7BBD",
"P.	c #6A63CC",
"Q.	c #7F7BB6",
"R.	c #6E6BA0",
"S.	c #746FB1",
"T.	c #8C8AA6",
"U.	c #9392A4",
"V.	c #6A63BF",
"W.	c #6963BE",
"X.	c #8D8AAA",
"Y.	c #8D8AAD",
"Z.	c #6A63C9",
"`.	c #6A63C6",
" +	c #6A63CA",
".+	c #9B9AA1",
"++	c #7F7BB8",
"@+	c #6A63C7",
"#+	c #908EAB",
"$+	c #837FB8",
"%+	c #9796A5",
"&+	c #6B63D1",
"*+	c #8682BA",
"=+	c #8D8AB5",
"-+	c #6C63E0",
";+	c #6B63DA",
">+	c #6B63D4",
",+	c #9796A3",
"'+	c #7E7BA5",
")+	c #666393",
"!+	c #6F6BA8",
"~+	c #8986B0",
"{+	c #66638A",
"]+	c #817FA7",
"^+	c #6D67B5",
"/+	c #908EA7",
"(+	c #6A63CB",
"_+	c #6B63CD",
":+	c #908EAC",
"<+	c #827FB7",
"[+	c #837FB7",
"}+	c #6A63C4",
"|+	c #6A63C5",
"1+	c #6B63D5",
"2+	c #918EB0",
"3+	c #716BBD",
"4+	c #8986A8",
"5+	c #666394",
"6+	c #736FA6",
"7+	c #6963B8",
"8+	c #8C8AA8",
"9+	c #7F7BB7",
"0+	c #827FB2",
"a+	c #9796A4",
"b+	c #8682B9",
"c+	c #8782BD",
"d+	c #6C63DC",
"e+	c #6A63CD",
"f+	c #6863A4",
"g+	c #66638E",
"h+	c #6963B5",
"i+	c #8986AC",
"j+	c #6B6798",
"k+	c #9796A0",
"l+	c #7E7BAC",
"m+	c #6D67B7",
"n+	c #6963B3",
"o+	c #827FA8",
"p+	c #6863A9",
"q+	c #6863AB",
"r+	c #9796A2",
"s+	c #7873BB",
"t+	c #6D67BC",
"u+	c #8C8AA4",
"v+	c #76739C",
"w+	c #6D6B87",
"x+	c #93929D",
"y+	c #8886A2",
"z+	c #656384",
"A+	c #7D7B99",
"B+	c #827FA9",
"C+	c #7673AA",
"D+	c #6863A7",
"E+	c #8F8E9F",
"F+	c #817F9E",
"G+	c #7D7BA0",
"H+	c #97969F",
"I+	c #6863B1",
"J+	c #7E7BAE",
"K+	c #908EA0",
"L+	c #6D6B94",
"M+	c #696786",
"N+	c #88869B",
"O+	c #67639C",
"P+	c #676397",
"Q+	c #66638C",
"R+	c #666387",
"S+	c #565656",
"          . + @ # $ $ % & & & & & & & & & & & & & & & & & & & & & & & & & & & & & & & & & & & & & & & & & & & & & & & & & & * * = - ; > .           ",
"        , # ' $ * = ) ! ~ ~ ~ ~ ~ ~ ~ ~ ~ ~ ~ ~ ~ ~ ~ ~ ~ ~ ~ ~ ~ ~ ~ ~ ~ ~ ~ ~ ~ ~ ~ ~ ~ ~ ~ ~ ~ ~ ~ ~ ~ ~ ~ ~ ~ ~ ~ ~ ~ ~ ~ ~ { ] ] ^ / (         ",
"      _ & $ * ) { : < [ [ [ [ [ [ [ [ [ [ [ [ [ [ [ [ [ [ [ [ [ [ [ [ [ [ [ [ [ [ [ [ [ [ [ [ [ [ [ [ [ [ [ [ [ [ [ [ [ [ [ [ [ [ [ } | 1 2 3       ",
"    4 ' % = ] < | 5 # 6 7 7 7 7 7 7 7 7 7 7 7 7 7 7 7 7 7 7 7 7 7 7 7 7 7 7 7 7 7 7 7 7 7 7 7 7 7 7 7 7 7 7 7 7 7 7 7 7 7 7 7 7 7 7 6 # 6 7 8 9     ",
"  0 % * ! ^ 1 7 a - b b b b b b b b b b b b b b b b b b b b b b b b b b b b b b b b b b b b b b b b b b b b b b b b b b b b b b b c - - a - b d e   ",
"f < g ~ < # a b d h h i i i i i i i i i i i i i i i i i i i i i i i i i i i i i i i i i i i i i i i i i i i i i i i i i i i i h h h d d j d h i k f ",
"0 = ~ < # - d h h i i i i i i i i i i i i i i i i i i i i i i i i i i i i i i i i i i i i i i i i i i i i i i i i i i i i i i i i i h h h h / l m n ",
"; ~ ^ 5 8 j h h i i i i i o p q r s t u u t v r q p o i i i i i i i i i i i i i i i i i i i i i o p q r w s s x q p o i i i i i i i i h h i l m y z ",
"a ^ | 7 c d h i i i i i i o q x u A B C D C B E t r p i i i i i i i i i i i i i i i i i i i i o F r t E G H B I J s q p i i i i i i i i i / @ y K L ",
"| [ 5 8 b h i i i i i i i p r t M N O P Q Q R S T A U s x r r r x w s s w r r r r x w x r q p p V t A N O W W O D E v q o i i i i i i i i / @ y X k ",
"< | # a d h i i i i i i i F w Y C W Z `  ...+.Z @.#.N H G I A A G H T H B M E A I B B G E t r V s J $.R Z %.&.*.P N E w p i i i i i i i i / @ =.; k ",
"[ 1 7 - d i i i i i i i o q v I -.;.;.;.;.;.;.>.,.*.'.@.W ).#.#.W P P P @.O !.#.).R R ).S B U v u I !.~.;.;.;.{.].@.C t p i i i i i i i i / m =.; ^.",
"[ 5 7 - d i i i i i i i i F s A /.(._.:.<.[.}.|.1.2...+.` &.*.3.,. . .4.4.` %.` 5._._. .3.R C E Y I !.6.7.8.9.}.0.a.S Y F i i i i i i i i / m K ; ^.",
"} 5 7 - d i i i i i i i i p x E /.b.c.d.e.f.g.h.i.j.;.;.k.l.m.m.n.o.p.;.}.q.:.8.r.}.;.}.s.%.O H E A t.Z 2.u.v.w.x.` ).M q i i i i i i i i / m K y.^.",
"} 5 7 - d i i i i i i i i p w A S a.z.d.p.A.v.B.C.;.D.B.E.f.F.G.H.I.J.K.L.M.K.N.;.O.P.Q.;.R.Q t.M E D b.2.i.J.;.S. .@.G V i i i i i i i i / m K y.^.",
"} 5 7 - d i i i i i i i i F v B @.,.m.T.U.V.V.W.X.Y.Z.`. +.+++@+#+$+`.@+O.%+&+*+=+-+;+>+,+'+Z !.G M t.)+!+;.;.~+h._.{+B V i i i i i i i i / m K y.^.",
"} 5 7 - d i i i i i i i i q U D '...]+k.^+<.<.h./+~+(+Z._+:+<+Z.#+[+}+|+O.%+1+2+;.;.;.;.;.s.)+#.B M N b.2.i.3+,+4+..{+B r i i i i i i i i / m K y.^.",
"} 5 7 - d i i i i i i i o V E #.5+6+;.9.7+i.u.u.8+L.Z.`. +.+9+K.H.0+h.B.9+a+_+b+c+d+>+e+G.f+g+/.B I /.a.2.h+v.i+k.,.R I V i i i i i i i i / m K y.^.",
"} 5 7 - d i i i i i i i o x I ).j+k+j.<.u.8.d.:.l+;.D.B.E.f.m+n+n.o+p+q+l+r+B.s+.+ +}+t+u+v+@.t.B T w+x+6+8.9.}.y+5+#.A q i i i i i i i i / m K y.^.",
"} 5 7 - d i i i i i i i o x I z+A+;.;.;.;.;.;.y+m.B+;.;.k.C+D+_.E+F+` +.G+H+p+I+J+;.;.;.K+L+#.H I T M+N+;.;.;.{.O+{+D U F i i i i i i i i / m K y.^.",
"} 5 2 - d i i i i i i i o r J D @.%. .5.4.+.P+3.P+,.O++.` &.Z Q+Q {+R @.Q+b.b.%.4.4.,.&.(.#.B Y J A D @.Z %.&.*.{+t.A s p i i i i i i i i l m K y.^.",
"| # 2 - d i i i i i i i o q v M N ).{+Q+Q P W ).).@.@.R+W z+/.D D C T T D t.t.S z+).O #.t.I U v v U I t.O R W O D A v q o i i i i i i i i l m K y.S+",
"| # 2 c h i i i i i i i i p r v E B C D D C T B B H H B G M Y U U u t t U J J E I B B G M U w r V x u A B H B M U s q p i i i i i i i i i / @ y ; S+",
"5 6 a d i i i i i i i i i o p q r s t u u t t v s s s w x r V q q q q q q q q r x s v s x V F p p p q x s v s x q p o i i i i i i i i i i i i i m S+",
"a 7 c h i i i i i i i i i i i i i i i i i i i i i i i i i i i i i i i i i i i i i i i i i i i i i i i i i i i i i i i i i i i i i i i i i i i i i ; ",
"* ] 8 h i i i i i i i i i i i i i i i i i i i i i i i i i i i i i i i i i i i i i i i i i i i i i i i i i i i i i i i i i i i i i i i i i i i i i 6 ",
": 2 h i i i i i i i i i i i i i i i i i i i i i i i i i i i i i i i i i i i i i i i i i i i i i i i i i i i i i i i i i i i i i i i i i i i i i i a ",
"1 c i i i i i i i i i i i i i i i i i i i i i i i i i i i i i i i i i i i i i i i i i i i i i i i i i i i i i i i i i i i i i i i i i i i i i i i - ",
"2 b i i i i i i i i i i i i i i i i i i i i i i i i i i i i i i i i i i i i i i i i i i i i i i i i i i i i i i i i i i i i i i i i i i i i i i i c ",
"b j h i i i i i i i i i i i i i i i i i i i i i i i i i i i i i i i i i i i i i i i i i i i i i i i i i i i i i i i i i i i i i i i i i i i i i i j ",
"i i i i i i i i i i i i i i i i i i i i i i i i i i i i i i i i i i i i i i i i i i i i i i i i i i i i i i i i i i i i i i i i i i i i i i i i i i "};
