/* XPM */
static const char * Zone2_Selected_xpm[] = {
"74 31 269 2",
"  	c #1E1E1E",
". 	c #1F1F1F",
"+ 	c #3E3E3E",
"@ 	c #606060",
"# 	c #6F6F6F",
"$ 	c #828282",
"% 	c #818181",
"& 	c #808080",
"* 	c #7F7F7F",
"= 	c #7D7D7D",
"- 	c #696969",
"; 	c #5A5A5A",
"> 	c #3A3A3A",
", 	c #2E2E2E",
"' 	c #838383",
") 	c #7C7C7C",
"! 	c #7B7B7B",
"~ 	c #7A7A7A",
"{ 	c #797979",
"] 	c #787878",
"^ 	c #767676",
"/ 	c #626262",
"( 	c #2B2B2B",
"_ 	c #4B4B4B",
": 	c #777777",
"< 	c #757575",
"[ 	c #747474",
"} 	c #737373",
"| 	c #727272",
"1 	c #717171",
"2 	c #6C6C6C",
"3 	c #414141",
"4 	c #555555",
"5 	c #707070",
"6 	c #6E6E6E",
"7 	c #6D6D6D",
"8 	c #6B6B6B",
"9 	c #474747",
"0 	c #3F3F3F",
"a 	c #6A6A6A",
"b 	c #676767",
"c 	c #686868",
"d 	c #656565",
"e 	c #363636",
"f 	c #202020",
"g 	c #7E7E7E",
"h 	c #646464",
"i 	c #636363",
"j 	c #666666",
"k 	c #585858",
"l 	c #616161",
"m 	c #5F5F5F",
"n 	c #353535",
"o 	c #636364",
"p 	c #636365",
"q 	c #636367",
"r 	c #636369",
"s 	c #64636B",
"t 	c #64636D",
"u 	c #64636E",
"v 	c #64636C",
"w 	c #64636A",
"x 	c #5E5E5E",
"y 	c #464646",
"z 	c #63636A",
"A 	c #646373",
"B 	c #646377",
"C 	c #65637A",
"D 	c #65637B",
"E 	c #646372",
"F 	c #636366",
"G 	c #646378",
"H 	c #646374",
"I 	c #64636F",
"J 	c #5C5C5C",
"K 	c #525252",
"L 	c #65637C",
"M 	c #656383",
"N 	c #666389",
"O 	c #66638B",
"P 	c #666386",
"Q 	c #656380",
"R 	c #656378",
"S 	c #646375",
"T 	c #65637F",
"U 	c #656385",
"V 	c #666388",
"W 	c #666387",
"X 	c #5B5B5B",
"Y 	c #646371",
"Z 	c #656386",
"` 	c #666391",
" .	c #676399",
"..	c #67639E",
"+.	c #6763A0",
"@.	c #67639A",
"#.	c #656382",
"$.	c #646376",
"%.	c #65637E",
"&.	c #66638C",
"*.	c #676395",
"=.	c #5D5D5D",
"-.	c #747389",
";.	c #9E9E9E",
">.	c #817FA2",
",.	c #67639B",
"'.	c #666395",
").	c #66638D",
"!.	c #656381",
"~.	c #656379",
"{.	c #817F9C",
"].	c #97969F",
"^.	c #8886A4",
"/.	c #575757",
"(.	c #66638F",
"_.	c #6763A1",
":.	c #6863AF",
"<.	c #6963B9",
"[.	c #7B77B3",
"}.	c #9A9AA0",
"|.	c #746FAD",
"1.	c #6863AA",
"2.	c #6863A6",
"3.	c #676398",
"4.	c #67639D",
"5.	c #676396",
"6.	c #67639F",
"7.	c #6963B7",
"8.	c #7773B4",
"9.	c #666390",
"0.	c #6763A2",
"a.	c #6863B0",
"b.	c #706BB7",
"c.	c #9B9AA0",
"d.	c #7B77B4",
"e.	c #6963BA",
"f.	c #827FAB",
"g.	c #9796A1",
"h.	c #7673AC",
"i.	c #6863AC",
"j.	c #908EA4",
"k.	c #908EA5",
"l.	c #9392A3",
"m.	c #746FAF",
"n.	c #6963B4",
"o.	c #7E7BB0",
"p.	c #7E7BA6",
"q.	c #8C8A9D",
"r.	c #6963BD",
"s.	c #9796A2",
"t.	c #8886A2",
"u.	c #595959",
"v.	c #666392",
"w.	c #6863A3",
"x.	c #8582AD",
"y.	c #6963BF",
"z.	c #6963BC",
"A.	c #7E7BB1",
"B.	c #7873B6",
"C.	c #827FB0",
"D.	c #6D67BB",
"E.	c #908EA8",
"F.	c #9492A6",
"G.	c #7873B8",
"H.	c #6A63C2",
"I.	c #8D8AAC",
"J.	c #8D8AAB",
"K.	c #7873BE",
"L.	c #7F7BBD",
"M.	c #6A63CC",
"N.	c #7F7BB6",
"O.	c #6E6BA0",
"P.	c #676397",
"Q.	c #6863A8",
"R.	c #6963B3",
"S.	c #706BB6",
"T.	c #817FA3",
"U.	c #666393",
"V.	c #8C8AA6",
"W.	c #9392A4",
"X.	c #6A63BF",
"Y.	c #6963BE",
"Z.	c #8D8AAA",
"`.	c #8D8AAD",
" +	c #6A63C9",
".+	c #6A63C6",
"++	c #6A63CA",
"@+	c #9B9AA1",
"#+	c #7F7BB8",
"$+	c #6A63C7",
"%+	c #908EAB",
"&+	c #837FB8",
"*+	c #9796A5",
"=+	c #6B63D1",
"-+	c #8682BA",
";+	c #8D8AB5",
">+	c #6C63E0",
",+	c #6B63DA",
"'+	c #6B63D4",
")+	c #9796A3",
"!+	c #7E7BA5",
"~+	c #6863AB",
"{+	c #6963B6",
"]+	c #908EA6",
"^+	c #6C67A5",
"/+	c #646370",
"(+	c #817FA7",
"_+	c #6D67B5",
":+	c #908EA7",
"<+	c #8986B0",
"[+	c #6A63CB",
"}+	c #6B63CD",
"|+	c #908EAC",
"1+	c #827FB7",
"2+	c #837FB7",
"3+	c #6A63C4",
"4+	c #6A63C5",
"5+	c #6B63D5",
"6+	c #918EB0",
"7+	c #8C8AA5",
"8+	c #8986A7",
"9+	c #6F6BAD",
"0+	c #636368",
"a+	c #666394",
"b+	c #736FA6",
"c+	c #746FB4",
"d+	c #6963B8",
"e+	c #8C8AA8",
"f+	c #7F7BB7",
"g+	c #827FB2",
"h+	c #9796A4",
"i+	c #8682B9",
"j+	c #8782BD",
"k+	c #6C63DC",
"l+	c #6A63CD",
"m+	c #6863A4",
"n+	c #66638E",
"o+	c #65637D",
"p+	c #66638A",
"q+	c #908EA1",
"r+	c #6F6BAE",
"s+	c #6B6798",
"t+	c #9796A0",
"u+	c #7E7BAC",
"v+	c #6D67B7",
"w+	c #827FA8",
"x+	c #6863A9",
"y+	c #7873BB",
"z+	c #6D67BC",
"A+	c #8C8AA4",
"B+	c #76739C",
"C+	c #6A678F",
"D+	c #93929F",
"E+	c #6863B1",
"F+	c #6863AE",
"G+	c #656384",
"H+	c #7D7B99",
"I+	c #827FA9",
"J+	c #7673AA",
"K+	c #6863A7",
"L+	c #8F8E9F",
"M+	c #817F9E",
"N+	c #7D7BA0",
"O+	c #7E7BAE",
"P+	c #908EA0",
"Q+	c #6D6B94",
"R+	c #757393",
"S+	c #67639C",
"T+	c #565656",
"          . + @ # $ $ % & & & & & & & & & & & & & & & & & & & & & & & & & & & & & & & & & & & & & & & & & & & & & & & & & & * * = - ; > .           ",
"        , # ' $ * = ) ! ~ ~ ~ ~ ~ ~ ~ ~ ~ ~ ~ ~ ~ ~ ~ ~ ~ ~ ~ ~ ~ ~ ~ ~ ~ ~ ~ ~ ~ ~ ~ ~ ~ ~ ~ ~ ~ ~ ~ ~ ~ ~ ~ ~ ~ ~ ~ ~ ~ ~ ~ ~ { ] ] ^ / (         ",
"      _ & $ * ) { : < [ [ [ [ [ [ [ [ [ [ [ [ [ [ [ [ [ [ [ [ [ [ [ [ [ [ [ [ [ [ [ [ [ [ [ [ [ [ [ [ [ [ [ [ [ [ [ [ [ [ [ [ [ [ [ } | 1 2 3       ",
"    4 ' % = ] < | 5 # 6 7 7 7 7 7 7 7 7 7 7 7 7 7 7 7 7 7 7 7 7 7 7 7 7 7 7 7 7 7 7 7 7 7 7 7 7 7 7 7 7 7 7 7 7 7 7 7 7 7 7 7 7 7 7 6 # 6 7 8 9     ",
"  0 % * ! ^ 1 7 a - b b b b b b b b b b b b b b b b b b b b b b b b b b b b b b b b b b b b b b b b b b b b b b b b b b b b b b b c - - a - b d e   ",
"f < g ~ < # a b d h h i i i i i i i i i i i i i i i i i i i i i i i i i i i i i i i i i i i i i i i i i i i i i i i i i i i i h h h d d j d h i k f ",
"0 = ~ < # - d h h i i i i i i i i i i i i i i i i i i i i i i i i i i i i i i i i i i i i i i i i i i i i i i i i i i i i i i i i i h h h h / l m n ",
"; ~ ^ 5 8 j h h i i i i i o p q r s t u u t v r q p o i i i i i i i i i i i i i i i i i i i i i o p q r w s w r q p o i i i i i i i i h h i l m x y ",
"a ^ | 7 c d h i i i i i i o q z u A B C D C B E t r p i i i i i i i i i i i i i i i i i i i i o F r t A B G B H I w q p i i i i i i i i i / @ x J K ",
"| [ 5 8 b h i i i i i i i p r t H L M N O O P Q R A I s z r r r z w s s w r r r r z w z r q p F r I S T U V W M C E v q o i i i i i i i i / @ x X k ",
"< | # a d h i i i i i i i F w Y C Z `  ...+.@.` V #.L G $.S A A $.G R G B H E A S B B $.E t r r t H %.&.*. .@.*.N L E w o i i i i i i i i / @ =.; k ",
"[ 1 7 - d i i i i i i i o q v S -.;.;.;.;.;.;.>.,.'.).V Z U #.#.Z N N N V M !.#.U P P U Q B I u Y ~.Z {.].;.;.^.@.V C u p i i i i i i i i / m =.; /.",
"[ 5 7 - d i i i i i i i i F s A T (._.:.<.[.}.|.1.2.+.@. .3.'.*.,.....4.4. .5. .6._._...*.P C H S D V ;.^.7.8.;.>.` Q Y F i i i i i i i i / m J ; /.",
"} 5 7 - d i i i i i i i i p z E T 9.0.a.b.c.d.e.7.f.;.;.g.h.i.i.j.k.l.;.}.m.:.n.o.}.;.}.p.5.M C B ~.U q.i.7.r.s.t.'.#.E q i i i i i i i i / m J u./.",
"} 5 7 - d i i i i i i i i p w A Q v.w.a.l.x.y.z.A.;.B.z.C.c.D.r.E.F.G.H.I.J.H.K.;.L.M.N.;.O.O T G G #.P.Q.R.S.;.T.U.!.E F i i i i i i i i / m J u./.",
"} 5 7 - d i i i i i i i i F v B V ,.i.V.W.X.X.Y.Z.`. +.+++@+#+$+%+&+.+$+L.*+=+-+;+>+,+'+)+!+` #.C C U @.~+{+]+g.^+` T /+F i i i i i i i i / m J u./.",
"} 5 7 - d i i i i i i i i q I D ).+.(+g._+<.<.e.:+<+[+ +}+|+1+ +%+2+3+4+L.*+5+6+;.;.;.;.;.p.U.M D D P @.1.7+8+9+..O D u p i i i i i i i i / m J u./.",
"} 5 7 - d i i i i i i i o 0+E #.a+b+;.c+d+7.{+{+e+I. +.+++@+f+H.E.g+e.z.f+h+}+i+j+k+'+l+r.m+n+Q D o+p+4.q+r+a.Q.P.U B v p i i i i i i i i / m J u./.",
"} 5 7 - d i i i i i i i o z S U s+t+f.<.{+n.a.:.u+;.B.z.C.c.v+R.j.w+x+~+u+s.z.y+@+++3+z+A+B+N %.D Q C+D+(+E+F+m+U.#.S s p i i i i i i i i / m J u./.",
"} 5 7 - d i i i i i i i o z S G+H+;.;.;.;.;.;.t.i.I+;.;.g.J+K+_.L+M+ .@.N+].x+E+O+;.;.;.P+Q+#.C C Q R+;.;.;.;.;.;.Q H s p i i i i i i i i / m J u./.",
"} 5 2 - d i i i i i i i o r /+D V 5...6.4.@.P.*.P.,.S+@. .3.` &.O p+P V &.9.9.5.4.4.,.3.(.#.G E H ~.G+`  .,.3.9.U R I r p i i i i i i i i l m J u./.",
"| # 2 - d i i i i i i i o q v H L U p+&.O N Z U U V V W Z G+T D D C R R D o+o+Q G+U M #.o+S I t u E C M V p+W #.C E v q o i i i i i i i i l m J u.T+",
"| # 2 c h i i i i i i i i p r v E B C D D C R B B G G B $.H Y I I u t t I /+/+E S B B $.H I w r z v /+$.C D C B E t r F o i i i i i i i i / @ x ; T+",
"5 6 a d i i i i i i i i i o p q r s t u u t t v s s s w z r 0+q q q q q q q q r z s v s z 0+F p p q r s t u t v w 0+F o i i i i i i i i i i i i m T+",
"a 7 c h i i i i i i i i i i i i i i i i i i i i i i i i i i i i i i i i i i i i i i i i i i i i i i i i i i i i i i i i i i i i i i i i i i i i i ; ",
"* ] 8 h i i i i i i i i i i i i i i i i i i i i i i i i i i i i i i i i i i i i i i i i i i i i i i i i i i i i i i i i i i i i i i i i i i i i i 6 ",
": 2 h i i i i i i i i i i i i i i i i i i i i i i i i i i i i i i i i i i i i i i i i i i i i i i i i i i i i i i i i i i i i i i i i i i i i i i a ",
"1 c i i i i i i i i i i i i i i i i i i i i i i i i i i i i i i i i i i i i i i i i i i i i i i i i i i i i i i i i i i i i i i i i i i i i i i i - ",
"2 b i i i i i i i i i i i i i i i i i i i i i i i i i i i i i i i i i i i i i i i i i i i i i i i i i i i i i i i i i i i i i i i i i i i i i i i c ",
"b j h i i i i i i i i i i i i i i i i i i i i i i i i i i i i i i i i i i i i i i i i i i i i i i i i i i i i i i i i i i i i i i i i i i i i i i j ",
"i i i i i i i i i i i i i i i i i i i i i i i i i i i i i i i i i i i i i i i i i i i i i i i i i i i i i i i i i i i i i i i i i i i i i i i i i i "};
