/* XPM */
static const char * Zone1_Selected_xpm[] = {
"74 31 262 2",
"  	c #1E1E1E",
". 	c #1F1F1F",
"+ 	c #3E3E3E",
"@ 	c #606060",
"# 	c #6F6F6F",
"$ 	c #828282",
"% 	c #818181",
"& 	c #808080",
"* 	c #7F7F7F",
"= 	c #7D7D7D",
"- 	c #696969",
"; 	c #5A5A5A",
"> 	c #3A3A3A",
", 	c #2E2E2E",
"' 	c #838383",
") 	c #7C7C7C",
"! 	c #7B7B7B",
"~ 	c #7A7A7A",
"{ 	c #797979",
"] 	c #787878",
"^ 	c #767676",
"/ 	c #626262",
"( 	c #2B2B2B",
"_ 	c #4B4B4B",
": 	c #777777",
"< 	c #757575",
"[ 	c #747474",
"} 	c #737373",
"| 	c #727272",
"1 	c #717171",
"2 	c #6C6C6C",
"3 	c #414141",
"4 	c #555555",
"5 	c #707070",
"6 	c #6E6E6E",
"7 	c #6D6D6D",
"8 	c #6B6B6B",
"9 	c #474747",
"0 	c #3F3F3F",
"a 	c #6A6A6A",
"b 	c #676767",
"c 	c #686868",
"d 	c #656565",
"e 	c #363636",
"f 	c #202020",
"g 	c #7E7E7E",
"h 	c #646464",
"i 	c #636363",
"j 	c #666666",
"k 	c #585858",
"l 	c #616161",
"m 	c #5F5F5F",
"n 	c #353535",
"o 	c #636364",
"p 	c #636365",
"q 	c #636367",
"r 	c #636369",
"s 	c #64636B",
"t 	c #64636D",
"u 	c #64636E",
"v 	c #64636C",
"w 	c #636366",
"x 	c #5E5E5E",
"y 	c #464646",
"z 	c #63636A",
"A 	c #646373",
"B 	c #646377",
"C 	c #65637A",
"D 	c #65637B",
"E 	c #646372",
"F 	c #64636F",
"G 	c #5C5C5C",
"H 	c #525252",
"I 	c #646374",
"J 	c #65637C",
"K 	c #656383",
"L 	c #666389",
"M 	c #66638B",
"N 	c #666386",
"O 	c #656380",
"P 	c #656378",
"Q 	c #64636A",
"R 	c #656379",
"S 	c #5B5B5B",
"T 	c #646371",
"U 	c #656386",
"V 	c #666391",
"W 	c #676399",
"X 	c #67639E",
"Y 	c #6763A0",
"Z 	c #67639A",
"` 	c #666388",
" .	c #656382",
"..	c #646378",
"+.	c #646376",
"@.	c #646375",
"#.	c #65637E",
"$.	c #66638A",
"%.	c #666387",
"&.	c #5D5D5D",
"*.	c #747389",
"=.	c #9E9E9E",
"-.	c #817FA2",
";.	c #67639B",
">.	c #666395",
",.	c #66638D",
"'.	c #656385",
").	c #656381",
"!.	c #646370",
"~.	c #8F8E9D",
"{.	c #88869C",
"].	c #575757",
"^.	c #65637F",
"/.	c #66638F",
"(.	c #6763A1",
"_.	c #6863AF",
":.	c #6963B9",
"<.	c #7B77B3",
"[.	c #9A9AA0",
"}.	c #746FAD",
"|.	c #6863AA",
"1.	c #6863A6",
"2.	c #676398",
"3.	c #676395",
"4.	c #67639D",
"5.	c #676396",
"6.	c #67639F",
"7.	c #807F98",
"8.	c #8886A1",
"9.	c #666390",
"0.	c #6763A2",
"a.	c #6863B0",
"b.	c #706BB7",
"c.	c #9B9AA0",
"d.	c #7B77B4",
"e.	c #6963BA",
"f.	c #6963B7",
"g.	c #827FAB",
"h.	c #9796A1",
"i.	c #7673AC",
"j.	c #6863AC",
"k.	c #908EA4",
"l.	c #908EA5",
"m.	c #9392A3",
"n.	c #746FAF",
"o.	c #6963B4",
"p.	c #7E7BB0",
"q.	c #7E7BA6",
"r.	c #666393",
"s.	c #6763A3",
"t.	c #8886A4",
"u.	c #8886A3",
"v.	c #595959",
"w.	c #666392",
"x.	c #6863A3",
"y.	c #8582AD",
"z.	c #6963BF",
"A.	c #6963BC",
"B.	c #7E7BB1",
"C.	c #7873B6",
"D.	c #827FB0",
"E.	c #6D67BB",
"F.	c #6963BD",
"G.	c #908EA8",
"H.	c #9492A6",
"I.	c #7873B8",
"J.	c #6A63C2",
"K.	c #8D8AAC",
"L.	c #8D8AAB",
"M.	c #7873BE",
"N.	c #7F7BBD",
"O.	c #6A63CC",
"P.	c #7F7BB6",
"Q.	c #6E6BA0",
"R.	c #8886A5",
"S.	c #8C8AA6",
"T.	c #9392A4",
"U.	c #6A63BF",
"V.	c #6963BE",
"W.	c #8D8AAA",
"X.	c #8D8AAD",
"Y.	c #6A63C9",
"Z.	c #6A63C6",
"`.	c #6A63CA",
" +	c #9B9AA1",
".+	c #7F7BB8",
"++	c #6A63C7",
"@+	c #908EAB",
"#+	c #837FB8",
"$+	c #9796A5",
"%+	c #6B63D1",
"&+	c #8682BA",
"*+	c #8D8AB5",
"=+	c #6C63E0",
"-+	c #6B63DA",
";+	c #6B63D4",
">+	c #9796A3",
",+	c #7E7BA5",
"'+	c #8986A7",
")+	c #8986A6",
"!+	c #65637D",
"~+	c #817FA7",
"{+	c #6D67B5",
"]+	c #908EA7",
"^+	c #8986B0",
"/+	c #6A63CB",
"(+	c #6B63CD",
"_+	c #908EAC",
":+	c #827FB7",
"<+	c #837FB7",
"[+	c #6A63C4",
"}+	c #6A63C5",
"|+	c #6B63D5",
"1+	c #918EB0",
"2+	c #666394",
"3+	c #636368",
"4+	c #736FA6",
"5+	c #746FB4",
"6+	c #6963B8",
"7+	c #6963B6",
"8+	c #8C8AA8",
"9+	c #7F7BB7",
"0+	c #827FB2",
"a+	c #9796A4",
"b+	c #8682B9",
"c+	c #8782BD",
"d+	c #6C63DC",
"e+	c #6A63CD",
"f+	c #6863A4",
"g+	c #66638E",
"h+	c #6B6798",
"i+	c #9796A0",
"j+	c #7E7BAC",
"k+	c #6D67B7",
"l+	c #6963B3",
"m+	c #827FA8",
"n+	c #6863A9",
"o+	c #6863AB",
"p+	c #9796A2",
"q+	c #7873BB",
"r+	c #6D67BC",
"s+	c #8C8AA4",
"t+	c #76739C",
"u+	c #656384",
"v+	c #7D7B99",
"w+	c #8886A2",
"x+	c #827FA9",
"y+	c #7673AA",
"z+	c #6863A7",
"A+	c #8F8E9F",
"B+	c #817F9E",
"C+	c #7D7BA0",
"D+	c #97969F",
"E+	c #6863B1",
"F+	c #7E7BAE",
"G+	c #908EA0",
"H+	c #6D6B94",
"I+	c #807F97",
"J+	c #676397",
"K+	c #67639C",
"L+	c #66638C",
"M+	c #565656",
"          . + @ # $ $ % & & & & & & & & & & & & & & & & & & & & & & & & & & & & & & & & & & & & & & & & & & & & & & & & & & * * = - ; > .           ",
"        , # ' $ * = ) ! ~ ~ ~ ~ ~ ~ ~ ~ ~ ~ ~ ~ ~ ~ ~ ~ ~ ~ ~ ~ ~ ~ ~ ~ ~ ~ ~ ~ ~ ~ ~ ~ ~ ~ ~ ~ ~ ~ ~ ~ ~ ~ ~ ~ ~ ~ ~ ~ ~ ~ ~ ~ { ] ] ^ / (         ",
"      _ & $ * ) { : < [ [ [ [ [ [ [ [ [ [ [ [ [ [ [ [ [ [ [ [ [ [ [ [ [ [ [ [ [ [ [ [ [ [ [ [ [ [ [ [ [ [ [ [ [ [ [ [ [ [ [ [ [ [ [ } | 1 2 3       ",
"    4 ' % = ] < | 5 # 6 7 7 7 7 7 7 7 7 7 7 7 7 7 7 7 7 7 7 7 7 7 7 7 7 7 7 7 7 7 7 7 7 7 7 7 7 7 7 7 7 7 7 7 7 7 7 7 7 7 7 7 7 7 7 6 # 6 7 8 9     ",
"  0 % * ! ^ 1 7 a - b b b b b b b b b b b b b b b b b b b b b b b b b b b b b b b b b b b b b b b b b b b b b b b b b b b b b b b c - - a - b d e   ",
"f < g ~ < # a b d h h i i i i i i i i i i i i i i i i i i i i i i i i i i i i i i i i i i i i i i i i i i i i i i i i i i i i h h h d d j d h i k f ",
"0 = ~ < # - d h h i i i i i i i i i i i i i i i i i i i i i i i i i i i i i i i i i i i i i i i i i i i i i i i i i i i i i i i i i h h h h / l m n ",
"; ~ ^ 5 8 j h h i i i i i o p q r s t u u t v r q p o i i i i i i i i i i i i i i i i i i i i i i i o p p w w p p o i i i i i i i i i h h i l m x y ",
"a ^ | 7 c d h i i i i i i o q z u A B C D C B E t r p i i i i i i i i i i i i i i i i i i i i i o w r v u F F v r w o i i i i i i i i i i / @ x G H ",
"| [ 5 8 b h i i i i i i i p r t I J K L M M N O P A F s z r r r z Q s s Q r r r r z Q z r q p o p r F I R D C I u r p i i i i i i i i i i / @ x S k ",
"< | # a d h i i i i i i i w Q T C U V W X Y Z V `  .J ..+.@.A A +...P ..B I E A @.B B +.E t r q q v @.#.U $.%.#.@.t w i i i i i i i i i i / @ &.; k ",
"[ 1 7 - d i i i i i i i o q v @.*.=.=.=.=.=.=.-.;.>.,.` U '. . .U L L L ` K ). .'.N N '.O B F s z !.J $.>.~.{.M #.E q i i i i i i i i i i / m &.; ].",
"[ 5 7 - d i i i i i i i i w s A ^./.(._.:.<.[.}.|.1.Y Z W 2.>.3.;.X X 4.4.W 5.W 6.(.(.X 3.N C T t A K 7.=.=.8.>.'.@.r i i i i i i i i i i / m G ; ].",
"} 5 7 - d i i i i i i i i p z E ^.9.0.a.b.c.d.e.f.g.=.=.h.i.j.j.k.l.m.=.[.n._.o.p.[.=.[.q.5.K B F E  .r.s.t.u.W ` ..z i i i i i i i i i i / m G v.].",
"} 5 7 - d i i i i i i i i p Q A O w.x.a.m.y.z.A.B.=.C.A.D.c.E.F.G.H.I.J.K.L.J.M.=.N.O.P.=.Q.M D !.E ).r.0.R.t.;.$.R Q i i i i i i i i i i / m G v.].",
"} 5 7 - d i i i i i i i i w v B ` ;.j.S.T.U.U.V.W.X.Y.Z.`. +.+++@+#+Z.++N.$+%+&+*+=+-+;+>+,+V ^.E E  .>.1.'+)+(./.!+v o i i i i i i i i i / m G v.].",
"} 5 7 - d i i i i i i i i q F D ,.Y ~+h.{+:.:.e.]+^+/+Y.(+_+:+Y.@+<+[+}+N.$+|+1+=.=.=.=.=.q.r.O A E  .2+1.'+)+x.V ^.u p i i i i i i i i i / m G v.].",
"} 5 7 - d i i i i i i i o 3+E  .2+4+=.5+6+f.7+7+8+K.Y.Z.`. +9+J.G.0+e.A.9+a+(+b+c+d+;+e+F.f+g+!+T E O V x.)+)+x.V O F w o i i i i i i i i / m G v.].",
"} 5 7 - d i i i i i i i o z @.'.h+i+g.:.7+o.a._.j+=.C.A.D.c.k+l+k.m+n+o+j+p+A.q+ +`.[+r+s+t+` C T E O w.s.R.R.s.w.O !.q o i i i i i i i i / m G v.].",
"} 5 7 - d i i i i i i i o z @.u+v+=.=.=.=.=.=.w+j.x+=.=.h.y+z+(.A+B+W Z C+D+n+E+F+=.=.=.G+H+).@.F E O I+=.=.=.=.I+O T 3+o i i i i i i i i / m G v.].",
"} 5 2 - d i i i i i i i o r !.D ` 5.X 6.4.Z J+3.J+;.K+Z W 2.V L+M $.N ` L+9.9.5.4.4.;.2./. .B F v F ..'.9.2.2.9.'...t q o i i i i i i i i l m G v.].",
"| # 2 - d i i i i i i i o q v I J '.$.L+M L U '.'.` ` %.U u+^.D D C P P D !+!+O u+'.K  .!+@.F Q r s E C  .N N  .C E Q w o i i i i i i i i l m G v.M+",
"| # 2 c h i i i i i i i i p r v E B C D D C P B B ....B +.I T F F u t t F !.!.E @.B B +.I F Q q q 3+v !.@.....@.!.v 3+p i i i i i i i i i / @ x ; M+",
"5 6 a d i i i i i i i i i o p q r s t u u t t v s s s Q z r 3+q q q q q q q q r z s v s z 3+w p o p q r s v v s r q p o i i i i i i i i i i i i m M+",
"a 7 c h i i i i i i i i i i i i i i i i i i i i i i i i i i i i i i i i i i i i i i i i i i i i i i i i i i i i i i i i i i i i i i i i i i i i i ; ",
"* ] 8 h i i i i i i i i i i i i i i i i i i i i i i i i i i i i i i i i i i i i i i i i i i i i i i i i i i i i i i i i i i i i i i i i i i i i i 6 ",
": 2 h i i i i i i i i i i i i i i i i i i i i i i i i i i i i i i i i i i i i i i i i i i i i i i i i i i i i i i i i i i i i i i i i i i i i i i a ",
"1 c i i i i i i i i i i i i i i i i i i i i i i i i i i i i i i i i i i i i i i i i i i i i i i i i i i i i i i i i i i i i i i i i i i i i i i i - ",
"2 b i i i i i i i i i i i i i i i i i i i i i i i i i i i i i i i i i i i i i i i i i i i i i i i i i i i i i i i i i i i i i i i i i i i i i i i c ",
"b j h i i i i i i i i i i i i i i i i i i i i i i i i i i i i i i i i i i i i i i i i i i i i i i i i i i i i i i i i i i i i i i i i i i i i i i j ",
"i i i i i i i i i i i i i i i i i i i i i i i i i i i i i i i i i i i i i i i i i i i i i i i i i i i i i i i i i i i i i i i i i i i i i i i i i i "};
