/* XPM */
static char *bmp004[] = {
/* width height num_colors chars_per_pixel */
"    11    11        3            1",
/* colors */
". c #000000",
"# c #7e7e7e",
"a c #c0c0c0",
/* pixels */
"aaaaaaaaaaa",
"a#########.",
"a#########.",
"a#########.",
"a#########.",
"a####.####.",
"a#########.",
"a#########.",
"a#########.",
"a#########.",
"a.........."
};
