/* XPM */
static char *bmp003[] = {
/* width height num_colors chars_per_pixel */
"    15    50        3            1",
/* colors */
". c #000000",
"# c #7e7e7e",
"a c #c0c0c0",
/* pixels */
"aaaaaaaaaaaaaaa",
"a#############.",
"a#############.",
"a#############.",
"a######.a#####.",
"a######.a#####.",
"a######.a#####.",
"a######.a#####.",
"a######.a#####.",
"a######.a#####.",
"a######.a#####.",
"a######.a#####.",
"a######.a#####.",
"a######.a#####.",
"a######.a#####.",
"a######.a#####.",
"a######.a#####.",
"a######.a#####.",
"a######.a#####.",
"a######.a#####.",
"a######.a#####.",
"a######.a#####.",
"a######.a#####.",
"a######.a#####.",
"a######.a#####.",
"a######.a#####.",
"a######.a#####.",
"a######.a#####.",
"a######.a#####.",
"a######.a#####.",
"a######.a#####.",
"a######.a#####.",
"a######.a#####.",
"a######.a#####.",
"a######.a#####.",
"a######.a#####.",
"a######.a#####.",
"a######.a#####.",
"a######.a#####.",
"a######.a#####.",
"a######.a#####.",
"a######.a#####.",
"a######.a#####.",
"a######.a#####.",
"a######.a#####.",
"a######.######.",
"a#############.",
"a#############.",
"a#############.",
"..............."
};
