/* XPM */
static char *bmp011[] = {
/* width height num_colors chars_per_pixel */
"    52    54       21            1",
/* colors */
". c #808080",
"# c #808080",
"a c #5a0000",
"b c #f7f7f7",
"c c #efefef",
"d c #d6d6d6",
"e c #c6c6c6",
"f c #b5b5b5",
"g c #adadad",
"h c #9c9c9c",
"i c #7b7b7b",
"j c #6b6b6b",
"k c #424242",
"l c #808080",
"m c #c6efd6",
"n c #73cece",
"o c #52c6c6",
"p c #319494",
"q c #c6efef",
"r c #dcf0ff",
"s c #ffffff",
/* pixels */
"####################################################",
"#aaaaaaaaaaaaaaaaaaaaaaaaaaaaaaaaaaaaaaaaaaaaaaaaaa#",
"#ajjjjjjjjjjjjjjjjjjjjjjjhddddddddddddddddddddddk.a#",
"#aomscccccccccccccccccccmnssssssssssssssssssddjl..a#",
"#ajriiiiiiiiiiiiiiiiiiiiihbccccccccccccccccsjjkkl.a#",
"#ajdiiiiiiiiiiiiiiiiiiiiihbccccccccccccccccsjjkkl.a#",
"#ajdiiiiiiiiiiiiiiiiiiiiihbccccccccccccccccsjjkkl.a#",
"#ajdiiiiiiiiiiiiiiiiiiiiihbccccccccccccccccsjjkkl.a#",
"#ajdiiiiiiiiiiiiiiiiiiiiihbccccccccccccccccsjjkkl.a#",
"#ajdiiiiiiiiiiiiiiiiiiiiihbccccccccccccccccsjjkkl.a#",
"#ajdiiiiiiiiiiiiiiiiiiiiihbccccccccccccccccsjjkkl.a#",
"#ajdiiiiiiiiiiiiiiiiiiiiihbccccccccccccccccsjjkkl.a#",
"#ajdiiiiiiiiiiiiiiiiiiiiihbccccccccccccccccsjjkkl.a#",
"#ajdiiiiiiiiiiiiiiiiiiiiihbccccccccccccccccbjjkkl.a#",
"#ajrsiiiiiiiiiiiiiiiiiiiihbcccccccccccccccccjjkkl.a#",
"#ajkkkkkkkkkkkkkkkkkkkkkkfpllllllllllllllllllllllka#",
"#aaaaaaaaaaaaaaaaaaaaaaaaaaaaaaaaaaaaaaaaaaaaaaaaaa#",
"####################################################",
"####################################################",
"#aaaaaaaaaaaaaaaaaaaaaaaaaaaaaaaaaaaaaaaaaaaaaaaaaa#",
"#ahiiiiiiiiiiiiiiiiiiiiihjdddddddddddddddddddddddka#",
"#addgrddddddddddddddddddfgcddssssssssssssssssssjj.a#",
"#adbdiiiiiiiiiiiiiiiiiiiihcddddddddddddddddddddjl.a#",
"#adbsiiiiiiiiiiiiiiiiiiiihcddddddddddddddddddddjl.a#",
"#adbsiiiiiiiiiiiiiiiiiiiihcddddddddddddddddddddjl.a#",
"#adbsiiiiiiiiiiiiiiiiiiiihcddddddddddddddddddddjl.a#",
"#adbsiiiiiiiiiiiiiiiiiiiihcddddddddddddddddddddjl.a#",
"#adbsiiiiiiiiiiiiiiiiiiiihcddddddddddddddddddddjl.a#",
"#adbsiiiiiiiiiiiiiiiiiiiihcddddddddddddddddddddjl.a#",
"#adbsiiiiiiiiiiiiiiiiiiiihcddddddddddddddddddddjl.a#",
"#adbsiiiiiiiiiiiiiiiiiiiihcddddddddddddddddddddjl.a#",
"#adbsiiiiiiiiiiiiiiiiiiiihcddddddddddddddddddddjl.a#",
"#adneiiiiiiiiiiiiiiiiiiiihdddddddddddddddddddddjl.a#",
"#aihiikkkkkkkkkkkkkkkkkkkfijjjjjjjjjjjjjjjjjjjjll.a#",
"#aaaaaaaaaaaaaaaaaaaaaaaaaaaaaaaaaaaaaaaaaaaaaaaaaa#",
"####################################################",
"####################################################",
"#aaaaaaaaaaaaaaaaaaaaaaaaaaaaaaaaaaaaaaaaaaaaaaaaaa#",
"#ahhiiiihiiiiiiiiiiiiiiiihjddddddddddddddddddddddja#",
"#aeddccccrgggggggggggggggfgcdssssssssssssssssssssla#",
"#aeddccdbjjjjjjjjjjjjjjjjjhcddddddddddddddddddddbla#",
"#aeddccbsjjjjjjjjjjjjjjjjjhcddddddddddddddddddddbla#",
"#aeddccbsjjjjjjjjjjjjjjjjjhcddddddddddddddddddddbla#",
"#aeddccbsjjjjjjjjjjjjjjjjjhcddddddddddddddddddddbla#",
"#aeddccssjjjjjjjjjjjjjjjjjhcddddddddddddddddddddbla#",
"#aeddccsbjjjjjjjjjjjjjjjjjhcddddddddddddddddddddbla#",
"#aeddccssjjjjjjjjjjjjjjjjjhcddddddddddddddddddddbla#",
"#aeddccbbjjjjjjjjjjjjjjjjjhcddddddddddddddddddddbla#",
"#aeddccbqjjjjjjjjjjjjjjjjjhcddddddddddddddddddddbla#",
"#aeddccccjjjjjjjjjjjjjjjjjhcddddddddddddddddddddbla#",
"#aedncccnkjjjjjjjjjjjjjjjjhddddddddddddddddddddddla#",
"#aiihlllhlllllllllllllllllfijjjjjjjjjjjjjjjjjjjjjla#",
"#aaaaaaaaaaaaaaaaaaaaaaaaaaaaaaaaaaaaaaaaaaaaaaaaaa#",
"####################################################"
};
