/* XPM */
static char *bmp002[] = {
/* width height num_colors chars_per_pixel */
"    50    15        3            1",
/* colors */
". c #000000",
"# c #7e7e7e",
"a c #c0c0c0",
/* pixels */
"aaaaaaaaaaaaaaaaaaaaaaaaaaaaaaaaaaaaaaaaaaaaaaaaaa",
"a################################################.",
"a################################################.",
"a################################################.",
"a################################################.",
"a################################################.",
"a################################################.",
"a###..........................................###.",
"a####aaaaaaaaaaaaaaaaaaaaaaaaaaaaaaaaaaaaaaaaa###.",
"a################################################.",
"a################################################.",
"a################################################.",
"a################################################.",
"a################################################.",
"a................................................."
};
