/* XPM */
static char *bmp012[] = {
/* width height num_colors chars_per_pixel */
"     7   110        3            1",
/* colors */
". c #000000",
"# c #00ff00",
"a c #ffff00",
/* pixels */
"aaaaaaa",
"aaaaaaa",
".......",
".......",
"aaaaaaa",
"aaaaaaa",
".......",
".......",
"aaaaaaa",
"aaaaaaa",
".......",
".......",
"aaaaaaa",
"aaaaaaa",
".......",
".......",
"aaaaaaa",
"aaaaaaa",
".......",
".......",
"aaaaaaa",
"aaaaaaa",
".......",
".......",
"#######",
"#######",
".......",
".......",
"#######",
"#######",
".......",
".......",
"#######",
"#######",
".......",
".......",
"#######",
"#######",
".......",
".......",
"#######",
"#######",
".......",
".......",
"#######",
"#######",
".......",
".......",
"#######",
"#######",
".......",
".......",
"#######",
"#######",
".......",
".......",
"#######",
"#######",
".......",
".......",
"#######",
"#######",
".......",
".......",
"#######",
"#######",
".......",
".......",
"#######",
"#######",
".......",
".......",
"#######",
"#######",
".......",
".......",
"#######",
"#######",
".......",
".......",
"#######",
"#######",
".......",
".......",
"#######",
"#######",
".......",
".......",
"#######",
"#######",
".......",
".......",
"#######",
"#######",
".......",
".......",
"#######",
"#######",
".......",
".......",
"#######",
"#######",
".......",
".......",
"#######",
"#######",
".......",
".......",
"#######",
"#######"
};
