/* XPM */
static char *bmp014[] = {
/* width height num_colors chars_per_pixel */
"   200    80        4            1",
/* colors */
". c #000000",
"# c #000080",
"a c #c0c0c0",
"b c #ffff00",
/* pixels */
"aaaaaaaaaaaaaaaaaaaaaaaaaaaaaaaaaaaaaaaaaaaaaaaaaaaaaaaaaaaaaaaaaaaaaaaaaaaaaaaaaaaaaaaaaaaaaaaaaaaaaaaaaaaaaaaaaaaaaaaaaaaaaaaaaaaaaaaaaaaaaaaaaaaaaaaaaaaaaaaaaaaaaaaaaaaaaaaaaaaaaaaaaaaaaaaaaaaaaaaa",
"aaaaaaaaaaaaaaaaaaaaaaaaaaaaaaaaaaaaaaaaaaaaaaaaaaaaaaaaaaaaaaaaaaaaaaaaaaaaaaaaaaaaaaaaaaaaaaaaaaaaaaaaaaaaaaaaaaaaaaaaaaaaaaaaaaaaaaaaaaaaaaaaaaaaaaaaaaaaaaaaaaaaaaaaaaaaaaaaaaaaaaaaaaaaaaaaaaaaaaaa",
"aa####################################################################################################################################################################################################..",
"aa####################################################################################################################################################################################################..",
"aa####################################################################################################################################################################################################..",
"aa####################################################################################################################################################################################################..",
"aa####################################################################################################################################################################################################..",
"aa####################################################################################################################################################################################################..",
"aa####################################################################################################################################################################################################..",
"aa####################################################################################################################################################################################################..",
"aa####################################################################################################################################################################################################..",
"aa####################################################################################################################################################################################################..",
"aa####################################################################################################################################################################################################..",
"aa####################################################################################################################################################################################################..",
"aa####################################################################################################################################################################################################..",
"aa#############################bbbbb##b#############b##########bbbbb##########################b########b#b##b##b##########################################################b###########################..",
"aa#############################b####b#b##########################b###############b###########b#########b###b##b#######################b#######################b###########b###########################..",
"aa#############################b####b#b##########################b###############b###########b#########b###b##b#######################b#######################b###########b###########################..",
"aa#############################b####b#b#b###b##bbbb#b#b#bb#######b#####bbb###bb##bb#####bbb##bb#####bbbb#b#bb#bb##bbb##bb##bbb##b#bb##bb#####bbb###bbb##b#bb##bb#bb##bbb##b##bb#######################..",
"aa#############################bbbbb##b#b###b#b###b#b#bb##b######b####b###b#b##b#b#####b###b#b#####b###b#b#b##b##b###b#b##b###b#bb##b#b#####b###b#b###b#bb##b#b##b##b###b#b#b##b######################..",
"aa#############################b######b#b###b#b###b#b#b###b######b####bbbbb##b###b#####b###b#b#####b###b#b#b##b##bbbbb#b##bbbbb#b###b#b#####b#####b###b#b###b#b##b##b###b#b##b########################..",
"aa#############################b######b#b###b#b###b#b#b###b######b####b#######b##b#####b###b#b#####b###b#b#b##b##b#####b##b#####b###b#b#####b#####b###b#b###b#b##b##b###b#b###b#######################..",
"aa#############################b######b#b##bb#b###b#b#b###b######b####b###b#b##b#b#####b###b#b#####b###b#b#b##b##b###b#b##b###b#b###b#b#####b###b#b###b#b###b#b##b##b###b#b#b##b######################..",
"aa#############################b######b##bb#b##bbbb#b#b###b######b#####bbb###bb###b#####bbb##b######bbbb#b#b##b###bbb##b###bbb##b###b##b#####bbb###bbb##b###b##b#b###bbb##b##bb#######################..",
"aa################################################b###################################################################################################################################################..",
"aa############################################bbbb####################################################################################################################################################..",
"aa####################################################################################################################################################################################################..",
"aa####################################################################################################################################################################################################..",
"aa########################################b###############b#####b##bbb###bbbbb###bbbb###b####b##b#####################################################################################################..",
"aa########################################################b#####b#b###b####b####b####b##b####b##b#####################################################################################################..",
"aa#########################################################b###b##b########b####b#######b####b##b#####################################################################################################..",
"aa#############################b###b##bb##b#b#bb###bbbb####b###b##b########b####b#######b####b##b#####################################################################################################..",
"aa#############################b###b#b##b#b#bb##b#b###b####b###b###bbb#####b####b##bbb##b####b##b#####################################################################################################..",
"aa#############################b###b##b###b#b###b#b###b#####b#b#######b####b####b####b##b####b##b#####################################################################################################..",
"aa#############################b###b###b##b#b###b#b###b#####b#b#######b####b####b####b##b####b##b#####################################################################################################..",
"aa#############################b##bb#b##b#b#b###b#b###b######b####b###b####b####b###bb##b####b##b#####################################################################################################..",
"aa##############################bb#b##bb##b#b###b##bbbb######b#####bbb#####b#####bbb#b###bbbb###b##b##################################################################################################..",
"aa####################################################b###############################################################################################################################################..",
"aa################################################bbbb################################################################################################################################################..",
"aa####################################################################################################################################################################################################..",
"aa####################################################################################################################################################################################################..",
"aa####################################################################################################################################################################################################..",
"aa####################################################################################################################################################################################################..",
"aa####################################################################################################################################################################################################..",
"aa####################################################################################################################################################################################################..",
"aa####################################################################################################################################################################################################..",
"aa####################################################################################################################################################################################################..",
"aa####################################################################################################################################################################################################..",
"aa####################################################################################################################################################################################################..",
"aa####################################################################################################################################################################################################..",
"aa####################################################################################################################################################################################################..",
"aa####################################################################################################################################################################################################..",
"aa####################################################################################################################################################################################################..",
"aa####################################################################################################################################################################################################..",
"aa#############################bbbbb##########################################b##################b#####b#######################bbbb############b#####b################################################..",
"aa#############################b####b############################################################b#####b######################b####b###########b#######b##############################################..",
"aa#############################b####b#############################################################b###b#######################b################b#######b##############################################..",
"aa#############################b####b#bb##bbb###bbbb#bb##bbb##bbb#bb##bbb#bb##b#b#bb###bbbb#b######b#b###b###b##bbb##b#bb#####b#######bb##bbb##bbbb##b#bb#############################################..",
"aa#############################bbbbb##b##b###b#b###b#b######b#b##b##b#b##b##b#b#bb##b#b###b#########b####b###b#####b#bb##b####b##bbb##b######b#b###b#b#b##############################################..",
"aa#############################b######b##b###b#b###b#b###bbbb#b##b##b#b##b##b#b#b###b#b###b#########b#####b#b###bbbb#b###b####b####b##b###bbbb#b###b#b#b##############################################..",
"aa#############################b######b##b###b#b###b#b##b###b#b##b##b#b##b##b#b#b###b#b###b#########b#####b#b##b###b#b###b####b####b##b##b###b#b###b#b#b##############################################..",
"aa#############################b######b##b###b#b###b#b##b###b#b##b##b#b##b##b#b#b###b#b###b#########b######b###b###b#b###b####b###bb##b##b###b#b###b#b#b##############################################..",
"aa#############################b######b###bbb###bbbb#b###bbbb#b##b##b#b##b##b#b#b###b##bbbb#b#######b######b####bbbb#b###b#####bbb#b##b###bbbb#bbbb##b##b#############################################..",
"aa#################################################b######################################b###########################################################################################################..",
"aa#############################################bbbb###################################bbbb############################################################################################################..",
"aa####################################################################################################################################################################################################..",
"aa####################################################################################################################################################################################################..",
"aa####################################################################################################################################################################################################..",
"aa####################################################################################################################################################################################################..",
"aa####################################################################################################################################################################################################..",
"aa####################################################################################################################################################################################################..",
"aa####################################################################################################################################################################################################..",
"aa####################################################################################################################################################################################################..",
"aa####################################################################################################################################################################################################..",
"aa####################################################################################################################################################################################################..",
"aa####################################################################################################################################################################################################..",
"aa####################################################################################################################################################################################################..",
"aa####################################################################################################################################################################################################..",
"aa......................................................................................................................................................................................................",
"aa......................................................................................................................................................................................................"
};
