/* XPM */
static char *bmp006[] = {
/* width height num_colors chars_per_pixel */
"    15   200        3            1",
/* colors */
". c #000000",
"# c #7e7e7e",
"a c #c0c0c0",
/* pixels */
"...............",
".#############a",
".#aaaaaaaaaaa#a",
".#a#########.#a",
".#a#########.#a",
".#a#########.#a",
".#a#########.#a",
".#a#########.#a",
".#a#########.#a",
".#a#########.#a",
".#a#########.#a",
".#a..........#a",
".######.a#####a",
".######.a#####a",
".######.a#####a",
".######.a#####a",
".######.a#####a",
".######.a#####a",
".######.a#####a",
".######.a#####a",
".######.a#####a",
".######.a#####a",
".######.a#####a",
".######.a#####a",
".######.a#####a",
".######.a#####a",
".######.a#####a",
".######.a#####a",
".######.a#####a",
".######.a#####a",
".######.a#####a",
".######.a#####a",
".######.a#####a",
".######.a#####a",
".######.a#####a",
".######.a#####a",
".######.a#####a",
".######.a#####a",
".######.a#####a",
".######.a#####a",
".######.a#####a",
".######.a#####a",
".######.a#####a",
".######.a#####a",
".######.a#####a",
".######.######a",
".#############a",
".#############a",
".#############a",
".aaaaaaaaaaaaaa",
"...............",
".#############a",
".#############a",
".#############a",
".######.a#####a",
".######.a#####a",
".######.a#####a",
".######.a#####a",
".######.a#####a",
".######.a#####a",
".######.a#####a",
".######.a#####a",
".######.a#####a",
".#aaaaaaaaaaa#a",
".#a#########.#a",
".#a#########.#a",
".#a#########.#a",
".#a#########.#a",
".#a#########.#a",
".#a#########.#a",
".#a#########.#a",
".#a#########.#a",
".#a..........#a",
".######.a#####a",
".######.a#####a",
".######.a#####a",
".######.a#####a",
".######.a#####a",
".######.a#####a",
".######.a#####a",
".######.a#####a",
".######.a#####a",
".######.a#####a",
".######.a#####a",
".######.a#####a",
".######.a#####a",
".######.a#####a",
".######.a#####a",
".######.a#####a",
".######.a#####a",
".######.a#####a",
".######.a#####a",
".######.a#####a",
".######.a#####a",
".######.a#####a",
".######.######a",
".#############a",
".#############a",
".#############a",
".aaaaaaaaaaaaaa",
"...............",
".#############a",
".#############a",
".#############a",
".######.a#####a",
".######.a#####a",
".######.a#####a",
".######.a#####a",
".######.a#####a",
".######.a#####a",
".######.a#####a",
".######.a#####a",
".######.a#####a",
".######.a#####a",
".######.a#####a",
".######.a#####a",
".######.a#####a",
".######.a#####a",
".######.a#####a",
".######.a#####a",
".######.a#####a",
".######.a#####a",
".######.a#####a",
".######.a#####a",
".######.a#####a",
".######.a#####a",
".######.a#####a",
".#aaaaaaaaaaa#a",
".#a#########.#a",
".#a#########.#a",
".#a#########.#a",
".#a#########.#a",
".#a#########.#a",
".#a#########.#a",
".#a#########.#a",
".#a#########.#a",
".#a..........#a",
".######.a#####a",
".######.a#####a",
".######.a#####a",
".######.a#####a",
".######.a#####a",
".######.a#####a",
".######.a#####a",
".######.a#####a",
".######.######a",
".#############a",
".#############a",
".#############a",
".aaaaaaaaaaaaaa",
"...............",
".#############a",
".#############a",
".#############a",
".######.a#####a",
".######.a#####a",
".######.a#####a",
".######.a#####a",
".######.a#####a",
".######.a#####a",
".######.a#####a",
".######.a#####a",
".######.a#####a",
".######.a#####a",
".######.a#####a",
".######.a#####a",
".######.a#####a",
".######.a#####a",
".######.a#####a",
".######.a#####a",
".######.a#####a",
".######.a#####a",
".######.a#####a",
".######.a#####a",
".######.a#####a",
".######.a#####a",
".######.a#####a",
".######.a#####a",
".######.a#####a",
".######.a#####a",
".######.a#####a",
".######.a#####a",
".######.a#####a",
".######.a#####a",
".######.a#####a",
".######.a#####a",
".######.a#####a",
".######.a#####a",
".#aaaaaaaaaaa#a",
".#a#########.#a",
".#a#########.#a",
".#a#########.#a",
".#a#########.#a",
".#a#########.#a",
".#a#########.#a",
".#a#########.#a",
".#a#########.#a",
".#a..........#a",
".#############a",
".aaaaaaaaaaaaaa"
};
