/* XPM */
static char *bmp016[] = {
/* width height num_colors chars_per_pixel */
"    40   400        5            1",
/* colors */
". c #000000",
"# c #808080",
"a c #80ffff",
"b c #c0c0c0",
"c c #ff0000",
/* pixels */
"bbbbbbbbbbbbbbbbbbbbbbbbbbbbbbbbbbbbbbbb",
"bbbbbbbbbbbbbbbbbbbbbbbbbbbbbbbbbbbbbbbb",
"baaaaaaaaaaaaaaaaaaaaaaaaaaaaaaaaaaaaaa.",
"baaaaaaaaaaaaaaaaaaaaaaaaaaaaaaaaaaaaaa.",
"baacaaaaacaaaaaaaaaaaaaaaaaaaaacccccaaa.",
"baacaaaaacaaaaaaaaaaaaaaaaaaaaaaacaaaaa.",
"baaacaaacaaaaaaaaaaaaaaaaaaaaaaaacaaaaa.",
"baaacaaacaaaaaaaaaaaaaaaaaaaaaaaacaaaaa.",
"baaacaaacaaaaaaaaaaaaaaaaaaaaaaaacaaaaa.",
"baaaacacaaaaaaaaaaaaaaaaaaaaaaaaacaaaaa.",
"baaaacacaaaaaaaaaaaaaaaaaaaaaaaaacaaaaa.",
"baaaaacaaaaaaaaaaaaaaaaaaaaaaaaaacaaaaa.",
"baaaaacaaaaaaaaaaaaaaaaaaaaaaaaaacaaaaa.",
"baaaaaaaaaaaaaaaaaaaaaaaaaaaaaaaaaaaaaa.",
"baaaaaaaaaaaaaaaaaaaaaaaaaaaaaaaaaaaaaa.",
"baaaaaaaaaaaaaaaaaaaaaaaaaaaaaaaaaaaaaa.",
"baaaaaaaaaaaaaaaaaaaaaaaaaaaaaaaaaaaaaa.",
"baaaaaaaaaaaaaaaaaaaaaaaaaaaaaaaaaaaaaa.",
"baaaaaaaaaaaaaaaaaaaaaaaaaaaaaaaaaaaaaa.",
"baaaaaaaaaaaaaaaaaaaaaaaaaaaaaaaaaaaaaa.",
"baaaaaaaaaaaaaaaaaaaaaaaaaaaaaaaaaaaaaa.",
"baaaaaaaaaaaaaaaaaaaaaaaaaaaaaaaaaaaaaa.",
"baaaaaaaaaaaaaaaaaaaaaaaaaaaaaaaaaaaaaa.",
"baaaaaaaaaaaaaaaaaaaaaaaaaaaaaaaaaaaaaa.",
"baaaaaaaaaaaaaaaaaaaaaaaaaaaaaaaaaaaaaa.",
"baaaaaaaaaaaaaaaaaaaaaaaaaaaaaaaaaaaaaa.",
"baaaaaaaaaaaaaaaaaaaaaaaaaaaaaaaaaaaaaa.",
"baaaaaaaaaaaaaaaaaaaaaaaaaaaaaaaaaaaaaa.",
"baaaaaaaaaaaaaaaaaaaaaaaaaaaaaaaaaaaaaa.",
"baaaaaaaaaaaaaaaacccaaaaaaaaaaaaaaaaaaa.",
"baaaaaaaaaaaaaaacaaacaaaaaaaaaaaaaaaaaa.",
"baaaaaaaaaaaaaaacaaaaaaaaaaaaaaaaaaaaaa.",
"baaaaaaaaaaaaaaacaaaaaaaaaaaaaaaaaaaaaa.",
"baa#aaaaaaaaaaaaacccaaaaaaaaaaaaaaaaaaa.",
"ba##aaaaaaaaaaaaaaaacaaaaaaaaaaaaaaaaaa.",
"baa#aaaaaaaaaaaaaaaacaaaaaaaaaaaaaaaaaa.",
"baa#aaaaaaaaaaaacaaacaaaaaaaaaaaaaaaaaa.",
"baa#aaaaaaaaaaaaacccaaaaaaaaaaaaaaaaaaa.",
"baaaaaaaaaaaaaaaaaaaaaaaaaaaaaaaaaaaaaa.",
"b.......................................",
"bbbbbbbbbbbbbbbbbbbbbbbbbbbbbbbbbbbbbbbb",
"baaaaaaaaaaaaaaaaaaaaaaaaaaaaaaaaaaaaaa.",
"baaaaaaaaaaaaaaaaaaaaaaaaaaaaaaaaaaaaaa.",
"baaaaaaaaaaaaaaaaaaaaaaaaaaaaaaaaaaaaaa.",
"baaaaaaaaaaaaaaaaaaaaaaaaaaaaaaaaaaaaaa.",
"baaaacaaaaacaaaaaaaaaaaaaaaaaacccccaaaa.",
"baaaacaaaaacaaaaaaaaaaaaaaaaaaaacaaaaaa.",
"baaaaacaaacaaaaaaaaaaaaaaaaaaaaacaaaaaa.",
"baaaaacaaacaaaaaaaaaaaaaaaaaaaaacaaaaaa.",
"baaaaacaaacaaaaaaaaaaaaaaaaaaaaacaaaaaa.",
"baaaaaacacaaaaaaaaaaaaaaaaaaaaaacaaaaaa.",
"baaaaaacacaaaaaaaaaaaaaaaaaaaaaacaaaaaa.",
"baaaaaaacaaaaaaaaaaaaaaaaaaaaaaacaaaaaa.",
"baaaaaaacaaaaaaaaaaaaaaaaaaaaaaacaaaaaa.",
"baaaaaaaaaaaaaaaaaaaaaaaaaaaaaaaaaaaaaa.",
"baaaaaaaaaaaaaaaaaaaaaaaaaaaaaaaaaaaaaa.",
"baaaaaaaaaaaaaaaaaaaaaaaaaaaaaaaaaaaaaa.",
"baaaaaaaaaaaaaaaaaaaaaaaaaaaaaaaaaaaaaa.",
"baaaaaaaaaaaaaaaaaaaaaaaaaaaaaaaaaaaaaa.",
"baaaaaaaaaaaaaaaaaaaaaaaaaaaaaaaaaaaaaa.",
"baaaaaaaaaaaaaaaaaaaaaaaaaaaaaaaaaaaaaa.",
"baaaaaaaaaaaaaaaaaaaaaaaaaaaaaaaaaaaaaa.",
"baaaaaaaaaaaaaaaaaaaaaaaaaaaaaaaaaaaaaa.",
"baaaaaaaaaaaaaaaaaaaaaaaaaaaaaaaaaaaaaa.",
"baaaaaaaaaaaaaaaaaaaaaaaaaaaaaaaaaaaaaa.",
"baaaaaaaaaaaaaaaaaaaaaaaaaaaaaaaaaaaaaa.",
"baaaaaaaaaaaaaaaaaaaaaaaaaaaaaaaaaaaaaa.",
"baaaaaaaaaaaaaaaaaacccaaaaaaaaaaaaaaaaa.",
"baaaaaaaaaaaaaaaaacaaacaaaaaaaaaaaaaaaa.",
"baaaaaaaaaaaaaaaaacaaaaaaaaaaaaaaaaaaaa.",
"baaaaaaaaaaaaaaaaacaaaaaaaaaaaaaaaaaaaa.",
"baaaaaaaaaaaaaaaaaacccaaaaaaaaaaaaaaaaa.",
"baaaaaaaaaaaaaaaaaaaaacaaaaaaaaaaaaaaaa.",
"ba##aaaaaaaaaaaaaaaaaacaaaaaaaaaaaaaaaa.",
"baaa#aaaaaaaaaaaaacaaacaaaaaaaaaaaaaaaa.",
"baa#aaaaaaaaaaaaaaacccaaaaaaaaaaaaaaaaa.",
"ba#aaaaaaaaaaaaaaaaaaaaaaaaaaaaaaaaaaaa.",
"ba###aaaaaaaaaaaaaaaaaaaaaaaaaaaaaaaaaa.",
"baaaaaaaaaaaaaaaaaaaaaaaaaaaaaaaaaaaaaa.",
"b.......................................",
"bbbbbbbbbbbbbbbbbbbbbbbbbbbbbbbbbbbbbbbb",
"baaaaaaaaaaaaaaaaaaaaaaaaaaaaaaaaaaaaaa.",
"baaaaaaaaaaaaaaaaaaaaaaaaaaaaaaaaaaaaaa.",
"baaaaaaaaaaaaaaaaaaaaaaaaaaaaaaaaaaaaaa.",
"baaaaaaaaaaaaaaaaaaaaaaaaaaaaaaaaaaaaaa.",
"baaaaaaaaaaaaaaaaaaaaaaaaaaaaaaaaaaaaaa.",
"baaaaaaaaaaaaaaaaaaaaaaaaaaaaaaaaaaaaaa.",
"baaaaacaaaaacaaaaaaaaaaaaaaaacccccaaaaa.",
"baaaaacaaaaacaaaaaaaaaaaaaaaaaacaaaaaaa.",
"baaaaaacaaacaaaaaaaaaaaaaaaaaaacaaaaaaa.",
"baaaaaacaaacaaaaaaaaaaaaaaaaaaacaaaaaaa.",
"baaaaaacaaacaaaaaaaaaaaaaaaaaaacaaaaaaa.",
"baaaaaaacacaaaaaaaaaaaaaaaaaaaacaaaaaaa.",
"baaaaaaacacaaaaaaaaaaaaaaaaaaaacaaaaaaa.",
"baaaaaaaacaaaaaaaaaaaaaaaaaaaaacaaaaaaa.",
"baaaaaaaacaaaaaaaaaaaaaaaaaaaaacaaaaaaa.",
"baaaaaaaaaaaaaaaaaaaaaaaaaaaaaaaaaaaaaa.",
"baaaaaaaaaaaaaaaaaaaaaaaaaaaaaaaaaaaaaa.",
"baaaaaaaaaaaaaaaaaaaaaaaaaaaaaaaaaaaaaa.",
"baaaaaaaaaaaaaaaaaaaaaaaaaaaaaaaaaaaaaa.",
"baaaaaaaaaaaaaaaaaaaaaaaaaaaaaaaaaaaaaa.",
"baaaaaaaaaaaaaaaaaaaaaaaaaaaaaaaaaaaaaa.",
"baaaaaaaaaaaaaaaaaaaaaaaaaaaaaaaaaaaaaa.",
"baaaaaaaaaaaaaaaaaaaaaaaaaaaaaaaaaaaaaa.",
"baaaaaaaaaaaaaaaaaaaaaaaaaaaaaaaaaaaaaa.",
"baaaaaaaaaaaaaaaaacccaaaaaaaaaaaaaaaaaa.",
"baaaaaaaaaaaaaaaacaaacaaaaaaaaaaaaaaaaa.",
"baaaaaaaaaaaaaaaacaaaaaaaaaaaaaaaaaaaaa.",
"baaaaaaaaaaaaaaaacaaaaaaaaaaaaaaaaaaaaa.",
"baaaaaaaaaaaaaaaaacccaaaaaaaaaaaaaaaaaa.",
"baaaaaaaaaaaaaaaaaaaacaaaaaaaaaaaaaaaaa.",
"baaaaaaaaaaaaaaaaaaaacaaaaaaaaaaaaaaaaa.",
"baaaaaaaaaaaaaaaacaaacaaaaaaaaaaaaaaaaa.",
"ba##aaaaaaaaaaaaaacccaaaaaaaaaaaaaaaaaa.",
"baaa#aaaaaaaaaaaaaaaaaaaaaaaaaaaaaaaaaa.",
"baa#aaaaaaaaaaaaaaaaaaaaaaaaaaaaaaaaaaa.",
"baaa#aaaaaaaaaaaaaaaaaaaaaaaaaaaaaaaaaa.",
"ba##aaaaaaaaaaaaaaaaaaaaaaaaaaaaaaaaaaa.",
"baaaaaaaaaaaaaaaaaaaaaaaaaaaaaaaaaaaaaa.",
"b.......................................",
"bbbbbbbbbbbbbbbbbbbbbbbbbbbbbbbbbbbbbbbb",
"baaaaaaaaaaaaaaaaaaaaaaaaaaaaaaaaaaaaaa.",
"baaaaaaaaaaaaaaaaaaaaaaaaaaaaaaaaaaaaaa.",
"baaaaaaaaaaaaaaaaaaaaaaaaaaaaaaaaaaaaaa.",
"baaaaaaaaaaaaaaaaaaaaaaaaaaaaaaaaaaaaaa.",
"baaaaaaaaaaaaaaaaaaaaaaaaaaaaaaaaaaaaaa.",
"baaaaaaaaaaaaaaaaaaaaaaaaaaaaaaaaaaaaaa.",
"baaaaaaaaaaaaaaaaaaaaaaaaaaaaaaaaaaaaaa.",
"baaaaaaaaaaaaaaaaaaaaaaaaaaaaaaaaaaaaaa.",
"baaaaaacaaaaacaaaaaaaaaaaaaacccccaaaaaa.",
"baaaaaacaaaaacaaaaaaaaaaaaaaaacaaaaaaaa.",
"baaaaaaacaaacaaaaaaaaaaaaaaaaacaaaaaaaa.",
"baaaaaaacaaacaaaaaaaaaaaaaaaaacaaaaaaaa.",
"baaaaaaacaaacaaaaaaaaaaaaaaaaacaaaaaaaa.",
"baaaaaaaacacaaaaaaaaaaaaaaaaaacaaaaaaaa.",
"baaaaaaaacacaaaaaaaaaaaaaaaaaacaaaaaaaa.",
"baaaaaaaaacaaaaaaaaaaaaaaaaaaacaaaaaaaa.",
"baaaaaaaaacaaaaaaaaaaaaaaaaaaacaaaaaaaa.",
"baaaaaaaaaaaaaaaaaaaaaaaaaaaaaaaaaaaaaa.",
"baaaaaaaaaaaaaaaaaaaaaaaaaaaaaaaaaaaaaa.",
"baaaaaaaaaaaaaaaaaaaaaaaaaaaaaaaaaaaaaa.",
"baaaaaaaaaaaaaaaaaaaaaaaaaaaaaaaaaaaaaa.",
"baaaaaaaaaaaaaaaaaaaaaaaaaaaaaaaaaaaaaa.",
"baaaaaaaaaaaaaaaaaaaaaaaaaaaaaaaaaaaaaa.",
"baaaaaaaaaaaaaaaaacccaaaaaaaaaaaaaaaaaa.",
"baaaaaaaaaaaaaaaacaaacaaaaaaaaaaaaaaaaa.",
"baaaaaaaaaaaaaaaacaaaaaaaaaaaaaaaaaaaaa.",
"baaaaaaaaaaaaaaaacaaaaaaaaaaaaaaaaaaaaa.",
"baaaaaaaaaaaaaaaaacccaaaaaaaaaaaaaaaaaa.",
"baaaaaaaaaaaaaaaaaaaacaaaaaaaaaaaaaaaaa.",
"baaaaaaaaaaaaaaaaaaaacaaaaaaaaaaaaaaaaa.",
"baaaaaaaaaaaaaaaacaaacaaaaaaaaaaaaaaaaa.",
"baaaaaaaaaaaaaaaaacccaaaaaaaaaaaaaaaaaa.",
"baaa#aaaaaaaaaaaaaaaaaaaaaaaaaaaaaaaaaa.",
"baa##aaaaaaaaaaaaaaaaaaaaaaaaaaaaaaaaaa.",
"ba#a#aaaaaaaaaaaaaaaaaaaaaaaaaaaaaaaaaa.",
"ba###aaaaaaaaaaaaaaaaaaaaaaaaaaaaaaaaaa.",
"baaa#aaaaaaaaaaaaaaaaaaaaaaaaaaaaaaaaaa.",
"baaaaaaaaaaaaaaaaaaaaaaaaaaaaaaaaaaaaaa.",
"b.......................................",
"bbbbbbbbbbbbbbbbbbbbbbbbbbbbbbbbbbbbbbbb",
"baaaaaaaaaaaaaaaaaaaaaaaaaaaaaaaaaaaaaa.",
"baaaaaaaaaaaaaaaaaaaaaaaaaaaaaaaaaaaaaa.",
"baaaaaaaaaaaaaaaaaaaaaaaaaaaaaaaaaaaaaa.",
"baaaaaaaaaaaaaaaaaaaaaaaaaaaaaaaaaaaaaa.",
"baaaaaaaaaaaaaaaaaaaaaaaaaaaaaaaaaaaaaa.",
"baaaaaaaaaaaaaaaaaaaaaaaaaaaaaaaaaaaaaa.",
"baaaaaaaaaaaaaaaaaaaaaaaaaaaaaaaaaaaaaa.",
"baaaaaaaaaaaaaaaaaaaaaaaaaaaaaaaaaaaaaa.",
"baaaaaaaaaaaaaaaaaaaaaaaaaaaaaaaaaaaaaa.",
"baaaaaaaaaaaaaaaaaaaaaaaaaaaaaaaaaaaaaa.",
"baaaaaaaaaaaaaaaaaaaaaaaaaaaaaaaaaaaaaa.",
"baaaaaaacaaaaacaaaaaaaaaaacccccaaaaaaaa.",
"baaaaaaacaaaaacaaaaaaaaaaaaacaaaaaaaaaa.",
"baaaaaaaacaaacaaaaaaaaaaaaaacaaaaaaaaaa.",
"baaaaaaaacaaacaaaaaaaaaaaaaacaaaaaaaaaa.",
"baaaaaaaacaaacaaaaaaaaaaaaaacaaaaaaaaaa.",
"baaaaaaaaacacaaaaaaaaaaaaaaacaaaaaaaaaa.",
"baaaaaaaaacacaaaaaaaaaaaaaaacaaaaaaaaaa.",
"baaaaaaaaaacaaaaaaaaaaaaaaaacaaaaaaaaaa.",
"baaaaaaaaaacaaaaacccaaaaaaaacaaaaaaaaaa.",
"baaaaaaaaaaaaaaacaaacaaaaaaaaaaaaaaaaaa.",
"baaaaaaaaaaaaaaacaaaaaaaaaaaaaaaaaaaaaa.",
"baaaaaaaaaaaaaaacaaaaaaaaaaaaaaaaaaaaaa.",
"baaaaaaaaaaaaaaaacccaaaaaaaaaaaaaaaaaaa.",
"baaaaaaaaaaaaaaaaaaacaaaaaaaaaaaaaaaaaa.",
"baaaaaaaaaaaaaaaaaaacaaaaaaaaaaaaaaaaaa.",
"baaaaaaaaaaaaaaacaaacaaaaaaaaaaaaaaaaaa.",
"baaaaaaaaaaaaaaaacccaaaaaaaaaaaaaaaaaaa.",
"baaaaaaaaaaaaaaaaaaaaaaaaaaaaaaaaaaaaaa.",
"baaaaaaaaaaaaaaaaaaaaaaaaaaaaaaaaaaaaaa.",
"baaaaaaaaaaaaaaaaaaaaaaaaaaaaaaaaaaaaaa.",
"baaaaaaaaaaaaaaaaaaaaaaaaaaaaaaaaaaaaaa.",
"ba###aaaaaaaaaaaaaaaaaaaaaaaaaaaaaaaaaa.",
"ba#aaaaaaaaaaaaaaaaaaaaaaaaaaaaaaaaaaaa.",
"ba###aaaaaaaaaaaaaaaaaaaaaaaaaaaaaaaaaa.",
"baaa#aaaaaaaaaaaaaaaaaaaaaaaaaaaaaaaaaa.",
"ba##aaaaaaaaaaaaaaaaaaaaaaaaaaaaaaaaaaa.",
"baaaaaaaaaaaaaaaaaaaaaaaaaaaaaaaaaaaaaa.",
"b.......................................",
"bbbbbbbbbbbbbbbbbbbbbbbbbbbbbbbbbbbbbbbb",
"baaaaaaaaaaaaaaaaaaaaaaaaaaaaaaaaaaaaaa.",
"baaaaaaaaaaaaaaaaaaaaaaaaaaaaaaaaaaaaaa.",
"baaaaaaaaaaaaaaaaaaaaaaaaaaaaaaaaaaaaaa.",
"baaaaaaaaaaaaaaaaaaaaaaaaaaaaaaaaaaaaaa.",
"baaaaaaaaaaaaaaaaaaaaaaaaaaaaaaaaaaaaaa.",
"baaaaaaaaaaaaaaaaaaaaaaaaaaaaaaaaaaaaaa.",
"baaaaaaaaaaaaaaaaaaaaaaaaaaaaaaaaaaaaaa.",
"baaaaaaaaaaaaaaaaaaaaaaaaaaaaaaaaaaaaaa.",
"baaaaaaaaaaaaaaaaaaaaaaaaaaaaaaaaaaaaaa.",
"baaaaaaaaaaaaaaaaaaaaaaaaaaaaaaaaaaaaaa.",
"baaaaaaaaaaaaaaaaaaaaaaaaaaaaaaaaaaaaaa.",
"baaaaaaaaaaaaaaaaaaaaaaaaaaaaaaaaaaaaaa.",
"baaaaaaaaaaaaaaaaaaaaaaaaaaaaaaaaaaaaaa.",
"baaaaaaaaaaaaaaaaaaaaaaaaaaaaaaaaaaaaaa.",
"baaaaaacaaaaacaaaaaaaaaacccccaaaaaaaaaa.",
"baaaaaacaaaaacaaaaaaaaaaaacaaaaaaaaaaaa.",
"baaaaaaacaaacaaaacccaaaaaacaaaaaaaaaaaa.",
"baaaaaaacaaacaaacaaacaaaaacaaaaaaaaaaaa.",
"baaaaaaacaaacaaacaaaaaaaaacaaaaaaaaaaaa.",
"baaaaaaaacacaaaacaaaaaaaaacaaaaaaaaaaaa.",
"baaaaaaaacacaaaaacccaaaaaacaaaaaaaaaaaa.",
"baaaaaaaaacaaaaaaaaacaaaaacaaaaaaaaaaaa.",
"baaaaaaaaacaaaaaaaaacaaaaacaaaaaaaaaaaa.",
"baaaaaaaaaaaaaaacaaacaaaaaaaaaaaaaaaaaa.",
"baaaaaaaaaaaaaaaacccaaaaaaaaaaaaaaaaaaa.",
"baaaaaaaaaaaaaaaaaaaaaaaaaaaaaaaaaaaaaa.",
"baaaaaaaaaaaaaaaaaaaaaaaaaaaaaaaaaaaaaa.",
"baaaaaaaaaaaaaaaaaaaaaaaaaaaaaaaaaaaaaa.",
"baaaaaaaaaaaaaaaaaaaaaaaaaaaaaaaaaaaaaa.",
"baaaaaaaaaaaaaaaaaaaaaaaaaaaaaaaaaaaaaa.",
"baaaaaaaaaaaaaaaaaaaaaaaaaaaaaaaaaaaaaa.",
"baaaaaaaaaaaaaaaaaaaaaaaaaaaaaaaaaaaaaa.",
"baa#aaaaaaaaaaaaaaaaaaaaaaaaaaaaaaaaaaa.",
"ba#aaaaaaaaaaaaaaaaaaaaaaaaaaaaaaaaaaaa.",
"ba##aaaaaaaaaaaaaaaaaaaaaaaaaaaaaaaaaaa.",
"ba#a#aaaaaaaaaaaaaaaaaaaaaaaaaaaaaaaaaa.",
"baa#aaaaaaaaaaaaaaaaaaaaaaaaaaaaaaaaaaa.",
"baaaaaaaaaaaaaaaaaaaaaaaaaaaaaaaaaaaaaa.",
"b.......................................",
"bbbbbbbbbbbbbbbbbbbbbbbbbbbbbbbbbbbbbbbb",
"baaaaaaaaaaaaaaaaaaaaaaaaaaaaaaaaaaaaaa.",
"baaaaaaaaaaaaaaaaaaaaaaaaaaaaaaaaaaaaaa.",
"baaaaaaaaaaaaaaaaaaaaaaaaaaaaaaaaaaaaaa.",
"baaaaaaaaaaaaaaaaaaaaaaaaaaaaaaaaaaaaaa.",
"baaaaaaaaaaaaaaaaaaaaaaaaaaaaaaaaaaaaaa.",
"baaaaaaaaaaaaaaaaaaaaaaaaaaaaaaaaaaaaaa.",
"baaaaaaaaaaaaaaaaaaaaaaaaaaaaaaaaaaaaaa.",
"baaaaaaaaaaaaaaaaaaaaaaaaaaaaaaaaaaaaaa.",
"baaaaaaaaaaaaaaaaaaaaaaaaaaaaaaaaaaaaaa.",
"baaaaaaaaaaaaaaaaaaaaaaaaaaaaaaaaaaaaaa.",
"baaaaaaaaaaaaaaaaaaaaaaaaaaaaaaaaaaaaaa.",
"baaaaaaaaaaaaaaaaaaaaaaaaaaaaaaaaaaaaaa.",
"baaaaaaaaaaaaaaaaaaaaaaaaaaaaaaaaaaaaaa.",
"baaaaaaaaaaaaaaaaaaaaaaaaaaaaaaaaaaaaaa.",
"baaaaaaacaaaaacaacccaacccccaaaaaaaaaaaa.",
"baaaaaaacaaaaacacaaacaaacaaaaaaaaaaaaaa.",
"baaaaaaaacaaacaacaaaaaaacaaaaaaaaaaaaaa.",
"baaaaaaaacaaacaacaaaaaaacaaaaaaaaaaaaaa.",
"baaaaaaaacaaacaaacccaaaacaaaaaaaaaaaaaa.",
"baaaaaaaaacacaaaaaaacaaacaaaaaaaaaaaaaa.",
"baaaaaaaaacacaaaaaaacaaacaaaaaaaaaaaaaa.",
"baaaaaaaaaacaaaacaaacaaacaaaaaaaaaaaaaa.",
"baaaaaaaaaacaaaaacccaaaacaaaaaaaaaaaaaa.",
"baaaaaaaaaaaaaaaaaaaaaaaaaaaaaaaaaaaaaa.",
"baaaaaaaaaaaaaaaaaaaaaaaaaaaaaaaaaaaaaa.",
"baaaaaaaaaaaaaaaaaaaaaaaaaaaaaaaaaaaaaa.",
"baaaaaaaaaaaaaaaaaaaaaaaaaaaaaaaaaaaaaa.",
"baaaaaaaaaaaaaaaaaaaaaaaaaaaaaaaaaaaaaa.",
"baaaaaaaaaaaaaaaaaaaaaaaaaaaaaaaaaaaaaa.",
"baaaaaaaaaaaaaaaaaaaaaaaaaaaaaaaaaaaaaa.",
"baaaaaaaaaaaaaaaaaaaaaaaaaaaaaaaaaaaaaa.",
"baaaaaaaaaaaaaaaaaaaaaaaaaaaaaaaaaaaaaa.",
"ba###aaaaaaaaaaaaaaaaaaaaaaaaaaaaaaaaaa.",
"baaa#aaaaaaaaaaaaaaaaaaaaaaaaaaaaaaaaaa.",
"baa#aaaaaaaaaaaaaaaaaaaaaaaaaaaaaaaaaaa.",
"baa#aaaaaaaaaaaaaaaaaaaaaaaaaaaaaaaaaaa.",
"baa#aaaaaaaaaaaaaaaaaaaaaaaaaaaaaaaaaaa.",
"baaaaaaaaaaaaaaaaaaaaaaaaaaaaaaaaaaaaaa.",
"b.......................................",
"bbbbbbbbbbbbbbbbbbbbbbbbbbbbbbbbbbbbbbbb",
"baaaaaaaaaaaaaaaaaaaaaaaaaaaaaaaaaaaaaa.",
"baaaaaaaaaaaaaaaaaaaaaaaaaaaaaaaaaaaaaa.",
"baaaaaaaaaaaaaaaaaaaaaaaaaaaaaaaaaaaaaa.",
"baaaaaaaaaaaaaaaaaaaaaaaaaaaaaaaaaaaaaa.",
"baaaaaaaaaaaaaaaaaaaaaaaaaaaaaaaaaaaaaa.",
"baaaaaaaaaaaaaaaaaaaaaaaaaaaaaaaaaaaaaa.",
"baaaaaaaaaaaaaaaaaaaaaaaaaaaaaaaaaaaaaa.",
"baaaaaaaaaaaaaaaaaaaaaaaaaaaaaaaaaaaaaa.",
"baaaaaaaaaaaaaaaaaaaaaaaaaaaaaaaaaaaaaa.",
"baaaaaaaaaaaaaaaaaaaaaaaaaaaaaaaaaaaaaa.",
"baaaaaaaaaaaaaaaaaaaaaaaaaaaaaaaaaaaaaa.",
"baaaaaaaacaaaaacaacccaacccccaaaaaaaaaaa.",
"baaaaaaaacaaaaacacaaacaaacaaaaaaaaaaaaa.",
"baaaaaaaaacaaacaacaaaaaaacaaaaaaaaaaaaa.",
"baaaaaaaaacaaacaacaaaaaaacaaaaaaaaaaaaa.",
"baaaaaaaaacaaacaaacccaaaacaaaaaaaaaaaaa.",
"baaaaaaaaaacacaaaaaaacaaacaaaaaaaaaaaaa.",
"baaaaaaaaaacacaaaaaaacaaacaaaaaaaaaaaaa.",
"baaaaaaaaaaacaaaacaaacaaacaaaaaaaaaaaaa.",
"baaaaaaaaaaacaaaaacccaaaacaaaaaaaaaaaaa.",
"baaaaaaaaaaaaaaaaaaaaaaaaaaaaaaaaaaaaaa.",
"baaaaaaaaaaaaaaaaaaaaaaaaaaaaaaaaaaaaaa.",
"baaaaaaaaaaaaaaaaaaaaaaaaaaaaaaaaaaaaaa.",
"baaaaaaaaaaaaaaaaaaaaaaaaaaaaaaaaaaaaaa.",
"baaaaaaaaaaaaaaaaaaaaaaaaaaaaaaaaaaaaaa.",
"baaaaaaaaaaaaaaaaaaaaaaaaaaaaaaaaaaaaaa.",
"baaaaaaaaaaaaaaaaaaaaaaaaaaaaaaaaaaaaaa.",
"baaaaaaaaaaaaaaaaaaaaaaaaaaaaaaaaaaaaaa.",
"baaaaaaaaaaaaaaaaaaaaaaaaaaaaaaaaaaaaaa.",
"baaaaaaaaaaaaaaaaaaaaaaaaaaaaaaaaaaaaaa.",
"baaaaaaaaaaaaaaaaaaaaaaaaaaaaaaaaaaaaaa.",
"baaaaaaaaaaaaaaaaaaaaaaaaaaaaaaaaaaaaaa.",
"baa#aaaaaaaaaaaaaaaaaaaaaaaaaaaaaaaaaaa.",
"ba#a#aaaaaaaaaaaaaaaaaaaaaaaaaaaaaaaaaa.",
"baa#aaaaaaaaaaaaaaaaaaaaaaaaaaaaaaaaaaa.",
"ba#a#aaaaaaaaaaaaaaaaaaaaaaaaaaaaaaaaaa.",
"baa#aaaaaaaaaaaaaaaaaaaaaaaaaaaaaaaaaaa.",
"baaaaaaaaaaaaaaaaaaaaaaaaaaaaaaaaaaaaaa.",
"b.......................................",
"bbbbbbbbbbbbbbbbbbbbbbbbbbbbbbbbbbbbbbbb",
"baaaaaaaaaaaaaaaaaaaaaaaaaaaaaaaaaaaaaa.",
"baaaaaaaaaaaaaaaaaaaaaaaaaaaaaaaaaaaaaa.",
"baaaaaaaaaaaaaaaaaaaaaaaaaaaaaaaaaaaaaa.",
"baaaaaaaaaaaaaaaaaaaaaaaaaaaaaaaaaaaaaa.",
"baaaaaaaaaaaaaaaaaaaaaaaaaaaaaaaaaaaaaa.",
"baaaaaaaaaaaaaaaaaaaaaaaaaaaaaaaaaaaaaa.",
"baaaaaaaaaaaaaaaaaaaaaaaaaaaaaaaaaaaaaa.",
"baaaaaaaaaaaaaaaaaaaaaaaaaaaaaaaaaaaaaa.",
"baaaaaaaaaaaaaaaaaaaaaaaaaaaaaaaaaaaaaa.",
"baaaaaaaaaaaaaaaaaaaaaaaaaaaaaaaaaaaaaa.",
"baaaaaaaaacaaaaacaacccaacccccaaaaaaaaaa.",
"baaaaaaaaacaaaaacacaaacaaacaaaaaaaaaaaa.",
"baaaaaaaaaacaaacaacaaaaaaacaaaaaaaaaaaa.",
"baaaaaaaaaacaaacaacaaaaaaacaaaaaaaaaaaa.",
"baaaaaaaaaacaaacaaacccaaaacaaaaaaaaaaaa.",
"baaaaaaaaaaacacaaaaaaacaaacaaaaaaaaaaaa.",
"baaaaaaaaaaacacaaaaaaacaaacaaaaaaaaaaaa.",
"baaaaaaaaaaaacaaaacaaacaaacaaaaaaaaaaaa.",
"baaaaaaaaaaaacaaaaacccaaaacaaaaaaaaaaaa.",
"baaaaaaaaaaaaaaaaaaaaaaaaaaaaaaaaaaaaaa.",
"baaaaaaaaaaaaaaaaaaaaaaaaaaaaaaaaaaaaaa.",
"baaaaaaaaaaaaaaaaaaaaaaaaaaaaaaaaaaaaaa.",
"baaaaaaaaaaaaaaaaaaaaaaaaaaaaaaaaaaaaaa.",
"baaaaaaaaaaaaaaaaaaaaaaaaaaaaaaaaaaaaaa.",
"baaaaaaaaaaaaaaaaaaaaaaaaaaaaaaaaaaaaaa.",
"baaaaaaaaaaaaaaaaaaaaaaaaaaaaaaaaaaaaaa.",
"baaaaaaaaaaaaaaaaaaaaaaaaaaaaaaaaaaaaaa.",
"baaaaaaaaaaaaaaaaaaaaaaaaaaaaaaaaaaaaaa.",
"baaaaaaaaaaaaaaaaaaaaaaaaaaaaaaaaaaaaaa.",
"baaaaaaaaaaaaaaaaaaaaaaaaaaaaaaaaaaaaaa.",
"baaaaaaaaaaaaaaaaaaaaaaaaaaaaaaaaaaaaaa.",
"baaaaaaaaaaaaaaaaaaaaaaaaaaaaaaaaaaaaaa.",
"baa#aaaaaaaaaaaaaaaaaaaaaaaaaaaaaaaaaaa.",
"ba#a#aaaaaaaaaaaaaaaaaaaaaaaaaaaaaaaaaa.",
"ba###aaaaaaaaaaaaaaaaaaaaaaaaaaaaaaaaaa.",
"baaa#aaaaaaaaaaaaaaaaaaaaaaaaaaaaaaaaaa.",
"baa#aaaaaaaaaaaaaaaaaaaaaaaaaaaaaaaaaaa.",
"baaaaaaaaaaaaaaaaaaaaaaaaaaaaaaaaaaaaaa.",
"b.......................................",
"bbbbbbbbbbbbbbbbbbbbbbbbbbbbbbbbbbbbbbbb",
"baaaaaaaaaaaaaaaaaaaaaaaaaaaaaaaaaaaaaa.",
"baaaaaaaaaaaaaaaaaaaaaaaaaaaaaaaaaaaaaa.",
"baaaaaaaaaaaaaaaaaaaaaaaaaaaaaaaaaaaaaa.",
"baaaaaaaaaaaaaaaaaaaaaaaaaaaaaaaaaaaaaa.",
"baaaaaaaaaaaaaaaaaaaaaaaaaaaaaaaaaaaaaa.",
"baaaaaaaaacaaaaacaacccaacccccaaaaaaaaaa.",
"baaaaaaaaacaaaaacacaaacaaacaaaaaaaaaaaa.",
"baaaaaaaaaacaaacaacaaaaaaacaaaaaaaaaaaa.",
"baaaaaaaaaacaaacaacaaaaaaacaaaaaaaaaaaa.",
"baaaaaaaaaacaaacaaacccaaaacaaaaaaaaaaaa.",
"baaaaaaaaaaacacaaaaaaacaaacaaaaaaaaaaaa.",
"baaaaaaaaaaacacaaaaaaacaaacaaaaaaaaaaaa.",
"baaaaaaaaaaaacaaaacaaacaaacaaaaaaaaaaaa.",
"baaaaaaaaaaaacaaaaacccaaaacaaaaaaaaaaaa.",
"baaaaaaaaaaaaaaaaaaaaaaaaaaaaaaaaaaaaaa.",
"baaaaaaaaaaaaaaaaaaaaaaaaaaaaaaaaaaaaaa.",
"baaaaaaaaaaaaaaaaaaaaaaaaaaaaaaaaaaaaaa.",
"baaaaaaaaaaaaaaaaaaaaaaaaaaaaaaaaaaaaaa.",
"baaaaaaaaaaaaaaaaaaaaaaaaaaaaaaaaaaaaaa.",
"baaaaaaaaaaaaaaaaaaaaaaaaaaaaaaaaaaaaaa.",
"baaaaaaaaaaaaaaaaaaaaaaaaaaaaaaaaaaaaaa.",
"baaaaaaaaaaaaaaaaaaaaaaaaaaaaaaaaaaaaaa.",
"baaaaaaaaaaaaaaaaaaaaaaaaaaaaaaaaaaaaaa.",
"baaaaaaaaaaaaaaaaaaaaaaaaaaaaaaaaaaaaaa.",
"baaaaaaaaaaaaaaaaaaaaaaaaaaaaaaaaaaaaaa.",
"baaaaaaaaaaaaaaaaaaaaaaaaaaaaaaaaaaaaaa.",
"baaaaaaaaaaaaaaaaaaaaaaaaaaaaaaaaaaaaaa.",
"baaaaaaaaaaaaaaaaaaaaaaaaaaaaaaaaaaaaaa.",
"baaaaaaaaaaaaaaaaaaaaaaaaaaaaaaaaaaaaaa.",
"baaaaaaaaaaaaaaaaaaaaaaaaaaaaaaaaaaaaaa.",
"baaaaaaaaaaaaaaaaaaaaaaaaaaaaaaaaaaaaaa.",
"baaaaaaaaaaaaaaaaaaaaaaaaaaaaaaaaaaaaaa.",
"baa#aaa#aaaaaaaaaaaaaaaaaaaaaaaaaaaaaaa.",
"ba##aa#a#aaaaaaaaaaaaaaaaaaaaaaaaaaaaaa.",
"baa#aa#a#aaaaaaaaaaaaaaaaaaaaaaaaaaaaaa.",
"baa#aa#a#aaaaaaaaaaaaaaaaaaaaaaaaaaaaaa.",
"baa#aaa#aaaaaaaaaaaaaaaaaaaaaaaaaaaaaaa.",
"baaaaaaaaaaaaaaaaaaaaaaaaaaaaaaaaaaaaaa.",
"b......................................."
};
